<mxfile>
    <diagram id="OykpfW0tRos3SIhlruFu" name="Start Flow">
        <mxGraphModel dx="1669" dy="359" grid="0" gridSize="10" guides="1" tooltips="1" connect="1" arrows="1" fold="1" page="1" pageScale="1" pageWidth="850" pageHeight="1100" math="0" shadow="0">
            <root>
                <mxCell id="0"/>
                <mxCell id="1" parent="0"/>
                <mxCell id="7" value="" style="group" parent="1" vertex="1" connectable="0">
                    <mxGeometry x="-533" y="598" width="65" height="52" as="geometry"/>
                </mxCell>
                <mxCell id="5" value="UI:signin" style="aspect=fixed;html=1;points=[];align=center;image;fontSize=12;image=img/lib/azure2/general/Browser.svg;" parent="7" vertex="1">
                    <mxGeometry width="65" height="52" as="geometry"/>
                </mxCell>
                <mxCell id="6" value="" style="html=1;verticalLabelPosition=bottom;align=center;labelBackgroundColor=#ffffff;verticalAlign=top;strokeWidth=2;strokeColor=#0080F0;shadow=0;dashed=0;shape=mxgraph.ios7.icons.user;" parent="7" vertex="1">
                    <mxGeometry x="17.5" y="20" width="30" height="30" as="geometry"/>
                </mxCell>
                <mxCell id="12" style="edgeStyle=orthogonalEdgeStyle;rounded=0;orthogonalLoop=1;jettySize=auto;html=1;exitX=1;exitY=0.5;exitDx=0;exitDy=0;endArrow=none;endFill=0;" parent="1" source="8" target="11" edge="1">
                    <mxGeometry relative="1" as="geometry"/>
                </mxCell>
                <mxCell id="8" value="" style="ellipse;whiteSpace=wrap;html=1;aspect=fixed;" parent="1" vertex="1">
                    <mxGeometry x="-510.5" y="696" width="20" height="20" as="geometry"/>
                </mxCell>
                <mxCell id="27" style="edgeStyle=orthogonalEdgeStyle;rounded=0;orthogonalLoop=1;jettySize=auto;html=1;exitX=1;exitY=0.5;exitDx=0;exitDy=0;entryX=0;entryY=0.5;entryDx=0;entryDy=0;endArrow=none;endFill=0;" parent="1" source="11" target="26" edge="1">
                    <mxGeometry relative="1" as="geometry"/>
                </mxCell>
                <mxCell id="11" value="" style="ellipse;whiteSpace=wrap;html=1;aspect=fixed;" parent="1" vertex="1">
                    <mxGeometry x="-388" y="696" width="20" height="20" as="geometry"/>
                </mxCell>
                <mxCell id="13" value="Task Master:get user info" style="shape=image;editableCssRules=\.st[02];verticalLabelPosition=bottom;labelBackgroundColor=none;verticalAlign=top;aspect=fixed;imageAspect=0;image=data:image/svg+xml,PHN2ZyB4bWxuczpkYz0iaHR0cDovL3B1cmwub3JnL2RjL2VsZW1lbnRzLzEuMS8iIHhtbG5zOmNjPSJodHRwOi8vY3JlYXRpdmVjb21tb25zLm9yZy9ucyMiIHhtbG5zOnJkZj0iaHR0cDovL3d3dy53My5vcmcvMTk5OS8wMi8yMi1yZGYtc3ludGF4LW5zIyIgeG1sbnM6c3ZnPSJodHRwOi8vd3d3LnczLm9yZy8yMDAwL3N2ZyIgeG1sbnM9Imh0dHA6Ly93d3cudzMub3JnLzIwMDAvc3ZnIiB4bWxuczpzb2RpcG9kaT0iaHR0cDovL3NvZGlwb2RpLnNvdXJjZWZvcmdlLm5ldC9EVEQvc29kaXBvZGktMC5kdGQiIHhtbG5zOmlua3NjYXBlPSJodHRwOi8vd3d3Lmlua3NjYXBlLm9yZy9uYW1lc3BhY2VzL2lua3NjYXBlIiB2aWV3Qm94PSIwLjAwMDEzNDQ2ODA3ODYxMzI4MTI1IDAgNTAuMDAwMDA3NjI5Mzk0NTMgNDkuOTkwMDAxNjc4NDY2OCIgY2xhc3M9ImZ4cy1wb3J0YWwtc3ZnIiByb2xlPSJwcmVzZW50YXRpb24iIGZvY3VzYWJsZT0iZmFsc2UiIGlkPSJGeFN5bWJvbDAtMDUxIiB2ZXJzaW9uPSIxLjEiIHNvZGlwb2RpOmRvY25hbWU9IkFwcCBTZXJ2aWNlcy5zdmciIGlua3NjYXBlOnZlcnNpb249IjAuOTIuMyAoMjQwNTU0NiwgMjAxOC0wMy0xMSkiIHdpZHRoPSI1MC4wMDAwMDc2MjkzOTQ1MyIgaGVpZ2h0PSI0OS45OTAwMDE2Nzg0NjY4Ij4mI3hhOyAgPG1ldGFkYXRhIGlkPSJtZXRhZGF0YTkxNyI+JiN4YTsgICAgPHJkZjpyZGY+JiN4YTsgICAgICA8Y2M6d29yayByZGY6YWJvdXQ9IiI+JiN4YTsgICAgICAgIDxkYzpmb3JtYXQ+aW1hZ2Uvc3ZnK3htbDwvZGM6Zm9ybWF0PiYjeGE7ICAgICAgICA8ZGM6dHlwZSByZGY6cmVzb3VyY2U9Imh0dHA6Ly9wdXJsLm9yZy9kYy9kY21pdHlwZS9TdGlsbEltYWdlIi8+JiN4YTsgICAgICAgIDxkYzp0aXRsZS8+JiN4YTsgICAgICA8L2NjOndvcms+JiN4YTsgICAgPC9yZGY6cmRmPiYjeGE7ICA8L21ldGFkYXRhPiYjeGE7ICA8ZGVmcyBpZD0iZGVmczkxNSIvPiYjeGE7ICA8c29kaXBvZGk6bmFtZWR2aWV3IHBhZ2Vjb2xvcj0iI2ZmZmZmZiIgYm9yZGVyY29sb3I9IiM2NjY2NjYiIGJvcmRlcm9wYWNpdHk9IjEiIG9iamVjdHRvbGVyYW5jZT0iMTAiIGdyaWR0b2xlcmFuY2U9IjEwIiBndWlkZXRvbGVyYW5jZT0iMTAiIGlua3NjYXBlOnBhZ2VvcGFjaXR5PSIwIiBpbmtzY2FwZTpwYWdlc2hhZG93PSIyIiBpbmtzY2FwZTp3aW5kb3ctd2lkdGg9IjY0MCIgaW5rc2NhcGU6d2luZG93LWhlaWdodD0iNDgwIiBpZD0ibmFtZWR2aWV3OTEzIiBzaG93Z3JpZD0iZmFsc2UiIGlua3NjYXBlOnpvb209IjEzLjQiIGlua3NjYXBlOmN4PSIyNSIgaW5rc2NhcGU6Y3k9IjI1IiBpbmtzY2FwZTp3aW5kb3cteD0iMCIgaW5rc2NhcGU6d2luZG93LXk9IjAiIGlua3NjYXBlOndpbmRvdy1tYXhpbWl6ZWQ9IjEiIGlua3NjYXBlOmN1cnJlbnQtbGF5ZXI9IkZ4U3ltYm9sMC0wNTEiLz4mI3hhOyAgPGcgaWQ9Imc5MTAiPiYjeGE7ICAgIDx0aXRsZSBpZD0idGl0bGU5MDQiLz4mI3hhOyAgICYjeGE7JiN4YTs8c3R5bGUgdHlwZT0idGV4dC9jc3MiPi5zdDAgeyBmaWxsOiByZ2IoMjU1LCAwLCAxMjgpOyB9IDwvc3R5bGU+JiN4YTsmI3hhOyYjeGE7PHBhdGggY2xhc3M9InN0MCIgZD0iTTQwLjE5MyA0NC44MzlhMjQuODk4IDI0Ljg5OCAwIDAgMS0xNS4xNjcgNS4xNTFjLTcuNTIgMC0xNC45NTYtMy4zNzYtMTkuODctOS44MDNDLTMuMjQgMjkuMjI1LTEuMTY4IDEzLjU0OCA5LjgxNCA1LjE0OCAxNC4zNDMgMS42NjMgMTkuNjg2IDAgMjQuOTc5IDBjNy41MiAwIDE0Ljk1OCAzLjM3NiAxOS44NyA5LjgwOSA4LjM5OCAxMC45NTkgNi4zMDUgMjYuNjM5LTQuNjU2IDM1LjAzIiBmaWxsPSIjNTliNGQ5IiBpZD0icGF0aDkwNiIvPiYjeGE7ICAgIDxwYXRoIGQ9Ik0zNS42IDI5LjM3OGE1LjM4NSA1LjM4NSAwIDAgMCA3LjU0MSAxLjAwNGMuMTIzLS4wOTQuMjE4LS4yMDguMzMtLjMwOSAyLjQwOSAxLjY5NyA0LjA4MiAyLjgxNyA1LjAyNSAzLjQ1OS4yNzktLjcyMy40NzItMS40MTcuNjctMi4xNDJhMTMwLjg1NyAxMzAuODU3IDAgMCAxLTQuMjktMy4zNTZjLjYzOS0xLjY4LjQzNy0zLjY0LS43My01LjE3MWE1LjM2IDUuMzYgMCAwIDAtNi45MzYtMS4zNzcgMjI0LjMxNyAyMjQuMzE3IDAgMCAxLTguMjkzLTcuODMzYzkuMTY1LTQuOTI5IDE1LjY3Ni00LjIwNyAxNS42NzYtNC4yMDctMS4wODctMS4zODYtMi4zMDUtMi42LTMuNjA2LTMuNjk3LTMuODY1LS41OTctOS44NjktLjUzLTE2LjcyOSAzLjExOWwtLjAwMi0uMDAzaC0uMDAxYTIwMC4zMjIgMjAwLjMyMiAwIDAgMS02Ljk4My03LjcxMkEyMy4yNjQgMjMuMjY0IDAgMCAwIDEzLjk2IDIuNWMxLjc0OSAyLjg2MiA0LjEwMiA1Ljc0OSA2Ljc1NCA4LjU2NWwuMDE3LjAxN2E0Ni4yOTMgNDYuMjkzIDAgMCAwLTYuOTQ0IDYuMDE1Yy0uMjkuMzA5LS41NjkuNjItLjg0Mi45MzFhNy41NDYgNy41NDYgMCAwIDAtNC4xMTcuMjgyQzYuNTY0IDEzLjQyNSA2Ljc0NiA5LjUwMSA3LjEwNCA3LjQ3OGMtLjk4MyAxLjAzLTEuOTAxIDIuMTEzLTIuNjkyIDMuMjY3LS41OTEgMi40MTUtLjc1OSA1Ljg5OC45ODUgMTAuMDk1YTcuNTM4IDcuNTM4IDAgMCAwLS4wMDUgOS4xNTNjLjE3Ni4yMjkuMzY0LjQ0Mi41NTkuNjQ1YTM3Ljg3IDM3Ljg3IDAgMCAwLTEuNDYgOC43NjFjLjIzNy4zMjIuMjM3LjU4Mi40NzIuODk2IDEuMTk5IDEuNTM4IDIuNzA1IDIuODM0IDQuMTYgNC4wMDgtLjE4LTIuNzUuMDE0LTYuODA2IDEuNzE0LTExLjM3MmE3LjUwNyA3LjUwNyAwIDAgMCAzLjQ4My0uNTY2Yy42NC41NjMgMS4zMSAxLjEzMiAyLjAyNSAxLjcxMWE0MS42NzIgNDEuNjcyIDAgMCAwIDcuMjg1IDQuNjQzIDQuOTc0IDQuOTc0IDAgMCAwIC45NjggMy41MTggNC45OTggNC45OTggMCAwIDAgNi45ODMuOTE5IDQuOTE4IDQuOTE4IDAgMCAwIDEuMTA4LTEuMjE2YzMuODg5Ljg2NiA3LjI4NyAxLjAxOSA5LjgwNiAxLjAxOS4zODYgMCAyLjE3Ny0yLjQzNiAzLjIwMy0zLjk0Ni0xLjUzNC4zMjEtNi4wODMuOTQ2LTEyLjMtLjg0YTQuOTUyIDQuOTUyIDAgMCAwLS44OTgtMS45OGMtMS41NzktMi4wNy00LjQ2Ni0yLjUxOC02LjYxOC0xLjEzM2E0Ni44NTMgNDYuODUzIDAgMCAxLTYuNzU4LTQuNDkgNDYuNDIyIDQ2LjQyMiAwIDAgMS0xLjM1OS0xLjExOCA3LjU3OCA3LjU3OCAwIDAgMCAuMzE4LTcuNTVjLjI4Ni0uMjg2LjU2Ny0uNTczLjg3MS0uODU3IDIuMzExLTIuMTU5IDQuNDg1LTMuODg3IDYuNTE5LTUuMjc0LS4wODItLjA3Ni0uMTU2LS4xNTYtLjIzNi0uMjMzLjA4MS4wNzUuMTU3LjE1Mi4yMzkuMjI3bC0uMDAyLjAwMWMzLjEyMSAyLjg4NiA2LjQzIDUuNjIxIDkuNTY0IDguMDY1LS44MjkgMS43NTgtLjY5OSAzLjg5OS41NjIgNS41NDd6IiBjbGFzcz0ibXNwb3J0YWxmeC1zdmctYzAxIiBmaWxsPSIjZmZmZmZmIiBpZD0icGF0aDkwOCIvPiYjeGE7ICA8L2c+JiN4YTs8L3N2Zz4=;" parent="1" vertex="1">
                    <mxGeometry x="-405" y="601" width="60" height="60" as="geometry"/>
                </mxCell>
                <mxCell id="23" value="" style="group" parent="1" vertex="1" connectable="0">
                    <mxGeometry x="-405" y="515" width="65" height="52" as="geometry"/>
                </mxCell>
                <mxCell id="24" value="UI: show modules selection" style="aspect=fixed;html=1;points=[];align=center;image;fontSize=12;image=img/lib/azure2/general/Browser.svg;" parent="23" vertex="1">
                    <mxGeometry width="65" height="52" as="geometry"/>
                </mxCell>
                <mxCell id="25" value="" style="html=1;verticalLabelPosition=bottom;align=center;labelBackgroundColor=#ffffff;verticalAlign=top;strokeWidth=2;strokeColor=#0080F0;shadow=0;dashed=0;shape=mxgraph.ios7.icons.user;" parent="23" vertex="1">
                    <mxGeometry x="17.5" y="20" width="30" height="30" as="geometry"/>
                </mxCell>
                <mxCell id="30" value="N" style="edgeStyle=orthogonalEdgeStyle;rounded=0;orthogonalLoop=1;jettySize=auto;html=1;exitX=1;exitY=0.5;exitDx=0;exitDy=0;entryX=0;entryY=0.5;entryDx=0;entryDy=0;endArrow=none;endFill=0;fontSize=16;fontColor=#000000;labelBackgroundColor=#FFFF33;" parent="1" source="26" target="29" edge="1">
                    <mxGeometry relative="1" as="geometry"/>
                </mxCell>
                <mxCell id="33" value="Y" style="edgeStyle=orthogonalEdgeStyle;rounded=0;orthogonalLoop=1;jettySize=auto;html=1;exitX=1;exitY=0.5;exitDx=0;exitDy=0;entryX=0;entryY=0.5;entryDx=0;entryDy=0;endArrow=none;endFill=0;labelBackgroundColor=#FFFF33;fontColor=#000000;fontSize=16;" parent="1" source="26" target="34" edge="1">
                    <mxGeometry relative="1" as="geometry">
                        <mxPoint x="-78" y="774" as="targetPoint"/>
                    </mxGeometry>
                </mxCell>
                <mxCell id="26" value="" style="ellipse;whiteSpace=wrap;html=1;aspect=fixed;" parent="1" vertex="1">
                    <mxGeometry x="-228" y="696" width="20" height="20" as="geometry"/>
                </mxCell>
                <mxCell id="28" value="DB OP: fetch user info" style="shape=image;editableCssRules=\.st[02];verticalLabelPosition=bottom;labelBackgroundColor=none;verticalAlign=top;aspect=fixed;imageAspect=0;image=data:image/svg+xml,PHN2ZyB4bWxuczpkYz0iaHR0cDovL3B1cmwub3JnL2RjL2VsZW1lbnRzLzEuMS8iIHhtbG5zOmNjPSJodHRwOi8vY3JlYXRpdmVjb21tb25zLm9yZy9ucyMiIHhtbG5zOnJkZj0iaHR0cDovL3d3dy53My5vcmcvMTk5OS8wMi8yMi1yZGYtc3ludGF4LW5zIyIgeG1sbnM6c3ZnPSJodHRwOi8vd3d3LnczLm9yZy8yMDAwL3N2ZyIgeG1sbnM9Imh0dHA6Ly93d3cudzMub3JnLzIwMDAvc3ZnIiB4bWxuczpzb2RpcG9kaT0iaHR0cDovL3NvZGlwb2RpLnNvdXJjZWZvcmdlLm5ldC9EVEQvc29kaXBvZGktMC5kdGQiIHhtbG5zOmlua3NjYXBlPSJodHRwOi8vd3d3Lmlua3NjYXBlLm9yZy9uYW1lc3BhY2VzL2lua3NjYXBlIiB2aWV3Qm94PSIwLjAwMDEzNDQ2ODA3ODYxMzI4MTI1IDAgNTAuMDAwMDA3NjI5Mzk0NTMgNDkuOTkwMDAxNjc4NDY2OCIgY2xhc3M9ImZ4cy1wb3J0YWwtc3ZnIiByb2xlPSJwcmVzZW50YXRpb24iIGZvY3VzYWJsZT0iZmFsc2UiIGlkPSJGeFN5bWJvbDAtMDUxIiB2ZXJzaW9uPSIxLjEiIHNvZGlwb2RpOmRvY25hbWU9IkFwcCBTZXJ2aWNlcy5zdmciIGlua3NjYXBlOnZlcnNpb249IjAuOTIuMyAoMjQwNTU0NiwgMjAxOC0wMy0xMSkiIHdpZHRoPSI1MC4wMDAwMDc2MjkzOTQ1MyIgaGVpZ2h0PSI0OS45OTAwMDE2Nzg0NjY4Ij4mI3hhOyAgPG1ldGFkYXRhIGlkPSJtZXRhZGF0YTkxNyI+JiN4YTsgICAgPHJkZjpyZGY+JiN4YTsgICAgICA8Y2M6d29yayByZGY6YWJvdXQ9IiI+JiN4YTsgICAgICAgIDxkYzpmb3JtYXQ+aW1hZ2Uvc3ZnK3htbDwvZGM6Zm9ybWF0PiYjeGE7ICAgICAgICA8ZGM6dHlwZSByZGY6cmVzb3VyY2U9Imh0dHA6Ly9wdXJsLm9yZy9kYy9kY21pdHlwZS9TdGlsbEltYWdlIi8+JiN4YTsgICAgICAgIDxkYzp0aXRsZS8+JiN4YTsgICAgICA8L2NjOndvcms+JiN4YTsgICAgPC9yZGY6cmRmPiYjeGE7ICA8L21ldGFkYXRhPiYjeGE7ICA8ZGVmcyBpZD0iZGVmczkxNSIvPiYjeGE7ICA8c29kaXBvZGk6bmFtZWR2aWV3IHBhZ2Vjb2xvcj0iI2ZmZmZmZiIgYm9yZGVyY29sb3I9IiM2NjY2NjYiIGJvcmRlcm9wYWNpdHk9IjEiIG9iamVjdHRvbGVyYW5jZT0iMTAiIGdyaWR0b2xlcmFuY2U9IjEwIiBndWlkZXRvbGVyYW5jZT0iMTAiIGlua3NjYXBlOnBhZ2VvcGFjaXR5PSIwIiBpbmtzY2FwZTpwYWdlc2hhZG93PSIyIiBpbmtzY2FwZTp3aW5kb3ctd2lkdGg9IjY0MCIgaW5rc2NhcGU6d2luZG93LWhlaWdodD0iNDgwIiBpZD0ibmFtZWR2aWV3OTEzIiBzaG93Z3JpZD0iZmFsc2UiIGlua3NjYXBlOnpvb209IjEzLjQiIGlua3NjYXBlOmN4PSIyNSIgaW5rc2NhcGU6Y3k9IjI1IiBpbmtzY2FwZTp3aW5kb3cteD0iMCIgaW5rc2NhcGU6d2luZG93LXk9IjAiIGlua3NjYXBlOndpbmRvdy1tYXhpbWl6ZWQ9IjEiIGlua3NjYXBlOmN1cnJlbnQtbGF5ZXI9IkZ4U3ltYm9sMC0wNTEiLz4mI3hhOyAgPGcgaWQ9Imc5MTAiPiYjeGE7ICAgIDx0aXRsZSBpZD0idGl0bGU5MDQiLz4mI3hhOyAgICYjeGE7JiN4YTs8c3R5bGUgdHlwZT0idGV4dC9jc3MiPi5zdDAgeyBmaWxsOiByZ2IoMjU1LCAxMjgsIDApOyB9IDwvc3R5bGU+JiN4YTsmI3hhOyYjeGE7PHBhdGggY2xhc3M9InN0MCIgZD0iTTQwLjE5MyA0NC44MzlhMjQuODk4IDI0Ljg5OCAwIDAgMS0xNS4xNjcgNS4xNTFjLTcuNTIgMC0xNC45NTYtMy4zNzYtMTkuODctOS44MDNDLTMuMjQgMjkuMjI1LTEuMTY4IDEzLjU0OCA5LjgxNCA1LjE0OCAxNC4zNDMgMS42NjMgMTkuNjg2IDAgMjQuOTc5IDBjNy41MiAwIDE0Ljk1OCAzLjM3NiAxOS44NyA5LjgwOSA4LjM5OCAxMC45NTkgNi4zMDUgMjYuNjM5LTQuNjU2IDM1LjAzIiBmaWxsPSIjNTliNGQ5IiBpZD0icGF0aDkwNiIvPiYjeGE7ICAgIDxwYXRoIGQ9Ik0zNS42IDI5LjM3OGE1LjM4NSA1LjM4NSAwIDAgMCA3LjU0MSAxLjAwNGMuMTIzLS4wOTQuMjE4LS4yMDguMzMtLjMwOSAyLjQwOSAxLjY5NyA0LjA4MiAyLjgxNyA1LjAyNSAzLjQ1OS4yNzktLjcyMy40NzItMS40MTcuNjctMi4xNDJhMTMwLjg1NyAxMzAuODU3IDAgMCAxLTQuMjktMy4zNTZjLjYzOS0xLjY4LjQzNy0zLjY0LS43My01LjE3MWE1LjM2IDUuMzYgMCAwIDAtNi45MzYtMS4zNzcgMjI0LjMxNyAyMjQuMzE3IDAgMCAxLTguMjkzLTcuODMzYzkuMTY1LTQuOTI5IDE1LjY3Ni00LjIwNyAxNS42NzYtNC4yMDctMS4wODctMS4zODYtMi4zMDUtMi42LTMuNjA2LTMuNjk3LTMuODY1LS41OTctOS44NjktLjUzLTE2LjcyOSAzLjExOWwtLjAwMi0uMDAzaC0uMDAxYTIwMC4zMjIgMjAwLjMyMiAwIDAgMS02Ljk4My03LjcxMkEyMy4yNjQgMjMuMjY0IDAgMCAwIDEzLjk2IDIuNWMxLjc0OSAyLjg2MiA0LjEwMiA1Ljc0OSA2Ljc1NCA4LjU2NWwuMDE3LjAxN2E0Ni4yOTMgNDYuMjkzIDAgMCAwLTYuOTQ0IDYuMDE1Yy0uMjkuMzA5LS41NjkuNjItLjg0Mi45MzFhNy41NDYgNy41NDYgMCAwIDAtNC4xMTcuMjgyQzYuNTY0IDEzLjQyNSA2Ljc0NiA5LjUwMSA3LjEwNCA3LjQ3OGMtLjk4MyAxLjAzLTEuOTAxIDIuMTEzLTIuNjkyIDMuMjY3LS41OTEgMi40MTUtLjc1OSA1Ljg5OC45ODUgMTAuMDk1YTcuNTM4IDcuNTM4IDAgMCAwLS4wMDUgOS4xNTNjLjE3Ni4yMjkuMzY0LjQ0Mi41NTkuNjQ1YTM3Ljg3IDM3Ljg3IDAgMCAwLTEuNDYgOC43NjFjLjIzNy4zMjIuMjM3LjU4Mi40NzIuODk2IDEuMTk5IDEuNTM4IDIuNzA1IDIuODM0IDQuMTYgNC4wMDgtLjE4LTIuNzUuMDE0LTYuODA2IDEuNzE0LTExLjM3MmE3LjUwNyA3LjUwNyAwIDAgMCAzLjQ4My0uNTY2Yy42NC41NjMgMS4zMSAxLjEzMiAyLjAyNSAxLjcxMWE0MS42NzIgNDEuNjcyIDAgMCAwIDcuMjg1IDQuNjQzIDQuOTc0IDQuOTc0IDAgMCAwIC45NjggMy41MTggNC45OTggNC45OTggMCAwIDAgNi45ODMuOTE5IDQuOTE4IDQuOTE4IDAgMCAwIDEuMTA4LTEuMjE2YzMuODg5Ljg2NiA3LjI4NyAxLjAxOSA5LjgwNiAxLjAxOS4zODYgMCAyLjE3Ny0yLjQzNiAzLjIwMy0zLjk0Ni0xLjUzNC4zMjEtNi4wODMuOTQ2LTEyLjMtLjg0YTQuOTUyIDQuOTUyIDAgMCAwLS44OTgtMS45OGMtMS41NzktMi4wNy00LjQ2Ni0yLjUxOC02LjYxOC0xLjEzM2E0Ni44NTMgNDYuODUzIDAgMCAxLTYuNzU4LTQuNDkgNDYuNDIyIDQ2LjQyMiAwIDAgMS0xLjM1OS0xLjExOCA3LjU3OCA3LjU3OCAwIDAgMCAuMzE4LTcuNTVjLjI4Ni0uMjg2LjU2Ny0uNTczLjg3MS0uODU3IDIuMzExLTIuMTU5IDQuNDg1LTMuODg3IDYuNTE5LTUuMjc0LS4wODItLjA3Ni0uMTU2LS4xNTYtLjIzNi0uMjMzLjA4MS4wNzUuMTU3LjE1Mi4yMzkuMjI3bC0uMDAyLjAwMWMzLjEyMSAyLjg4NiA2LjQzIDUuNjIxIDkuNTY0IDguMDY1LS44MjkgMS43NTgtLjY5OSAzLjg5OS41NjIgNS41NDd6IiBjbGFzcz0ibXNwb3J0YWxmeC1zdmctYzAxIiBmaWxsPSIjZmZmZmZmIiBpZD0icGF0aDkwOCIvPiYjeGE7ICA8L2c+JiN4YTs8L3N2Zz4=;" parent="1" vertex="1">
                    <mxGeometry x="-250" y="601" width="60" height="60" as="geometry"/>
                </mxCell>
                <mxCell id="36" style="edgeStyle=orthogonalEdgeStyle;rounded=0;orthogonalLoop=1;jettySize=auto;html=1;exitX=1;exitY=0.5;exitDx=0;exitDy=0;entryX=0;entryY=0.5;entryDx=0;entryDy=0;endArrow=none;endFill=0;" parent="1" source="29" target="34" edge="1">
                    <mxGeometry relative="1" as="geometry">
                        <Array as="points">
                            <mxPoint x="39" y="648"/>
                            <mxPoint x="39" y="706"/>
                        </Array>
                    </mxGeometry>
                </mxCell>
                <mxCell id="29" value="" style="ellipse;whiteSpace=wrap;html=1;aspect=fixed;" parent="1" vertex="1">
                    <mxGeometry x="-89" y="638" width="20" height="20" as="geometry"/>
                </mxCell>
                <mxCell id="31" value="Task Master:New User, init DB Entry" style="shape=image;editableCssRules=\.st[02];verticalLabelPosition=bottom;labelBackgroundColor=none;verticalAlign=top;aspect=fixed;imageAspect=0;image=data:image/svg+xml,PHN2ZyB4bWxuczpkYz0iaHR0cDovL3B1cmwub3JnL2RjL2VsZW1lbnRzLzEuMS8iIHhtbG5zOmNjPSJodHRwOi8vY3JlYXRpdmVjb21tb25zLm9yZy9ucyMiIHhtbG5zOnJkZj0iaHR0cDovL3d3dy53My5vcmcvMTk5OS8wMi8yMi1yZGYtc3ludGF4LW5zIyIgeG1sbnM6c3ZnPSJodHRwOi8vd3d3LnczLm9yZy8yMDAwL3N2ZyIgeG1sbnM9Imh0dHA6Ly93d3cudzMub3JnLzIwMDAvc3ZnIiB4bWxuczpzb2RpcG9kaT0iaHR0cDovL3NvZGlwb2RpLnNvdXJjZWZvcmdlLm5ldC9EVEQvc29kaXBvZGktMC5kdGQiIHhtbG5zOmlua3NjYXBlPSJodHRwOi8vd3d3Lmlua3NjYXBlLm9yZy9uYW1lc3BhY2VzL2lua3NjYXBlIiB2aWV3Qm94PSIwLjAwMDEzNDQ2ODA3ODYxMzI4MTI1IDAgNTAuMDAwMDA3NjI5Mzk0NTMgNDkuOTkwMDAxNjc4NDY2OCIgY2xhc3M9ImZ4cy1wb3J0YWwtc3ZnIiByb2xlPSJwcmVzZW50YXRpb24iIGZvY3VzYWJsZT0iZmFsc2UiIGlkPSJGeFN5bWJvbDAtMDUxIiB2ZXJzaW9uPSIxLjEiIHNvZGlwb2RpOmRvY25hbWU9IkFwcCBTZXJ2aWNlcy5zdmciIGlua3NjYXBlOnZlcnNpb249IjAuOTIuMyAoMjQwNTU0NiwgMjAxOC0wMy0xMSkiIHdpZHRoPSI1MC4wMDAwMDc2MjkzOTQ1MyIgaGVpZ2h0PSI0OS45OTAwMDE2Nzg0NjY4Ij4mI3hhOyAgPG1ldGFkYXRhIGlkPSJtZXRhZGF0YTkxNyI+JiN4YTsgICAgPHJkZjpyZGY+JiN4YTsgICAgICA8Y2M6d29yayByZGY6YWJvdXQ9IiI+JiN4YTsgICAgICAgIDxkYzpmb3JtYXQ+aW1hZ2Uvc3ZnK3htbDwvZGM6Zm9ybWF0PiYjeGE7ICAgICAgICA8ZGM6dHlwZSByZGY6cmVzb3VyY2U9Imh0dHA6Ly9wdXJsLm9yZy9kYy9kY21pdHlwZS9TdGlsbEltYWdlIi8+JiN4YTsgICAgICAgIDxkYzp0aXRsZS8+JiN4YTsgICAgICA8L2NjOndvcms+JiN4YTsgICAgPC9yZGY6cmRmPiYjeGE7ICA8L21ldGFkYXRhPiYjeGE7ICA8ZGVmcyBpZD0iZGVmczkxNSIvPiYjeGE7ICA8c29kaXBvZGk6bmFtZWR2aWV3IHBhZ2Vjb2xvcj0iI2ZmZmZmZiIgYm9yZGVyY29sb3I9IiM2NjY2NjYiIGJvcmRlcm9wYWNpdHk9IjEiIG9iamVjdHRvbGVyYW5jZT0iMTAiIGdyaWR0b2xlcmFuY2U9IjEwIiBndWlkZXRvbGVyYW5jZT0iMTAiIGlua3NjYXBlOnBhZ2VvcGFjaXR5PSIwIiBpbmtzY2FwZTpwYWdlc2hhZG93PSIyIiBpbmtzY2FwZTp3aW5kb3ctd2lkdGg9IjY0MCIgaW5rc2NhcGU6d2luZG93LWhlaWdodD0iNDgwIiBpZD0ibmFtZWR2aWV3OTEzIiBzaG93Z3JpZD0iZmFsc2UiIGlua3NjYXBlOnpvb209IjEzLjQiIGlua3NjYXBlOmN4PSIyNSIgaW5rc2NhcGU6Y3k9IjI1IiBpbmtzY2FwZTp3aW5kb3cteD0iMCIgaW5rc2NhcGU6d2luZG93LXk9IjAiIGlua3NjYXBlOndpbmRvdy1tYXhpbWl6ZWQ9IjEiIGlua3NjYXBlOmN1cnJlbnQtbGF5ZXI9IkZ4U3ltYm9sMC0wNTEiLz4mI3hhOyAgPGcgaWQ9Imc5MTAiPiYjeGE7ICAgIDx0aXRsZSBpZD0idGl0bGU5MDQiLz4mI3hhOyAgICYjeGE7JiN4YTs8c3R5bGUgdHlwZT0idGV4dC9jc3MiPi5zdDAgeyBmaWxsOiByZ2IoMjU1LCAwLCAxMjgpOyB9IDwvc3R5bGU+JiN4YTsmI3hhOyYjeGE7PHBhdGggY2xhc3M9InN0MCIgZD0iTTQwLjE5MyA0NC44MzlhMjQuODk4IDI0Ljg5OCAwIDAgMS0xNS4xNjcgNS4xNTFjLTcuNTIgMC0xNC45NTYtMy4zNzYtMTkuODctOS44MDNDLTMuMjQgMjkuMjI1LTEuMTY4IDEzLjU0OCA5LjgxNCA1LjE0OCAxNC4zNDMgMS42NjMgMTkuNjg2IDAgMjQuOTc5IDBjNy41MiAwIDE0Ljk1OCAzLjM3NiAxOS44NyA5LjgwOSA4LjM5OCAxMC45NTkgNi4zMDUgMjYuNjM5LTQuNjU2IDM1LjAzIiBmaWxsPSIjNTliNGQ5IiBpZD0icGF0aDkwNiIvPiYjeGE7ICAgIDxwYXRoIGQ9Ik0zNS42IDI5LjM3OGE1LjM4NSA1LjM4NSAwIDAgMCA3LjU0MSAxLjAwNGMuMTIzLS4wOTQuMjE4LS4yMDguMzMtLjMwOSAyLjQwOSAxLjY5NyA0LjA4MiAyLjgxNyA1LjAyNSAzLjQ1OS4yNzktLjcyMy40NzItMS40MTcuNjctMi4xNDJhMTMwLjg1NyAxMzAuODU3IDAgMCAxLTQuMjktMy4zNTZjLjYzOS0xLjY4LjQzNy0zLjY0LS43My01LjE3MWE1LjM2IDUuMzYgMCAwIDAtNi45MzYtMS4zNzcgMjI0LjMxNyAyMjQuMzE3IDAgMCAxLTguMjkzLTcuODMzYzkuMTY1LTQuOTI5IDE1LjY3Ni00LjIwNyAxNS42NzYtNC4yMDctMS4wODctMS4zODYtMi4zMDUtMi42LTMuNjA2LTMuNjk3LTMuODY1LS41OTctOS44NjktLjUzLTE2LjcyOSAzLjExOWwtLjAwMi0uMDAzaC0uMDAxYTIwMC4zMjIgMjAwLjMyMiAwIDAgMS02Ljk4My03LjcxMkEyMy4yNjQgMjMuMjY0IDAgMCAwIDEzLjk2IDIuNWMxLjc0OSAyLjg2MiA0LjEwMiA1Ljc0OSA2Ljc1NCA4LjU2NWwuMDE3LjAxN2E0Ni4yOTMgNDYuMjkzIDAgMCAwLTYuOTQ0IDYuMDE1Yy0uMjkuMzA5LS41NjkuNjItLjg0Mi45MzFhNy41NDYgNy41NDYgMCAwIDAtNC4xMTcuMjgyQzYuNTY0IDEzLjQyNSA2Ljc0NiA5LjUwMSA3LjEwNCA3LjQ3OGMtLjk4MyAxLjAzLTEuOTAxIDIuMTEzLTIuNjkyIDMuMjY3LS41OTEgMi40MTUtLjc1OSA1Ljg5OC45ODUgMTAuMDk1YTcuNTM4IDcuNTM4IDAgMCAwLS4wMDUgOS4xNTNjLjE3Ni4yMjkuMzY0LjQ0Mi41NTkuNjQ1YTM3Ljg3IDM3Ljg3IDAgMCAwLTEuNDYgOC43NjFjLjIzNy4zMjIuMjM3LjU4Mi40NzIuODk2IDEuMTk5IDEuNTM4IDIuNzA1IDIuODM0IDQuMTYgNC4wMDgtLjE4LTIuNzUuMDE0LTYuODA2IDEuNzE0LTExLjM3MmE3LjUwNyA3LjUwNyAwIDAgMCAzLjQ4My0uNTY2Yy42NC41NjMgMS4zMSAxLjEzMiAyLjAyNSAxLjcxMWE0MS42NzIgNDEuNjcyIDAgMCAwIDcuMjg1IDQuNjQzIDQuOTc0IDQuOTc0IDAgMCAwIC45NjggMy41MTggNC45OTggNC45OTggMCAwIDAgNi45ODMuOTE5IDQuOTE4IDQuOTE4IDAgMCAwIDEuMTA4LTEuMjE2YzMuODg5Ljg2NiA3LjI4NyAxLjAxOSA5LjgwNiAxLjAxOS4zODYgMCAyLjE3Ny0yLjQzNiAzLjIwMy0zLjk0Ni0xLjUzNC4zMjEtNi4wODMuOTQ2LTEyLjMtLjg0YTQuOTUyIDQuOTUyIDAgMCAwLS44OTgtMS45OGMtMS41NzktMi4wNy00LjQ2Ni0yLjUxOC02LjYxOC0xLjEzM2E0Ni44NTMgNDYuODUzIDAgMCAxLTYuNzU4LTQuNDkgNDYuNDIyIDQ2LjQyMiAwIDAgMS0xLjM1OS0xLjExOCA3LjU3OCA3LjU3OCAwIDAgMCAuMzE4LTcuNTVjLjI4Ni0uMjg2LjU2Ny0uNTczLjg3MS0uODU3IDIuMzExLTIuMTU5IDQuNDg1LTMuODg3IDYuNTE5LTUuMjc0LS4wODItLjA3Ni0uMTU2LS4xNTYtLjIzNi0uMjMzLjA4MS4wNzUuMTU3LjE1Mi4yMzkuMjI3bC0uMDAyLjAwMWMzLjEyMSAyLjg4NiA2LjQzIDUuNjIxIDkuNTY0IDguMDY1LS44MjkgMS43NTgtLjY5OSAzLjg5OS41NjIgNS41NDd6IiBjbGFzcz0ibXNwb3J0YWxmeC1zdmctYzAxIiBmaWxsPSIjZmZmZmZmIiBpZD0icGF0aDkwOCIvPiYjeGE7ICA8L2c+JiN4YTs8L3N2Zz4=;" parent="1" vertex="1">
                    <mxGeometry x="-104" y="552" width="60" height="60" as="geometry"/>
                </mxCell>
                <mxCell id="48" style="edgeStyle=orthogonalEdgeStyle;rounded=0;orthogonalLoop=1;jettySize=auto;html=1;entryX=0;entryY=0.5;entryDx=0;entryDy=0;endArrow=none;endFill=0;exitX=1;exitY=0.5;exitDx=0;exitDy=0;" parent="1" source="34" target="45" edge="1">
                    <mxGeometry relative="1" as="geometry">
                        <mxPoint x="225" y="667" as="sourcePoint"/>
                    </mxGeometry>
                </mxCell>
                <mxCell id="34" value="" style="ellipse;whiteSpace=wrap;html=1;aspect=fixed;" parent="1" vertex="1">
                    <mxGeometry x="141.5" y="696" width="20" height="20" as="geometry"/>
                </mxCell>
                <mxCell id="37" value="" style="group" parent="1" vertex="1" connectable="0">
                    <mxGeometry x="119" y="601" width="65" height="52" as="geometry"/>
                </mxCell>
                <mxCell id="38" value="UI: Choose Module" style="aspect=fixed;html=1;points=[];align=center;image;fontSize=12;image=img/lib/azure2/general/Browser.svg;" parent="37" vertex="1">
                    <mxGeometry width="65" height="52" as="geometry"/>
                </mxCell>
                <mxCell id="39" value="" style="html=1;verticalLabelPosition=bottom;align=center;labelBackgroundColor=#ffffff;verticalAlign=top;strokeWidth=2;strokeColor=#0080F0;shadow=0;dashed=0;shape=mxgraph.ios7.icons.user;" parent="37" vertex="1">
                    <mxGeometry x="17.5" y="20" width="30" height="30" as="geometry"/>
                </mxCell>
                <mxCell id="42" value="1. User Start" style="shape=process;whiteSpace=wrap;html=1;backgroundOutline=1;fontColor=#ffffff;strokeColor=#A50040;fillColor=#d80073;fontSize=18;" parent="1" vertex="1">
                    <mxGeometry x="-767" y="676" width="210" height="60" as="geometry"/>
                </mxCell>
                <mxCell id="43" value="1.1. Start Digital Twin Module" style="shape=process;whiteSpace=wrap;html=1;backgroundOutline=1;fontColor=#ffffff;strokeColor=#A50040;fillColor=#d80073;" parent="1" vertex="1">
                    <mxGeometry x="-588" y="1059" width="120" height="60" as="geometry"/>
                </mxCell>
                <mxCell id="45" value="1.1. Start Digital Twin Module" style="shape=process;whiteSpace=wrap;html=1;backgroundOutline=1;fontColor=#ffffff;strokeColor=#A50040;fillColor=#d80073;" parent="1" vertex="1">
                    <mxGeometry x="278" y="533" width="120" height="60" as="geometry"/>
                </mxCell>
                <mxCell id="49" style="edgeStyle=orthogonalEdgeStyle;rounded=0;orthogonalLoop=1;jettySize=auto;html=1;exitX=0;exitY=0.5;exitDx=0;exitDy=0;entryX=1;entryY=0.5;entryDx=0;entryDy=0;endArrow=none;endFill=0;" parent="1" source="46" target="34" edge="1">
                    <mxGeometry relative="1" as="geometry"/>
                </mxCell>
                <mxCell id="46" value="1.2. Start Device Management Module" style="shape=process;whiteSpace=wrap;html=1;backgroundOutline=1;fontColor=#ffffff;strokeColor=#A50040;fillColor=#d80073;" parent="1" vertex="1">
                    <mxGeometry x="278" y="619" width="120" height="60" as="geometry"/>
                </mxCell>
                <mxCell id="50" style="edgeStyle=orthogonalEdgeStyle;rounded=0;orthogonalLoop=1;jettySize=auto;html=1;exitX=0;exitY=0.5;exitDx=0;exitDy=0;entryX=1;entryY=0.5;entryDx=0;entryDy=0;endArrow=none;endFill=0;" parent="1" source="47" target="34" edge="1">
                    <mxGeometry relative="1" as="geometry"/>
                </mxCell>
                <mxCell id="47" value="1.3. Start Event Log Module" style="shape=process;whiteSpace=wrap;html=1;backgroundOutline=1;fontColor=#ffffff;strokeColor=#A50040;fillColor=#d80073;" parent="1" vertex="1">
                    <mxGeometry x="278" y="704" width="120" height="60" as="geometry"/>
                </mxCell>
                <mxCell id="56" style="edgeStyle=orthogonalEdgeStyle;rounded=0;orthogonalLoop=1;jettySize=auto;html=1;exitX=1;exitY=0.5;exitDx=0;exitDy=0;entryX=0;entryY=0.5;entryDx=0;entryDy=0;endArrow=none;endFill=0;" parent="1" source="51" target="55" edge="1">
                    <mxGeometry relative="1" as="geometry"/>
                </mxCell>
                <mxCell id="51" value="" style="ellipse;whiteSpace=wrap;html=1;aspect=fixed;" parent="1" vertex="1">
                    <mxGeometry x="-389" y="1082" width="20" height="20" as="geometry"/>
                </mxCell>
                <mxCell id="52" value="" style="group" parent="1" vertex="1" connectable="0">
                    <mxGeometry x="-411.5" y="986" width="65" height="52" as="geometry"/>
                </mxCell>
                <mxCell id="53" value="UI:Start Digital&lt;br&gt;twin module" style="aspect=fixed;html=1;points=[];align=center;image;fontSize=12;image=img/lib/azure2/general/Browser.svg;" parent="52" vertex="1">
                    <mxGeometry width="65" height="52" as="geometry"/>
                </mxCell>
                <mxCell id="54" value="" style="html=1;verticalLabelPosition=bottom;align=center;labelBackgroundColor=#ffffff;verticalAlign=top;strokeWidth=2;strokeColor=#0080F0;shadow=0;dashed=0;shape=mxgraph.ios7.icons.user;" parent="52" vertex="1">
                    <mxGeometry x="17.5" y="20" width="30" height="30" as="geometry"/>
                </mxCell>
                <mxCell id="60" style="edgeStyle=orthogonalEdgeStyle;rounded=0;orthogonalLoop=1;jettySize=auto;html=1;exitX=1;exitY=0.5;exitDx=0;exitDy=0;entryX=0;entryY=0.5;entryDx=0;entryDy=0;endArrow=none;endFill=0;" parent="1" source="55" edge="1">
                    <mxGeometry relative="1" as="geometry">
                        <mxPoint x="-55" y="1092" as="targetPoint"/>
                    </mxGeometry>
                </mxCell>
                <mxCell id="55" value="" style="ellipse;whiteSpace=wrap;html=1;aspect=fixed;" parent="1" vertex="1">
                    <mxGeometry x="-222" y="1082" width="20" height="20" as="geometry"/>
                </mxCell>
                <mxCell id="57" value="Task Master: fetch models&#10;and twins info" style="shape=image;editableCssRules=\.st[02];verticalLabelPosition=bottom;labelBackgroundColor=none;verticalAlign=top;aspect=fixed;imageAspect=0;image=data:image/svg+xml,PHN2ZyB4bWxuczpkYz0iaHR0cDovL3B1cmwub3JnL2RjL2VsZW1lbnRzLzEuMS8iIHhtbG5zOmNjPSJodHRwOi8vY3JlYXRpdmVjb21tb25zLm9yZy9ucyMiIHhtbG5zOnJkZj0iaHR0cDovL3d3dy53My5vcmcvMTk5OS8wMi8yMi1yZGYtc3ludGF4LW5zIyIgeG1sbnM6c3ZnPSJodHRwOi8vd3d3LnczLm9yZy8yMDAwL3N2ZyIgeG1sbnM9Imh0dHA6Ly93d3cudzMub3JnLzIwMDAvc3ZnIiB4bWxuczpzb2RpcG9kaT0iaHR0cDovL3NvZGlwb2RpLnNvdXJjZWZvcmdlLm5ldC9EVEQvc29kaXBvZGktMC5kdGQiIHhtbG5zOmlua3NjYXBlPSJodHRwOi8vd3d3Lmlua3NjYXBlLm9yZy9uYW1lc3BhY2VzL2lua3NjYXBlIiB2aWV3Qm94PSIwLjAwMDEzNDQ2ODA3ODYxMzI4MTI1IDAgNTAuMDAwMDA3NjI5Mzk0NTMgNDkuOTkwMDAxNjc4NDY2OCIgY2xhc3M9ImZ4cy1wb3J0YWwtc3ZnIiByb2xlPSJwcmVzZW50YXRpb24iIGZvY3VzYWJsZT0iZmFsc2UiIGlkPSJGeFN5bWJvbDAtMDUxIiB2ZXJzaW9uPSIxLjEiIHNvZGlwb2RpOmRvY25hbWU9IkFwcCBTZXJ2aWNlcy5zdmciIGlua3NjYXBlOnZlcnNpb249IjAuOTIuMyAoMjQwNTU0NiwgMjAxOC0wMy0xMSkiIHdpZHRoPSI1MC4wMDAwMDc2MjkzOTQ1MyIgaGVpZ2h0PSI0OS45OTAwMDE2Nzg0NjY4Ij4mI3hhOyAgPG1ldGFkYXRhIGlkPSJtZXRhZGF0YTkxNyI+JiN4YTsgICAgPHJkZjpyZGY+JiN4YTsgICAgICA8Y2M6d29yayByZGY6YWJvdXQ9IiI+JiN4YTsgICAgICAgIDxkYzpmb3JtYXQ+aW1hZ2Uvc3ZnK3htbDwvZGM6Zm9ybWF0PiYjeGE7ICAgICAgICA8ZGM6dHlwZSByZGY6cmVzb3VyY2U9Imh0dHA6Ly9wdXJsLm9yZy9kYy9kY21pdHlwZS9TdGlsbEltYWdlIi8+JiN4YTsgICAgICAgIDxkYzp0aXRsZS8+JiN4YTsgICAgICA8L2NjOndvcms+JiN4YTsgICAgPC9yZGY6cmRmPiYjeGE7ICA8L21ldGFkYXRhPiYjeGE7ICA8ZGVmcyBpZD0iZGVmczkxNSIvPiYjeGE7ICA8c29kaXBvZGk6bmFtZWR2aWV3IHBhZ2Vjb2xvcj0iI2ZmZmZmZiIgYm9yZGVyY29sb3I9IiM2NjY2NjYiIGJvcmRlcm9wYWNpdHk9IjEiIG9iamVjdHRvbGVyYW5jZT0iMTAiIGdyaWR0b2xlcmFuY2U9IjEwIiBndWlkZXRvbGVyYW5jZT0iMTAiIGlua3NjYXBlOnBhZ2VvcGFjaXR5PSIwIiBpbmtzY2FwZTpwYWdlc2hhZG93PSIyIiBpbmtzY2FwZTp3aW5kb3ctd2lkdGg9IjY0MCIgaW5rc2NhcGU6d2luZG93LWhlaWdodD0iNDgwIiBpZD0ibmFtZWR2aWV3OTEzIiBzaG93Z3JpZD0iZmFsc2UiIGlua3NjYXBlOnpvb209IjEzLjQiIGlua3NjYXBlOmN4PSIyNSIgaW5rc2NhcGU6Y3k9IjI1IiBpbmtzY2FwZTp3aW5kb3cteD0iMCIgaW5rc2NhcGU6d2luZG93LXk9IjAiIGlua3NjYXBlOndpbmRvdy1tYXhpbWl6ZWQ9IjEiIGlua3NjYXBlOmN1cnJlbnQtbGF5ZXI9IkZ4U3ltYm9sMC0wNTEiLz4mI3hhOyAgPGcgaWQ9Imc5MTAiPiYjeGE7ICAgIDx0aXRsZSBpZD0idGl0bGU5MDQiLz4mI3hhOyAgICYjeGE7JiN4YTs8c3R5bGUgdHlwZT0idGV4dC9jc3MiPi5zdDAgeyBmaWxsOiByZ2IoMjU1LCAwLCAxMjgpOyB9IDwvc3R5bGU+JiN4YTsmI3hhOyYjeGE7PHBhdGggY2xhc3M9InN0MCIgZD0iTTQwLjE5MyA0NC44MzlhMjQuODk4IDI0Ljg5OCAwIDAgMS0xNS4xNjcgNS4xNTFjLTcuNTIgMC0xNC45NTYtMy4zNzYtMTkuODctOS44MDNDLTMuMjQgMjkuMjI1LTEuMTY4IDEzLjU0OCA5LjgxNCA1LjE0OCAxNC4zNDMgMS42NjMgMTkuNjg2IDAgMjQuOTc5IDBjNy41MiAwIDE0Ljk1OCAzLjM3NiAxOS44NyA5LjgwOSA4LjM5OCAxMC45NTkgNi4zMDUgMjYuNjM5LTQuNjU2IDM1LjAzIiBmaWxsPSIjNTliNGQ5IiBpZD0icGF0aDkwNiIvPiYjeGE7ICAgIDxwYXRoIGQ9Ik0zNS42IDI5LjM3OGE1LjM4NSA1LjM4NSAwIDAgMCA3LjU0MSAxLjAwNGMuMTIzLS4wOTQuMjE4LS4yMDguMzMtLjMwOSAyLjQwOSAxLjY5NyA0LjA4MiAyLjgxNyA1LjAyNSAzLjQ1OS4yNzktLjcyMy40NzItMS40MTcuNjctMi4xNDJhMTMwLjg1NyAxMzAuODU3IDAgMCAxLTQuMjktMy4zNTZjLjYzOS0xLjY4LjQzNy0zLjY0LS43My01LjE3MWE1LjM2IDUuMzYgMCAwIDAtNi45MzYtMS4zNzcgMjI0LjMxNyAyMjQuMzE3IDAgMCAxLTguMjkzLTcuODMzYzkuMTY1LTQuOTI5IDE1LjY3Ni00LjIwNyAxNS42NzYtNC4yMDctMS4wODctMS4zODYtMi4zMDUtMi42LTMuNjA2LTMuNjk3LTMuODY1LS41OTctOS44NjktLjUzLTE2LjcyOSAzLjExOWwtLjAwMi0uMDAzaC0uMDAxYTIwMC4zMjIgMjAwLjMyMiAwIDAgMS02Ljk4My03LjcxMkEyMy4yNjQgMjMuMjY0IDAgMCAwIDEzLjk2IDIuNWMxLjc0OSAyLjg2MiA0LjEwMiA1Ljc0OSA2Ljc1NCA4LjU2NWwuMDE3LjAxN2E0Ni4yOTMgNDYuMjkzIDAgMCAwLTYuOTQ0IDYuMDE1Yy0uMjkuMzA5LS41NjkuNjItLjg0Mi45MzFhNy41NDYgNy41NDYgMCAwIDAtNC4xMTcuMjgyQzYuNTY0IDEzLjQyNSA2Ljc0NiA5LjUwMSA3LjEwNCA3LjQ3OGMtLjk4MyAxLjAzLTEuOTAxIDIuMTEzLTIuNjkyIDMuMjY3LS41OTEgMi40MTUtLjc1OSA1Ljg5OC45ODUgMTAuMDk1YTcuNTM4IDcuNTM4IDAgMCAwLS4wMDUgOS4xNTNjLjE3Ni4yMjkuMzY0LjQ0Mi41NTkuNjQ1YTM3Ljg3IDM3Ljg3IDAgMCAwLTEuNDYgOC43NjFjLjIzNy4zMjIuMjM3LjU4Mi40NzIuODk2IDEuMTk5IDEuNTM4IDIuNzA1IDIuODM0IDQuMTYgNC4wMDgtLjE4LTIuNzUuMDE0LTYuODA2IDEuNzE0LTExLjM3MmE3LjUwNyA3LjUwNyAwIDAgMCAzLjQ4My0uNTY2Yy42NC41NjMgMS4zMSAxLjEzMiAyLjAyNSAxLjcxMWE0MS42NzIgNDEuNjcyIDAgMCAwIDcuMjg1IDQuNjQzIDQuOTc0IDQuOTc0IDAgMCAwIC45NjggMy41MTggNC45OTggNC45OTggMCAwIDAgNi45ODMuOTE5IDQuOTE4IDQuOTE4IDAgMCAwIDEuMTA4LTEuMjE2YzMuODg5Ljg2NiA3LjI4NyAxLjAxOSA5LjgwNiAxLjAxOS4zODYgMCAyLjE3Ny0yLjQzNiAzLjIwMy0zLjk0Ni0xLjUzNC4zMjEtNi4wODMuOTQ2LTEyLjMtLjg0YTQuOTUyIDQuOTUyIDAgMCAwLS44OTgtMS45OGMtMS41NzktMi4wNy00LjQ2Ni0yLjUxOC02LjYxOC0xLjEzM2E0Ni44NTMgNDYuODUzIDAgMCAxLTYuNzU4LTQuNDkgNDYuNDIyIDQ2LjQyMiAwIDAgMS0xLjM1OS0xLjExOCA3LjU3OCA3LjU3OCAwIDAgMCAuMzE4LTcuNTVjLjI4Ni0uMjg2LjU2Ny0uNTczLjg3MS0uODU3IDIuMzExLTIuMTU5IDQuNDg1LTMuODg3IDYuNTE5LTUuMjc0LS4wODItLjA3Ni0uMTU2LS4xNTYtLjIzNi0uMjMzLjA4MS4wNzUuMTU3LjE1Mi4yMzkuMjI3bC0uMDAyLjAwMWMzLjEyMSAyLjg4NiA2LjQzIDUuNjIxIDkuNTY0IDguMDY1LS44MjkgMS43NTgtLjY5OSAzLjg5OS41NjIgNS41NDd6IiBjbGFzcz0ibXNwb3J0YWxmeC1zdmctYzAxIiBmaWxsPSIjZmZmZmZmIiBpZD0icGF0aDkwOCIvPiYjeGE7ICA8L2c+JiN4YTs8L3N2Zz4=;" parent="1" vertex="1">
                    <mxGeometry x="-242" y="982" width="60" height="60" as="geometry"/>
                </mxCell>
                <mxCell id="61" value="DB OP:&#10;query models and twins&#10; under this user" style="shape=image;editableCssRules=\.st[02];verticalLabelPosition=bottom;labelBackgroundColor=none;verticalAlign=top;aspect=fixed;imageAspect=0;image=data:image/svg+xml,PHN2ZyB4bWxuczpkYz0iaHR0cDovL3B1cmwub3JnL2RjL2VsZW1lbnRzLzEuMS8iIHhtbG5zOmNjPSJodHRwOi8vY3JlYXRpdmVjb21tb25zLm9yZy9ucyMiIHhtbG5zOnJkZj0iaHR0cDovL3d3dy53My5vcmcvMTk5OS8wMi8yMi1yZGYtc3ludGF4LW5zIyIgeG1sbnM6c3ZnPSJodHRwOi8vd3d3LnczLm9yZy8yMDAwL3N2ZyIgeG1sbnM9Imh0dHA6Ly93d3cudzMub3JnLzIwMDAvc3ZnIiB4bWxuczpzb2RpcG9kaT0iaHR0cDovL3NvZGlwb2RpLnNvdXJjZWZvcmdlLm5ldC9EVEQvc29kaXBvZGktMC5kdGQiIHhtbG5zOmlua3NjYXBlPSJodHRwOi8vd3d3Lmlua3NjYXBlLm9yZy9uYW1lc3BhY2VzL2lua3NjYXBlIiB2aWV3Qm94PSIwLjAwMDEzNDQ2ODA3ODYxMzI4MTI1IDAgNTAuMDAwMDA3NjI5Mzk0NTMgNDkuOTkwMDAxNjc4NDY2OCIgY2xhc3M9ImZ4cy1wb3J0YWwtc3ZnIiByb2xlPSJwcmVzZW50YXRpb24iIGZvY3VzYWJsZT0iZmFsc2UiIGlkPSJGeFN5bWJvbDAtMDUxIiB2ZXJzaW9uPSIxLjEiIHNvZGlwb2RpOmRvY25hbWU9IkFwcCBTZXJ2aWNlcy5zdmciIGlua3NjYXBlOnZlcnNpb249IjAuOTIuMyAoMjQwNTU0NiwgMjAxOC0wMy0xMSkiIHdpZHRoPSI1MC4wMDAwMDc2MjkzOTQ1MyIgaGVpZ2h0PSI0OS45OTAwMDE2Nzg0NjY4Ij4mI3hhOyAgPG1ldGFkYXRhIGlkPSJtZXRhZGF0YTkxNyI+JiN4YTsgICAgPHJkZjpyZGY+JiN4YTsgICAgICA8Y2M6d29yayByZGY6YWJvdXQ9IiI+JiN4YTsgICAgICAgIDxkYzpmb3JtYXQ+aW1hZ2Uvc3ZnK3htbDwvZGM6Zm9ybWF0PiYjeGE7ICAgICAgICA8ZGM6dHlwZSByZGY6cmVzb3VyY2U9Imh0dHA6Ly9wdXJsLm9yZy9kYy9kY21pdHlwZS9TdGlsbEltYWdlIi8+JiN4YTsgICAgICAgIDxkYzp0aXRsZS8+JiN4YTsgICAgICA8L2NjOndvcms+JiN4YTsgICAgPC9yZGY6cmRmPiYjeGE7ICA8L21ldGFkYXRhPiYjeGE7ICA8ZGVmcyBpZD0iZGVmczkxNSIvPiYjeGE7ICA8c29kaXBvZGk6bmFtZWR2aWV3IHBhZ2Vjb2xvcj0iI2ZmZmZmZiIgYm9yZGVyY29sb3I9IiM2NjY2NjYiIGJvcmRlcm9wYWNpdHk9IjEiIG9iamVjdHRvbGVyYW5jZT0iMTAiIGdyaWR0b2xlcmFuY2U9IjEwIiBndWlkZXRvbGVyYW5jZT0iMTAiIGlua3NjYXBlOnBhZ2VvcGFjaXR5PSIwIiBpbmtzY2FwZTpwYWdlc2hhZG93PSIyIiBpbmtzY2FwZTp3aW5kb3ctd2lkdGg9IjY0MCIgaW5rc2NhcGU6d2luZG93LWhlaWdodD0iNDgwIiBpZD0ibmFtZWR2aWV3OTEzIiBzaG93Z3JpZD0iZmFsc2UiIGlua3NjYXBlOnpvb209IjEzLjQiIGlua3NjYXBlOmN4PSIyNSIgaW5rc2NhcGU6Y3k9IjI1IiBpbmtzY2FwZTp3aW5kb3cteD0iMCIgaW5rc2NhcGU6d2luZG93LXk9IjAiIGlua3NjYXBlOndpbmRvdy1tYXhpbWl6ZWQ9IjEiIGlua3NjYXBlOmN1cnJlbnQtbGF5ZXI9IkZ4U3ltYm9sMC0wNTEiLz4mI3hhOyAgPGcgaWQ9Imc5MTAiPiYjeGE7ICAgIDx0aXRsZSBpZD0idGl0bGU5MDQiLz4mI3hhOyAgICYjeGE7JiN4YTs8c3R5bGUgdHlwZT0idGV4dC9jc3MiPi5zdDAgeyBmaWxsOiByZ2IoMjU1LCAxMjgsIDApOyB9IDwvc3R5bGU+JiN4YTsmI3hhOyYjeGE7PHBhdGggY2xhc3M9InN0MCIgZD0iTTQwLjE5MyA0NC44MzlhMjQuODk4IDI0Ljg5OCAwIDAgMS0xNS4xNjcgNS4xNTFjLTcuNTIgMC0xNC45NTYtMy4zNzYtMTkuODctOS44MDNDLTMuMjQgMjkuMjI1LTEuMTY4IDEzLjU0OCA5LjgxNCA1LjE0OCAxNC4zNDMgMS42NjMgMTkuNjg2IDAgMjQuOTc5IDBjNy41MiAwIDE0Ljk1OCAzLjM3NiAxOS44NyA5LjgwOSA4LjM5OCAxMC45NTkgNi4zMDUgMjYuNjM5LTQuNjU2IDM1LjAzIiBmaWxsPSIjNTliNGQ5IiBpZD0icGF0aDkwNiIvPiYjeGE7ICAgIDxwYXRoIGQ9Ik0zNS42IDI5LjM3OGE1LjM4NSA1LjM4NSAwIDAgMCA3LjU0MSAxLjAwNGMuMTIzLS4wOTQuMjE4LS4yMDguMzMtLjMwOSAyLjQwOSAxLjY5NyA0LjA4MiAyLjgxNyA1LjAyNSAzLjQ1OS4yNzktLjcyMy40NzItMS40MTcuNjctMi4xNDJhMTMwLjg1NyAxMzAuODU3IDAgMCAxLTQuMjktMy4zNTZjLjYzOS0xLjY4LjQzNy0zLjY0LS43My01LjE3MWE1LjM2IDUuMzYgMCAwIDAtNi45MzYtMS4zNzcgMjI0LjMxNyAyMjQuMzE3IDAgMCAxLTguMjkzLTcuODMzYzkuMTY1LTQuOTI5IDE1LjY3Ni00LjIwNyAxNS42NzYtNC4yMDctMS4wODctMS4zODYtMi4zMDUtMi42LTMuNjA2LTMuNjk3LTMuODY1LS41OTctOS44NjktLjUzLTE2LjcyOSAzLjExOWwtLjAwMi0uMDAzaC0uMDAxYTIwMC4zMjIgMjAwLjMyMiAwIDAgMS02Ljk4My03LjcxMkEyMy4yNjQgMjMuMjY0IDAgMCAwIDEzLjk2IDIuNWMxLjc0OSAyLjg2MiA0LjEwMiA1Ljc0OSA2Ljc1NCA4LjU2NWwuMDE3LjAxN2E0Ni4yOTMgNDYuMjkzIDAgMCAwLTYuOTQ0IDYuMDE1Yy0uMjkuMzA5LS41NjkuNjItLjg0Mi45MzFhNy41NDYgNy41NDYgMCAwIDAtNC4xMTcuMjgyQzYuNTY0IDEzLjQyNSA2Ljc0NiA5LjUwMSA3LjEwNCA3LjQ3OGMtLjk4MyAxLjAzLTEuOTAxIDIuMTEzLTIuNjkyIDMuMjY3LS41OTEgMi40MTUtLjc1OSA1Ljg5OC45ODUgMTAuMDk1YTcuNTM4IDcuNTM4IDAgMCAwLS4wMDUgOS4xNTNjLjE3Ni4yMjkuMzY0LjQ0Mi41NTkuNjQ1YTM3Ljg3IDM3Ljg3IDAgMCAwLTEuNDYgOC43NjFjLjIzNy4zMjIuMjM3LjU4Mi40NzIuODk2IDEuMTk5IDEuNTM4IDIuNzA1IDIuODM0IDQuMTYgNC4wMDgtLjE4LTIuNzUuMDE0LTYuODA2IDEuNzE0LTExLjM3MmE3LjUwNyA3LjUwNyAwIDAgMCAzLjQ4My0uNTY2Yy42NC41NjMgMS4zMSAxLjEzMiAyLjAyNSAxLjcxMWE0MS42NzIgNDEuNjcyIDAgMCAwIDcuMjg1IDQuNjQzIDQuOTc0IDQuOTc0IDAgMCAwIC45NjggMy41MTggNC45OTggNC45OTggMCAwIDAgNi45ODMuOTE5IDQuOTE4IDQuOTE4IDAgMCAwIDEuMTA4LTEuMjE2YzMuODg5Ljg2NiA3LjI4NyAxLjAxOSA5LjgwNiAxLjAxOS4zODYgMCAyLjE3Ny0yLjQzNiAzLjIwMy0zLjk0Ni0xLjUzNC4zMjEtNi4wODMuOTQ2LTEyLjMtLjg0YTQuOTUyIDQuOTUyIDAgMCAwLS44OTgtMS45OGMtMS41NzktMi4wNy00LjQ2Ni0yLjUxOC02LjYxOC0xLjEzM2E0Ni44NTMgNDYuODUzIDAgMCAxLTYuNzU4LTQuNDkgNDYuNDIyIDQ2LjQyMiAwIDAgMS0xLjM1OS0xLjExOCA3LjU3OCA3LjU3OCAwIDAgMCAuMzE4LTcuNTVjLjI4Ni0uMjg2LjU2Ny0uNTczLjg3MS0uODU3IDIuMzExLTIuMTU5IDQuNDg1LTMuODg3IDYuNTE5LTUuMjc0LS4wODItLjA3Ni0uMTU2LS4xNTYtLjIzNi0uMjMzLjA4MS4wNzUuMTU3LjE1Mi4yMzkuMjI3bC0uMDAyLjAwMWMzLjEyMSAyLjg4NiA2LjQzIDUuNjIxIDkuNTY0IDguMDY1LS44MjkgMS43NTgtLjY5OSAzLjg5OS41NjIgNS41NDd6IiBjbGFzcz0ibXNwb3J0YWxmeC1zdmctYzAxIiBmaWxsPSIjZmZmZmZmIiBpZD0icGF0aDkwOCIvPiYjeGE7ICA8L2c+JiN4YTs8L3N2Zz4=;" parent="1" vertex="1">
                    <mxGeometry x="-75" y="966" width="60" height="60" as="geometry"/>
                </mxCell>
                <mxCell id="62" value="ADT OP:&#10;query models and&#10; twins detail in ADT" style="shape=image;editableCssRules=\.st[02];verticalLabelPosition=bottom;labelBackgroundColor=none;verticalAlign=top;aspect=fixed;imageAspect=0;image=data:image/svg+xml,PHN2ZyB4bWxuczpkYz0iaHR0cDovL3B1cmwub3JnL2RjL2VsZW1lbnRzLzEuMS8iIHhtbG5zOmNjPSJodHRwOi8vY3JlYXRpdmVjb21tb25zLm9yZy9ucyMiIHhtbG5zOnJkZj0iaHR0cDovL3d3dy53My5vcmcvMTk5OS8wMi8yMi1yZGYtc3ludGF4LW5zIyIgeG1sbnM6c3ZnPSJodHRwOi8vd3d3LnczLm9yZy8yMDAwL3N2ZyIgeG1sbnM9Imh0dHA6Ly93d3cudzMub3JnLzIwMDAvc3ZnIiB4bWxuczpzb2RpcG9kaT0iaHR0cDovL3NvZGlwb2RpLnNvdXJjZWZvcmdlLm5ldC9EVEQvc29kaXBvZGktMC5kdGQiIHhtbG5zOmlua3NjYXBlPSJodHRwOi8vd3d3Lmlua3NjYXBlLm9yZy9uYW1lc3BhY2VzL2lua3NjYXBlIiB2aWV3Qm94PSIwLjAwMDEzNDQ2ODA3ODYxMzI4MTI1IDAgNTAuMDAwMDA3NjI5Mzk0NTMgNDkuOTkwMDAxNjc4NDY2OCIgY2xhc3M9ImZ4cy1wb3J0YWwtc3ZnIiByb2xlPSJwcmVzZW50YXRpb24iIGZvY3VzYWJsZT0iZmFsc2UiIGlkPSJGeFN5bWJvbDAtMDUxIiB2ZXJzaW9uPSIxLjEiIHNvZGlwb2RpOmRvY25hbWU9IkFwcCBTZXJ2aWNlcy5zdmciIGlua3NjYXBlOnZlcnNpb249IjAuOTIuMyAoMjQwNTU0NiwgMjAxOC0wMy0xMSkiIHdpZHRoPSI1MC4wMDAwMDc2MjkzOTQ1MyIgaGVpZ2h0PSI0OS45OTAwMDE2Nzg0NjY4Ij4mI3hhOyAgPG1ldGFkYXRhIGlkPSJtZXRhZGF0YTkxNyI+JiN4YTsgICAgPHJkZjpyZGY+JiN4YTsgICAgICA8Y2M6d29yayByZGY6YWJvdXQ9IiI+JiN4YTsgICAgICAgIDxkYzpmb3JtYXQ+aW1hZ2Uvc3ZnK3htbDwvZGM6Zm9ybWF0PiYjeGE7ICAgICAgICA8ZGM6dHlwZSByZGY6cmVzb3VyY2U9Imh0dHA6Ly9wdXJsLm9yZy9kYy9kY21pdHlwZS9TdGlsbEltYWdlIi8+JiN4YTsgICAgICAgIDxkYzp0aXRsZS8+JiN4YTsgICAgICA8L2NjOndvcms+JiN4YTsgICAgPC9yZGY6cmRmPiYjeGE7ICA8L21ldGFkYXRhPiYjeGE7ICA8ZGVmcyBpZD0iZGVmczkxNSIvPiYjeGE7ICA8c29kaXBvZGk6bmFtZWR2aWV3IHBhZ2Vjb2xvcj0iI2ZmZmZmZiIgYm9yZGVyY29sb3I9IiM2NjY2NjYiIGJvcmRlcm9wYWNpdHk9IjEiIG9iamVjdHRvbGVyYW5jZT0iMTAiIGdyaWR0b2xlcmFuY2U9IjEwIiBndWlkZXRvbGVyYW5jZT0iMTAiIGlua3NjYXBlOnBhZ2VvcGFjaXR5PSIwIiBpbmtzY2FwZTpwYWdlc2hhZG93PSIyIiBpbmtzY2FwZTp3aW5kb3ctd2lkdGg9IjY0MCIgaW5rc2NhcGU6d2luZG93LWhlaWdodD0iNDgwIiBpZD0ibmFtZWR2aWV3OTEzIiBzaG93Z3JpZD0iZmFsc2UiIGlua3NjYXBlOnpvb209IjEzLjQiIGlua3NjYXBlOmN4PSIyNSIgaW5rc2NhcGU6Y3k9IjI1IiBpbmtzY2FwZTp3aW5kb3cteD0iMCIgaW5rc2NhcGU6d2luZG93LXk9IjAiIGlua3NjYXBlOndpbmRvdy1tYXhpbWl6ZWQ9IjEiIGlua3NjYXBlOmN1cnJlbnQtbGF5ZXI9IkZ4U3ltYm9sMC0wNTEiLz4mI3hhOyAgPGcgaWQ9Imc5MTAiPiYjeGE7ICAgIDx0aXRsZSBpZD0idGl0bGU5MDQiLz4mI3hhOyAgICYjeGE7JiN4YTs8c3R5bGUgdHlwZT0idGV4dC9jc3MiPi5zdDAgeyBmaWxsOiByZ2IoMjAsIDI1NSwgNzUpOyB9IDwvc3R5bGU+JiN4YTsmI3hhOyYjeGE7PHBhdGggY2xhc3M9InN0MCIgZD0iTTQwLjE5MyA0NC44MzlhMjQuODk4IDI0Ljg5OCAwIDAgMS0xNS4xNjcgNS4xNTFjLTcuNTIgMC0xNC45NTYtMy4zNzYtMTkuODctOS44MDNDLTMuMjQgMjkuMjI1LTEuMTY4IDEzLjU0OCA5LjgxNCA1LjE0OCAxNC4zNDMgMS42NjMgMTkuNjg2IDAgMjQuOTc5IDBjNy41MiAwIDE0Ljk1OCAzLjM3NiAxOS44NyA5LjgwOSA4LjM5OCAxMC45NTkgNi4zMDUgMjYuNjM5LTQuNjU2IDM1LjAzIiBmaWxsPSIjNTliNGQ5IiBpZD0icGF0aDkwNiIvPiYjeGE7ICAgIDxwYXRoIGQ9Ik0zNS42IDI5LjM3OGE1LjM4NSA1LjM4NSAwIDAgMCA3LjU0MSAxLjAwNGMuMTIzLS4wOTQuMjE4LS4yMDguMzMtLjMwOSAyLjQwOSAxLjY5NyA0LjA4MiAyLjgxNyA1LjAyNSAzLjQ1OS4yNzktLjcyMy40NzItMS40MTcuNjctMi4xNDJhMTMwLjg1NyAxMzAuODU3IDAgMCAxLTQuMjktMy4zNTZjLjYzOS0xLjY4LjQzNy0zLjY0LS43My01LjE3MWE1LjM2IDUuMzYgMCAwIDAtNi45MzYtMS4zNzcgMjI0LjMxNyAyMjQuMzE3IDAgMCAxLTguMjkzLTcuODMzYzkuMTY1LTQuOTI5IDE1LjY3Ni00LjIwNyAxNS42NzYtNC4yMDctMS4wODctMS4zODYtMi4zMDUtMi42LTMuNjA2LTMuNjk3LTMuODY1LS41OTctOS44NjktLjUzLTE2LjcyOSAzLjExOWwtLjAwMi0uMDAzaC0uMDAxYTIwMC4zMjIgMjAwLjMyMiAwIDAgMS02Ljk4My03LjcxMkEyMy4yNjQgMjMuMjY0IDAgMCAwIDEzLjk2IDIuNWMxLjc0OSAyLjg2MiA0LjEwMiA1Ljc0OSA2Ljc1NCA4LjU2NWwuMDE3LjAxN2E0Ni4yOTMgNDYuMjkzIDAgMCAwLTYuOTQ0IDYuMDE1Yy0uMjkuMzA5LS41NjkuNjItLjg0Mi45MzFhNy41NDYgNy41NDYgMCAwIDAtNC4xMTcuMjgyQzYuNTY0IDEzLjQyNSA2Ljc0NiA5LjUwMSA3LjEwNCA3LjQ3OGMtLjk4MyAxLjAzLTEuOTAxIDIuMTEzLTIuNjkyIDMuMjY3LS41OTEgMi40MTUtLjc1OSA1Ljg5OC45ODUgMTAuMDk1YTcuNTM4IDcuNTM4IDAgMCAwLS4wMDUgOS4xNTNjLjE3Ni4yMjkuMzY0LjQ0Mi41NTkuNjQ1YTM3Ljg3IDM3Ljg3IDAgMCAwLTEuNDYgOC43NjFjLjIzNy4zMjIuMjM3LjU4Mi40NzIuODk2IDEuMTk5IDEuNTM4IDIuNzA1IDIuODM0IDQuMTYgNC4wMDgtLjE4LTIuNzUuMDE0LTYuODA2IDEuNzE0LTExLjM3MmE3LjUwNyA3LjUwNyAwIDAgMCAzLjQ4My0uNTY2Yy42NC41NjMgMS4zMSAxLjEzMiAyLjAyNSAxLjcxMWE0MS42NzIgNDEuNjcyIDAgMCAwIDcuMjg1IDQuNjQzIDQuOTc0IDQuOTc0IDAgMCAwIC45NjggMy41MTggNC45OTggNC45OTggMCAwIDAgNi45ODMuOTE5IDQuOTE4IDQuOTE4IDAgMCAwIDEuMTA4LTEuMjE2YzMuODg5Ljg2NiA3LjI4NyAxLjAxOSA5LjgwNiAxLjAxOS4zODYgMCAyLjE3Ny0yLjQzNiAzLjIwMy0zLjk0Ni0xLjUzNC4zMjEtNi4wODMuOTQ2LTEyLjMtLjg0YTQuOTUyIDQuOTUyIDAgMCAwLS44OTgtMS45OGMtMS41NzktMi4wNy00LjQ2Ni0yLjUxOC02LjYxOC0xLjEzM2E0Ni44NTMgNDYuODUzIDAgMCAxLTYuNzU4LTQuNDkgNDYuNDIyIDQ2LjQyMiAwIDAgMS0xLjM1OS0xLjExOCA3LjU3OCA3LjU3OCAwIDAgMCAuMzE4LTcuNTVjLjI4Ni0uMjg2LjU2Ny0uNTczLjg3MS0uODU3IDIuMzExLTIuMTU5IDQuNDg1LTMuODg3IDYuNTE5LTUuMjc0LS4wODItLjA3Ni0uMTU2LS4xNTYtLjIzNi0uMjMzLjA4MS4wNzUuMTU3LjE1Mi4yMzkuMjI3bC0uMDAyLjAwMWMzLjEyMSAyLjg4NiA2LjQzIDUuNjIxIDkuNTY0IDguMDY1LS44MjkgMS43NTgtLjY5OSAzLjg5OS41NjIgNS41NDd6IiBjbGFzcz0ibXNwb3J0YWxmeC1zdmctYzAxIiBmaWxsPSIjZmZmZmZmIiBpZD0icGF0aDkwOCIvPiYjeGE7ICA8L2c+JiN4YTs8L3N2Zz4=;" parent="1" vertex="1">
                    <mxGeometry x="46" y="966" width="60" height="60" as="geometry"/>
                </mxCell>
                <mxCell id="65" style="edgeStyle=orthogonalEdgeStyle;rounded=0;orthogonalLoop=1;jettySize=auto;html=1;exitX=1;exitY=0.5;exitDx=0;exitDy=0;entryX=0;entryY=0.5;entryDx=0;entryDy=0;endArrow=none;endFill=0;" parent="1" source="63" target="64" edge="1">
                    <mxGeometry relative="1" as="geometry"/>
                </mxCell>
                <mxCell id="63" value="" style="rounded=1;whiteSpace=wrap;html=1;arcSize=50;" parent="1" vertex="1">
                    <mxGeometry x="-71" y="1082" width="184" height="20" as="geometry"/>
                </mxCell>
                <mxCell id="64" value="" style="ellipse;whiteSpace=wrap;html=1;aspect=fixed;" parent="1" vertex="1">
                    <mxGeometry x="210" y="1082" width="20" height="20" as="geometry"/>
                </mxCell>
                <mxCell id="66" value="" style="group" parent="1" vertex="1" connectable="0">
                    <mxGeometry x="178" y="978" width="65" height="52" as="geometry"/>
                </mxCell>
                <mxCell id="67" value="UI: Store models and&lt;br&gt;&amp;nbsp;twins info in frontend" style="aspect=fixed;html=1;points=[];align=center;image;fontSize=12;image=img/lib/azure2/general/Browser.svg;" parent="66" vertex="1">
                    <mxGeometry width="65" height="52" as="geometry"/>
                </mxCell>
                <mxCell id="68" value="" style="html=1;verticalLabelPosition=bottom;align=center;labelBackgroundColor=#ffffff;verticalAlign=top;strokeWidth=2;strokeColor=#0080F0;shadow=0;dashed=0;shape=mxgraph.ios7.icons.user;" parent="66" vertex="1">
                    <mxGeometry x="17.5" y="20" width="30" height="30" as="geometry"/>
                </mxCell>
                <mxCell id="72" value="Zero Records" style="edgeStyle=orthogonalEdgeStyle;rounded=0;orthogonalLoop=1;jettySize=auto;html=1;exitX=0;exitY=0.5;exitDx=0;exitDy=0;entryX=1;entryY=0.5;entryDx=0;entryDy=0;labelBackgroundColor=#FFFF33;endArrow=none;endFill=0;fontSize=12;fontColor=#000000;" parent="1" source="ybm-wKLRLlGC9EmnOlg3-125" target="64" edge="1">
                    <mxGeometry relative="1" as="geometry">
                        <mxPoint x="373" y="1043" as="sourcePoint"/>
                    </mxGeometry>
                </mxCell>
                <mxCell id="73" value="Models&amp;amp;Twins&lt;br style=&quot;font-size: 12px;&quot;&gt;Records" style="edgeStyle=orthogonalEdgeStyle;rounded=0;orthogonalLoop=1;jettySize=auto;html=1;exitX=0;exitY=0.5;exitDx=0;exitDy=0;labelBackgroundColor=#FFFF33;endArrow=none;endFill=0;fontSize=12;fontColor=#000000;entryX=1;entryY=0.5;entryDx=0;entryDy=0;spacingTop=8;" parent="1" source="71" target="64" edge="1">
                    <mxGeometry relative="1" as="geometry">
                        <mxPoint x="231.59994506835938" y="1091.8000183105469" as="targetPoint"/>
                    </mxGeometry>
                </mxCell>
                <mxCell id="71" value="" style="ellipse;whiteSpace=wrap;html=1;aspect=fixed;fontSize=16;fontColor=#000000;" parent="1" vertex="1">
                    <mxGeometry x="373" y="1124" width="20" height="20" as="geometry"/>
                </mxCell>
                <mxCell id="80" value="" style="group" parent="1" vertex="1" connectable="0">
                    <mxGeometry x="356" y="1157" width="65" height="52" as="geometry"/>
                </mxCell>
                <mxCell id="81" value="UI: Show data selection dialog to &lt;br&gt;choose twins data to start" style="aspect=fixed;html=1;points=[];align=center;image;fontSize=12;image=img/lib/azure2/general/Browser.svg;" parent="80" vertex="1">
                    <mxGeometry width="65" height="52" as="geometry"/>
                </mxCell>
                <mxCell id="82" value="" style="html=1;verticalLabelPosition=bottom;align=center;labelBackgroundColor=#ffffff;verticalAlign=top;strokeWidth=2;strokeColor=#0080F0;shadow=0;dashed=0;shape=mxgraph.ios7.icons.user;" parent="80" vertex="1">
                    <mxGeometry x="17.5" y="20" width="30" height="30" as="geometry"/>
                </mxCell>
                <mxCell id="83" value="1.2. Start Device Management Module" style="shape=process;whiteSpace=wrap;html=1;backgroundOutline=1;fontColor=#ffffff;strokeColor=#A50040;fillColor=#d80073;" parent="1" vertex="1">
                    <mxGeometry x="-586" y="1551" width="120" height="60" as="geometry"/>
                </mxCell>
                <mxCell id="89" style="edgeStyle=orthogonalEdgeStyle;rounded=0;orthogonalLoop=1;jettySize=auto;html=1;exitX=1;exitY=0.5;exitDx=0;exitDy=0;entryX=0;entryY=0.5;entryDx=0;entryDy=0;labelBackgroundColor=#FFFF33;endArrow=none;endFill=0;fontSize=12;fontColor=#000000;" parent="1" source="84" target="88" edge="1">
                    <mxGeometry relative="1" as="geometry"/>
                </mxCell>
                <mxCell id="84" value="" style="ellipse;whiteSpace=wrap;html=1;aspect=fixed;fontSize=12;fontColor=#000000;" parent="1" vertex="1">
                    <mxGeometry x="-389" y="1571" width="20" height="20" as="geometry"/>
                </mxCell>
                <mxCell id="85" value="" style="group" parent="1" vertex="1" connectable="0">
                    <mxGeometry x="-410" y="1477" width="65" height="52" as="geometry"/>
                </mxCell>
                <mxCell id="86" value="UI: Start Device&lt;br&gt;&amp;nbsp;management Model" style="aspect=fixed;html=1;points=[];align=center;image;fontSize=12;image=img/lib/azure2/general/Browser.svg;" parent="85" vertex="1">
                    <mxGeometry width="65" height="52" as="geometry"/>
                </mxCell>
                <mxCell id="87" value="" style="html=1;verticalLabelPosition=bottom;align=center;labelBackgroundColor=#ffffff;verticalAlign=top;strokeWidth=2;strokeColor=#0080F0;shadow=0;dashed=0;shape=mxgraph.ios7.icons.user;" parent="85" vertex="1">
                    <mxGeometry x="17.5" y="20" width="30" height="30" as="geometry"/>
                </mxCell>
                <mxCell id="103" style="edgeStyle=orthogonalEdgeStyle;rounded=0;orthogonalLoop=1;jettySize=auto;html=1;exitX=1;exitY=0.5;exitDx=0;exitDy=0;entryX=0;entryY=0.5;entryDx=0;entryDy=0;labelBackgroundColor=#FFFF33;endArrow=none;endFill=0;fontSize=12;fontColor=#FFFFFF;" parent="1" source="88" target="99" edge="1">
                    <mxGeometry relative="1" as="geometry"/>
                </mxCell>
                <mxCell id="88" value="" style="ellipse;whiteSpace=wrap;html=1;aspect=fixed;fontSize=12;fontColor=#000000;" parent="1" vertex="1">
                    <mxGeometry x="-227" y="1571" width="20" height="20" as="geometry"/>
                </mxCell>
                <mxCell id="91" value="Task Master: Fetch models,&#10; twins and IoT devices Info" style="shape=image;editableCssRules=\.st[02];verticalLabelPosition=bottom;labelBackgroundColor=none;verticalAlign=top;aspect=fixed;imageAspect=0;image=data:image/svg+xml,PHN2ZyB4bWxuczpkYz0iaHR0cDovL3B1cmwub3JnL2RjL2VsZW1lbnRzLzEuMS8iIHhtbG5zOmNjPSJodHRwOi8vY3JlYXRpdmVjb21tb25zLm9yZy9ucyMiIHhtbG5zOnJkZj0iaHR0cDovL3d3dy53My5vcmcvMTk5OS8wMi8yMi1yZGYtc3ludGF4LW5zIyIgeG1sbnM6c3ZnPSJodHRwOi8vd3d3LnczLm9yZy8yMDAwL3N2ZyIgeG1sbnM9Imh0dHA6Ly93d3cudzMub3JnLzIwMDAvc3ZnIiB4bWxuczpzb2RpcG9kaT0iaHR0cDovL3NvZGlwb2RpLnNvdXJjZWZvcmdlLm5ldC9EVEQvc29kaXBvZGktMC5kdGQiIHhtbG5zOmlua3NjYXBlPSJodHRwOi8vd3d3Lmlua3NjYXBlLm9yZy9uYW1lc3BhY2VzL2lua3NjYXBlIiB2aWV3Qm94PSIwLjAwMDEzNDQ2ODA3ODYxMzI4MTI1IDAgNTAuMDAwMDA3NjI5Mzk0NTMgNDkuOTkwMDAxNjc4NDY2OCIgY2xhc3M9ImZ4cy1wb3J0YWwtc3ZnIiByb2xlPSJwcmVzZW50YXRpb24iIGZvY3VzYWJsZT0iZmFsc2UiIGlkPSJGeFN5bWJvbDAtMDUxIiB2ZXJzaW9uPSIxLjEiIHNvZGlwb2RpOmRvY25hbWU9IkFwcCBTZXJ2aWNlcy5zdmciIGlua3NjYXBlOnZlcnNpb249IjAuOTIuMyAoMjQwNTU0NiwgMjAxOC0wMy0xMSkiIHdpZHRoPSI1MC4wMDAwMDc2MjkzOTQ1MyIgaGVpZ2h0PSI0OS45OTAwMDE2Nzg0NjY4Ij4mI3hhOyAgPG1ldGFkYXRhIGlkPSJtZXRhZGF0YTkxNyI+JiN4YTsgICAgPHJkZjpyZGY+JiN4YTsgICAgICA8Y2M6d29yayByZGY6YWJvdXQ9IiI+JiN4YTsgICAgICAgIDxkYzpmb3JtYXQ+aW1hZ2Uvc3ZnK3htbDwvZGM6Zm9ybWF0PiYjeGE7ICAgICAgICA8ZGM6dHlwZSByZGY6cmVzb3VyY2U9Imh0dHA6Ly9wdXJsLm9yZy9kYy9kY21pdHlwZS9TdGlsbEltYWdlIi8+JiN4YTsgICAgICAgIDxkYzp0aXRsZS8+JiN4YTsgICAgICA8L2NjOndvcms+JiN4YTsgICAgPC9yZGY6cmRmPiYjeGE7ICA8L21ldGFkYXRhPiYjeGE7ICA8ZGVmcyBpZD0iZGVmczkxNSIvPiYjeGE7ICA8c29kaXBvZGk6bmFtZWR2aWV3IHBhZ2Vjb2xvcj0iI2ZmZmZmZiIgYm9yZGVyY29sb3I9IiM2NjY2NjYiIGJvcmRlcm9wYWNpdHk9IjEiIG9iamVjdHRvbGVyYW5jZT0iMTAiIGdyaWR0b2xlcmFuY2U9IjEwIiBndWlkZXRvbGVyYW5jZT0iMTAiIGlua3NjYXBlOnBhZ2VvcGFjaXR5PSIwIiBpbmtzY2FwZTpwYWdlc2hhZG93PSIyIiBpbmtzY2FwZTp3aW5kb3ctd2lkdGg9IjY0MCIgaW5rc2NhcGU6d2luZG93LWhlaWdodD0iNDgwIiBpZD0ibmFtZWR2aWV3OTEzIiBzaG93Z3JpZD0iZmFsc2UiIGlua3NjYXBlOnpvb209IjEzLjQiIGlua3NjYXBlOmN4PSIyNSIgaW5rc2NhcGU6Y3k9IjI1IiBpbmtzY2FwZTp3aW5kb3cteD0iMCIgaW5rc2NhcGU6d2luZG93LXk9IjAiIGlua3NjYXBlOndpbmRvdy1tYXhpbWl6ZWQ9IjEiIGlua3NjYXBlOmN1cnJlbnQtbGF5ZXI9IkZ4U3ltYm9sMC0wNTEiLz4mI3hhOyAgPGcgaWQ9Imc5MTAiPiYjeGE7ICAgIDx0aXRsZSBpZD0idGl0bGU5MDQiLz4mI3hhOyAgICYjeGE7JiN4YTs8c3R5bGUgdHlwZT0idGV4dC9jc3MiPi5zdDAgeyBmaWxsOiByZ2IoMjU1LCAwLCAxMjgpOyB9IDwvc3R5bGU+JiN4YTsmI3hhOyYjeGE7PHBhdGggY2xhc3M9InN0MCIgZD0iTTQwLjE5MyA0NC44MzlhMjQuODk4IDI0Ljg5OCAwIDAgMS0xNS4xNjcgNS4xNTFjLTcuNTIgMC0xNC45NTYtMy4zNzYtMTkuODctOS44MDNDLTMuMjQgMjkuMjI1LTEuMTY4IDEzLjU0OCA5LjgxNCA1LjE0OCAxNC4zNDMgMS42NjMgMTkuNjg2IDAgMjQuOTc5IDBjNy41MiAwIDE0Ljk1OCAzLjM3NiAxOS44NyA5LjgwOSA4LjM5OCAxMC45NTkgNi4zMDUgMjYuNjM5LTQuNjU2IDM1LjAzIiBmaWxsPSIjNTliNGQ5IiBpZD0icGF0aDkwNiIvPiYjeGE7ICAgIDxwYXRoIGQ9Ik0zNS42IDI5LjM3OGE1LjM4NSA1LjM4NSAwIDAgMCA3LjU0MSAxLjAwNGMuMTIzLS4wOTQuMjE4LS4yMDguMzMtLjMwOSAyLjQwOSAxLjY5NyA0LjA4MiAyLjgxNyA1LjAyNSAzLjQ1OS4yNzktLjcyMy40NzItMS40MTcuNjctMi4xNDJhMTMwLjg1NyAxMzAuODU3IDAgMCAxLTQuMjktMy4zNTZjLjYzOS0xLjY4LjQzNy0zLjY0LS43My01LjE3MWE1LjM2IDUuMzYgMCAwIDAtNi45MzYtMS4zNzcgMjI0LjMxNyAyMjQuMzE3IDAgMCAxLTguMjkzLTcuODMzYzkuMTY1LTQuOTI5IDE1LjY3Ni00LjIwNyAxNS42NzYtNC4yMDctMS4wODctMS4zODYtMi4zMDUtMi42LTMuNjA2LTMuNjk3LTMuODY1LS41OTctOS44NjktLjUzLTE2LjcyOSAzLjExOWwtLjAwMi0uMDAzaC0uMDAxYTIwMC4zMjIgMjAwLjMyMiAwIDAgMS02Ljk4My03LjcxMkEyMy4yNjQgMjMuMjY0IDAgMCAwIDEzLjk2IDIuNWMxLjc0OSAyLjg2MiA0LjEwMiA1Ljc0OSA2Ljc1NCA4LjU2NWwuMDE3LjAxN2E0Ni4yOTMgNDYuMjkzIDAgMCAwLTYuOTQ0IDYuMDE1Yy0uMjkuMzA5LS41NjkuNjItLjg0Mi45MzFhNy41NDYgNy41NDYgMCAwIDAtNC4xMTcuMjgyQzYuNTY0IDEzLjQyNSA2Ljc0NiA5LjUwMSA3LjEwNCA3LjQ3OGMtLjk4MyAxLjAzLTEuOTAxIDIuMTEzLTIuNjkyIDMuMjY3LS41OTEgMi40MTUtLjc1OSA1Ljg5OC45ODUgMTAuMDk1YTcuNTM4IDcuNTM4IDAgMCAwLS4wMDUgOS4xNTNjLjE3Ni4yMjkuMzY0LjQ0Mi41NTkuNjQ1YTM3Ljg3IDM3Ljg3IDAgMCAwLTEuNDYgOC43NjFjLjIzNy4zMjIuMjM3LjU4Mi40NzIuODk2IDEuMTk5IDEuNTM4IDIuNzA1IDIuODM0IDQuMTYgNC4wMDgtLjE4LTIuNzUuMDE0LTYuODA2IDEuNzE0LTExLjM3MmE3LjUwNyA3LjUwNyAwIDAgMCAzLjQ4My0uNTY2Yy42NC41NjMgMS4zMSAxLjEzMiAyLjAyNSAxLjcxMWE0MS42NzIgNDEuNjcyIDAgMCAwIDcuMjg1IDQuNjQzIDQuOTc0IDQuOTc0IDAgMCAwIC45NjggMy41MTggNC45OTggNC45OTggMCAwIDAgNi45ODMuOTE5IDQuOTE4IDQuOTE4IDAgMCAwIDEuMTA4LTEuMjE2YzMuODg5Ljg2NiA3LjI4NyAxLjAxOSA5LjgwNiAxLjAxOS4zODYgMCAyLjE3Ny0yLjQzNiAzLjIwMy0zLjk0Ni0xLjUzNC4zMjEtNi4wODMuOTQ2LTEyLjMtLjg0YTQuOTUyIDQuOTUyIDAgMCAwLS44OTgtMS45OGMtMS41NzktMi4wNy00LjQ2Ni0yLjUxOC02LjYxOC0xLjEzM2E0Ni44NTMgNDYuODUzIDAgMCAxLTYuNzU4LTQuNDkgNDYuNDIyIDQ2LjQyMiAwIDAgMS0xLjM1OS0xLjExOCA3LjU3OCA3LjU3OCAwIDAgMCAuMzE4LTcuNTVjLjI4Ni0uMjg2LjU2Ny0uNTczLjg3MS0uODU3IDIuMzExLTIuMTU5IDQuNDg1LTMuODg3IDYuNTE5LTUuMjc0LS4wODItLjA3Ni0uMTU2LS4xNTYtLjIzNi0uMjMzLjA4MS4wNzUuMTU3LjE1Mi4yMzkuMjI3bC0uMDAyLjAwMWMzLjEyMSAyLjg4NiA2LjQzIDUuNjIxIDkuNTY0IDguMDY1LS44MjkgMS43NTgtLjY5OSAzLjg5OS41NjIgNS41NDd6IiBjbGFzcz0ibXNwb3J0YWxmeC1zdmctYzAxIiBmaWxsPSIjZmZmZmZmIiBpZD0icGF0aDkwOCIvPiYjeGE7ICA8L2c+JiN4YTs8L3N2Zz4=;fontSize=12;fontColor=#FFFFFF;" parent="1" vertex="1">
                    <mxGeometry x="-247" y="1466" width="60" height="60" as="geometry"/>
                </mxCell>
                <mxCell id="105" style="edgeStyle=orthogonalEdgeStyle;rounded=0;orthogonalLoop=1;jettySize=auto;html=1;exitX=1;exitY=0.5;exitDx=0;exitDy=0;entryX=0;entryY=0.5;entryDx=0;entryDy=0;labelBackgroundColor=#FFFF33;endArrow=none;endFill=0;fontSize=12;fontColor=#FFFFFF;" parent="1" source="99" target="ybm-wKLRLlGC9EmnOlg3-108" edge="1">
                    <mxGeometry relative="1" as="geometry">
                        <mxPoint x="279" y="1581" as="targetPoint"/>
                    </mxGeometry>
                </mxCell>
                <mxCell id="99" value="" style="rounded=1;whiteSpace=wrap;html=1;arcSize=50;" parent="1" vertex="1">
                    <mxGeometry x="-94" y="1571" width="209" height="20" as="geometry"/>
                </mxCell>
                <mxCell id="100" value="DB OP:&#10;query models, twins&#10;and IoT devics under this user" style="shape=image;editableCssRules=\.st[02];verticalLabelPosition=bottom;labelBackgroundColor=none;verticalAlign=top;aspect=fixed;imageAspect=0;image=data:image/svg+xml,PHN2ZyB4bWxuczpkYz0iaHR0cDovL3B1cmwub3JnL2RjL2VsZW1lbnRzLzEuMS8iIHhtbG5zOmNjPSJodHRwOi8vY3JlYXRpdmVjb21tb25zLm9yZy9ucyMiIHhtbG5zOnJkZj0iaHR0cDovL3d3dy53My5vcmcvMTk5OS8wMi8yMi1yZGYtc3ludGF4LW5zIyIgeG1sbnM6c3ZnPSJodHRwOi8vd3d3LnczLm9yZy8yMDAwL3N2ZyIgeG1sbnM9Imh0dHA6Ly93d3cudzMub3JnLzIwMDAvc3ZnIiB4bWxuczpzb2RpcG9kaT0iaHR0cDovL3NvZGlwb2RpLnNvdXJjZWZvcmdlLm5ldC9EVEQvc29kaXBvZGktMC5kdGQiIHhtbG5zOmlua3NjYXBlPSJodHRwOi8vd3d3Lmlua3NjYXBlLm9yZy9uYW1lc3BhY2VzL2lua3NjYXBlIiB2aWV3Qm94PSIwLjAwMDEzNDQ2ODA3ODYxMzI4MTI1IDAgNTAuMDAwMDA3NjI5Mzk0NTMgNDkuOTkwMDAxNjc4NDY2OCIgY2xhc3M9ImZ4cy1wb3J0YWwtc3ZnIiByb2xlPSJwcmVzZW50YXRpb24iIGZvY3VzYWJsZT0iZmFsc2UiIGlkPSJGeFN5bWJvbDAtMDUxIiB2ZXJzaW9uPSIxLjEiIHNvZGlwb2RpOmRvY25hbWU9IkFwcCBTZXJ2aWNlcy5zdmciIGlua3NjYXBlOnZlcnNpb249IjAuOTIuMyAoMjQwNTU0NiwgMjAxOC0wMy0xMSkiIHdpZHRoPSI1MC4wMDAwMDc2MjkzOTQ1MyIgaGVpZ2h0PSI0OS45OTAwMDE2Nzg0NjY4Ij4mI3hhOyAgPG1ldGFkYXRhIGlkPSJtZXRhZGF0YTkxNyI+JiN4YTsgICAgPHJkZjpyZGY+JiN4YTsgICAgICA8Y2M6d29yayByZGY6YWJvdXQ9IiI+JiN4YTsgICAgICAgIDxkYzpmb3JtYXQ+aW1hZ2Uvc3ZnK3htbDwvZGM6Zm9ybWF0PiYjeGE7ICAgICAgICA8ZGM6dHlwZSByZGY6cmVzb3VyY2U9Imh0dHA6Ly9wdXJsLm9yZy9kYy9kY21pdHlwZS9TdGlsbEltYWdlIi8+JiN4YTsgICAgICAgIDxkYzp0aXRsZS8+JiN4YTsgICAgICA8L2NjOndvcms+JiN4YTsgICAgPC9yZGY6cmRmPiYjeGE7ICA8L21ldGFkYXRhPiYjeGE7ICA8ZGVmcyBpZD0iZGVmczkxNSIvPiYjeGE7ICA8c29kaXBvZGk6bmFtZWR2aWV3IHBhZ2Vjb2xvcj0iI2ZmZmZmZiIgYm9yZGVyY29sb3I9IiM2NjY2NjYiIGJvcmRlcm9wYWNpdHk9IjEiIG9iamVjdHRvbGVyYW5jZT0iMTAiIGdyaWR0b2xlcmFuY2U9IjEwIiBndWlkZXRvbGVyYW5jZT0iMTAiIGlua3NjYXBlOnBhZ2VvcGFjaXR5PSIwIiBpbmtzY2FwZTpwYWdlc2hhZG93PSIyIiBpbmtzY2FwZTp3aW5kb3ctd2lkdGg9IjY0MCIgaW5rc2NhcGU6d2luZG93LWhlaWdodD0iNDgwIiBpZD0ibmFtZWR2aWV3OTEzIiBzaG93Z3JpZD0iZmFsc2UiIGlua3NjYXBlOnpvb209IjEzLjQiIGlua3NjYXBlOmN4PSIyNSIgaW5rc2NhcGU6Y3k9IjI1IiBpbmtzY2FwZTp3aW5kb3cteD0iMCIgaW5rc2NhcGU6d2luZG93LXk9IjAiIGlua3NjYXBlOndpbmRvdy1tYXhpbWl6ZWQ9IjEiIGlua3NjYXBlOmN1cnJlbnQtbGF5ZXI9IkZ4U3ltYm9sMC0wNTEiLz4mI3hhOyAgPGcgaWQ9Imc5MTAiPiYjeGE7ICAgIDx0aXRsZSBpZD0idGl0bGU5MDQiLz4mI3hhOyAgICYjeGE7JiN4YTs8c3R5bGUgdHlwZT0idGV4dC9jc3MiPi5zdDAgeyBmaWxsOiByZ2IoMjU1LCAxMjgsIDApOyB9IDwvc3R5bGU+JiN4YTsmI3hhOyYjeGE7PHBhdGggY2xhc3M9InN0MCIgZD0iTTQwLjE5MyA0NC44MzlhMjQuODk4IDI0Ljg5OCAwIDAgMS0xNS4xNjcgNS4xNTFjLTcuNTIgMC0xNC45NTYtMy4zNzYtMTkuODctOS44MDNDLTMuMjQgMjkuMjI1LTEuMTY4IDEzLjU0OCA5LjgxNCA1LjE0OCAxNC4zNDMgMS42NjMgMTkuNjg2IDAgMjQuOTc5IDBjNy41MiAwIDE0Ljk1OCAzLjM3NiAxOS44NyA5LjgwOSA4LjM5OCAxMC45NTkgNi4zMDUgMjYuNjM5LTQuNjU2IDM1LjAzIiBmaWxsPSIjNTliNGQ5IiBpZD0icGF0aDkwNiIvPiYjeGE7ICAgIDxwYXRoIGQ9Ik0zNS42IDI5LjM3OGE1LjM4NSA1LjM4NSAwIDAgMCA3LjU0MSAxLjAwNGMuMTIzLS4wOTQuMjE4LS4yMDguMzMtLjMwOSAyLjQwOSAxLjY5NyA0LjA4MiAyLjgxNyA1LjAyNSAzLjQ1OS4yNzktLjcyMy40NzItMS40MTcuNjctMi4xNDJhMTMwLjg1NyAxMzAuODU3IDAgMCAxLTQuMjktMy4zNTZjLjYzOS0xLjY4LjQzNy0zLjY0LS43My01LjE3MWE1LjM2IDUuMzYgMCAwIDAtNi45MzYtMS4zNzcgMjI0LjMxNyAyMjQuMzE3IDAgMCAxLTguMjkzLTcuODMzYzkuMTY1LTQuOTI5IDE1LjY3Ni00LjIwNyAxNS42NzYtNC4yMDctMS4wODctMS4zODYtMi4zMDUtMi42LTMuNjA2LTMuNjk3LTMuODY1LS41OTctOS44NjktLjUzLTE2LjcyOSAzLjExOWwtLjAwMi0uMDAzaC0uMDAxYTIwMC4zMjIgMjAwLjMyMiAwIDAgMS02Ljk4My03LjcxMkEyMy4yNjQgMjMuMjY0IDAgMCAwIDEzLjk2IDIuNWMxLjc0OSAyLjg2MiA0LjEwMiA1Ljc0OSA2Ljc1NCA4LjU2NWwuMDE3LjAxN2E0Ni4yOTMgNDYuMjkzIDAgMCAwLTYuOTQ0IDYuMDE1Yy0uMjkuMzA5LS41NjkuNjItLjg0Mi45MzFhNy41NDYgNy41NDYgMCAwIDAtNC4xMTcuMjgyQzYuNTY0IDEzLjQyNSA2Ljc0NiA5LjUwMSA3LjEwNCA3LjQ3OGMtLjk4MyAxLjAzLTEuOTAxIDIuMTEzLTIuNjkyIDMuMjY3LS41OTEgMi40MTUtLjc1OSA1Ljg5OC45ODUgMTAuMDk1YTcuNTM4IDcuNTM4IDAgMCAwLS4wMDUgOS4xNTNjLjE3Ni4yMjkuMzY0LjQ0Mi41NTkuNjQ1YTM3Ljg3IDM3Ljg3IDAgMCAwLTEuNDYgOC43NjFjLjIzNy4zMjIuMjM3LjU4Mi40NzIuODk2IDEuMTk5IDEuNTM4IDIuNzA1IDIuODM0IDQuMTYgNC4wMDgtLjE4LTIuNzUuMDE0LTYuODA2IDEuNzE0LTExLjM3MmE3LjUwNyA3LjUwNyAwIDAgMCAzLjQ4My0uNTY2Yy42NC41NjMgMS4zMSAxLjEzMiAyLjAyNSAxLjcxMWE0MS42NzIgNDEuNjcyIDAgMCAwIDcuMjg1IDQuNjQzIDQuOTc0IDQuOTc0IDAgMCAwIC45NjggMy41MTggNC45OTggNC45OTggMCAwIDAgNi45ODMuOTE5IDQuOTE4IDQuOTE4IDAgMCAwIDEuMTA4LTEuMjE2YzMuODg5Ljg2NiA3LjI4NyAxLjAxOSA5LjgwNiAxLjAxOS4zODYgMCAyLjE3Ny0yLjQzNiAzLjIwMy0zLjk0Ni0xLjUzNC4zMjEtNi4wODMuOTQ2LTEyLjMtLjg0YTQuOTUyIDQuOTUyIDAgMCAwLS44OTgtMS45OGMtMS41NzktMi4wNy00LjQ2Ni0yLjUxOC02LjYxOC0xLjEzM2E0Ni44NTMgNDYuODUzIDAgMCAxLTYuNzU4LTQuNDkgNDYuNDIyIDQ2LjQyMiAwIDAgMS0xLjM1OS0xLjExOCA3LjU3OCA3LjU3OCAwIDAgMCAuMzE4LTcuNTVjLjI4Ni0uMjg2LjU2Ny0uNTczLjg3MS0uODU3IDIuMzExLTIuMTU5IDQuNDg1LTMuODg3IDYuNTE5LTUuMjc0LS4wODItLjA3Ni0uMTU2LS4xNTYtLjIzNi0uMjMzLjA4MS4wNzUuMTU3LjE1Mi4yMzkuMjI3bC0uMDAyLjAwMWMzLjEyMSAyLjg4NiA2LjQzIDUuNjIxIDkuNTY0IDguMDY1LS44MjkgMS43NTgtLjY5OSAzLjg5OS41NjIgNS41NDd6IiBjbGFzcz0ibXNwb3J0YWxmeC1zdmctYzAxIiBmaWxsPSIjZmZmZmZmIiBpZD0icGF0aDkwOCIvPiYjeGE7ICA8L2c+JiN4YTs8L3N2Zz4=;" parent="1" vertex="1">
                    <mxGeometry x="-82" y="1440" width="60" height="60" as="geometry"/>
                </mxCell>
                <mxCell id="101" value="ADT OP:query models &#10;and twins detail (only twins&#10; mapping to IoT Devices)" style="shape=image;editableCssRules=\.st[02];verticalLabelPosition=bottom;labelBackgroundColor=none;verticalAlign=top;aspect=fixed;imageAspect=0;image=data:image/svg+xml,PHN2ZyB4bWxuczpkYz0iaHR0cDovL3B1cmwub3JnL2RjL2VsZW1lbnRzLzEuMS8iIHhtbG5zOmNjPSJodHRwOi8vY3JlYXRpdmVjb21tb25zLm9yZy9ucyMiIHhtbG5zOnJkZj0iaHR0cDovL3d3dy53My5vcmcvMTk5OS8wMi8yMi1yZGYtc3ludGF4LW5zIyIgeG1sbnM6c3ZnPSJodHRwOi8vd3d3LnczLm9yZy8yMDAwL3N2ZyIgeG1sbnM9Imh0dHA6Ly93d3cudzMub3JnLzIwMDAvc3ZnIiB4bWxuczpzb2RpcG9kaT0iaHR0cDovL3NvZGlwb2RpLnNvdXJjZWZvcmdlLm5ldC9EVEQvc29kaXBvZGktMC5kdGQiIHhtbG5zOmlua3NjYXBlPSJodHRwOi8vd3d3Lmlua3NjYXBlLm9yZy9uYW1lc3BhY2VzL2lua3NjYXBlIiB2aWV3Qm94PSIwLjAwMDEzNDQ2ODA3ODYxMzI4MTI1IDAgNTAuMDAwMDA3NjI5Mzk0NTMgNDkuOTkwMDAxNjc4NDY2OCIgY2xhc3M9ImZ4cy1wb3J0YWwtc3ZnIiByb2xlPSJwcmVzZW50YXRpb24iIGZvY3VzYWJsZT0iZmFsc2UiIGlkPSJGeFN5bWJvbDAtMDUxIiB2ZXJzaW9uPSIxLjEiIHNvZGlwb2RpOmRvY25hbWU9IkFwcCBTZXJ2aWNlcy5zdmciIGlua3NjYXBlOnZlcnNpb249IjAuOTIuMyAoMjQwNTU0NiwgMjAxOC0wMy0xMSkiIHdpZHRoPSI1MC4wMDAwMDc2MjkzOTQ1MyIgaGVpZ2h0PSI0OS45OTAwMDE2Nzg0NjY4Ij4mI3hhOyAgPG1ldGFkYXRhIGlkPSJtZXRhZGF0YTkxNyI+JiN4YTsgICAgPHJkZjpyZGY+JiN4YTsgICAgICA8Y2M6d29yayByZGY6YWJvdXQ9IiI+JiN4YTsgICAgICAgIDxkYzpmb3JtYXQ+aW1hZ2Uvc3ZnK3htbDwvZGM6Zm9ybWF0PiYjeGE7ICAgICAgICA8ZGM6dHlwZSByZGY6cmVzb3VyY2U9Imh0dHA6Ly9wdXJsLm9yZy9kYy9kY21pdHlwZS9TdGlsbEltYWdlIi8+JiN4YTsgICAgICAgIDxkYzp0aXRsZS8+JiN4YTsgICAgICA8L2NjOndvcms+JiN4YTsgICAgPC9yZGY6cmRmPiYjeGE7ICA8L21ldGFkYXRhPiYjeGE7ICA8ZGVmcyBpZD0iZGVmczkxNSIvPiYjeGE7ICA8c29kaXBvZGk6bmFtZWR2aWV3IHBhZ2Vjb2xvcj0iI2ZmZmZmZiIgYm9yZGVyY29sb3I9IiM2NjY2NjYiIGJvcmRlcm9wYWNpdHk9IjEiIG9iamVjdHRvbGVyYW5jZT0iMTAiIGdyaWR0b2xlcmFuY2U9IjEwIiBndWlkZXRvbGVyYW5jZT0iMTAiIGlua3NjYXBlOnBhZ2VvcGFjaXR5PSIwIiBpbmtzY2FwZTpwYWdlc2hhZG93PSIyIiBpbmtzY2FwZTp3aW5kb3ctd2lkdGg9IjY0MCIgaW5rc2NhcGU6d2luZG93LWhlaWdodD0iNDgwIiBpZD0ibmFtZWR2aWV3OTEzIiBzaG93Z3JpZD0iZmFsc2UiIGlua3NjYXBlOnpvb209IjEzLjQiIGlua3NjYXBlOmN4PSIyNSIgaW5rc2NhcGU6Y3k9IjI1IiBpbmtzY2FwZTp3aW5kb3cteD0iMCIgaW5rc2NhcGU6d2luZG93LXk9IjAiIGlua3NjYXBlOndpbmRvdy1tYXhpbWl6ZWQ9IjEiIGlua3NjYXBlOmN1cnJlbnQtbGF5ZXI9IkZ4U3ltYm9sMC0wNTEiLz4mI3hhOyAgPGcgaWQ9Imc5MTAiPiYjeGE7ICAgIDx0aXRsZSBpZD0idGl0bGU5MDQiLz4mI3hhOyAgICYjeGE7JiN4YTs8c3R5bGUgdHlwZT0idGV4dC9jc3MiPi5zdDAgeyBmaWxsOiByZ2IoMjAsIDI1NSwgNzUpOyB9IDwvc3R5bGU+JiN4YTsmI3hhOyYjeGE7PHBhdGggY2xhc3M9InN0MCIgZD0iTTQwLjE5MyA0NC44MzlhMjQuODk4IDI0Ljg5OCAwIDAgMS0xNS4xNjcgNS4xNTFjLTcuNTIgMC0xNC45NTYtMy4zNzYtMTkuODctOS44MDNDLTMuMjQgMjkuMjI1LTEuMTY4IDEzLjU0OCA5LjgxNCA1LjE0OCAxNC4zNDMgMS42NjMgMTkuNjg2IDAgMjQuOTc5IDBjNy41MiAwIDE0Ljk1OCAzLjM3NiAxOS44NyA5LjgwOSA4LjM5OCAxMC45NTkgNi4zMDUgMjYuNjM5LTQuNjU2IDM1LjAzIiBmaWxsPSIjNTliNGQ5IiBpZD0icGF0aDkwNiIvPiYjeGE7ICAgIDxwYXRoIGQ9Ik0zNS42IDI5LjM3OGE1LjM4NSA1LjM4NSAwIDAgMCA3LjU0MSAxLjAwNGMuMTIzLS4wOTQuMjE4LS4yMDguMzMtLjMwOSAyLjQwOSAxLjY5NyA0LjA4MiAyLjgxNyA1LjAyNSAzLjQ1OS4yNzktLjcyMy40NzItMS40MTcuNjctMi4xNDJhMTMwLjg1NyAxMzAuODU3IDAgMCAxLTQuMjktMy4zNTZjLjYzOS0xLjY4LjQzNy0zLjY0LS43My01LjE3MWE1LjM2IDUuMzYgMCAwIDAtNi45MzYtMS4zNzcgMjI0LjMxNyAyMjQuMzE3IDAgMCAxLTguMjkzLTcuODMzYzkuMTY1LTQuOTI5IDE1LjY3Ni00LjIwNyAxNS42NzYtNC4yMDctMS4wODctMS4zODYtMi4zMDUtMi42LTMuNjA2LTMuNjk3LTMuODY1LS41OTctOS44NjktLjUzLTE2LjcyOSAzLjExOWwtLjAwMi0uMDAzaC0uMDAxYTIwMC4zMjIgMjAwLjMyMiAwIDAgMS02Ljk4My03LjcxMkEyMy4yNjQgMjMuMjY0IDAgMCAwIDEzLjk2IDIuNWMxLjc0OSAyLjg2MiA0LjEwMiA1Ljc0OSA2Ljc1NCA4LjU2NWwuMDE3LjAxN2E0Ni4yOTMgNDYuMjkzIDAgMCAwLTYuOTQ0IDYuMDE1Yy0uMjkuMzA5LS41NjkuNjItLjg0Mi45MzFhNy41NDYgNy41NDYgMCAwIDAtNC4xMTcuMjgyQzYuNTY0IDEzLjQyNSA2Ljc0NiA5LjUwMSA3LjEwNCA3LjQ3OGMtLjk4MyAxLjAzLTEuOTAxIDIuMTEzLTIuNjkyIDMuMjY3LS41OTEgMi40MTUtLjc1OSA1Ljg5OC45ODUgMTAuMDk1YTcuNTM4IDcuNTM4IDAgMCAwLS4wMDUgOS4xNTNjLjE3Ni4yMjkuMzY0LjQ0Mi41NTkuNjQ1YTM3Ljg3IDM3Ljg3IDAgMCAwLTEuNDYgOC43NjFjLjIzNy4zMjIuMjM3LjU4Mi40NzIuODk2IDEuMTk5IDEuNTM4IDIuNzA1IDIuODM0IDQuMTYgNC4wMDgtLjE4LTIuNzUuMDE0LTYuODA2IDEuNzE0LTExLjM3MmE3LjUwNyA3LjUwNyAwIDAgMCAzLjQ4My0uNTY2Yy42NC41NjMgMS4zMSAxLjEzMiAyLjAyNSAxLjcxMWE0MS42NzIgNDEuNjcyIDAgMCAwIDcuMjg1IDQuNjQzIDQuOTc0IDQuOTc0IDAgMCAwIC45NjggMy41MTggNC45OTggNC45OTggMCAwIDAgNi45ODMuOTE5IDQuOTE4IDQuOTE4IDAgMCAwIDEuMTA4LTEuMjE2YzMuODg5Ljg2NiA3LjI4NyAxLjAxOSA5LjgwNiAxLjAxOS4zODYgMCAyLjE3Ny0yLjQzNiAzLjIwMy0zLjk0Ni0xLjUzNC4zMjEtNi4wODMuOTQ2LTEyLjMtLjg0YTQuOTUyIDQuOTUyIDAgMCAwLS44OTgtMS45OGMtMS41NzktMi4wNy00LjQ2Ni0yLjUxOC02LjYxOC0xLjEzM2E0Ni44NTMgNDYuODUzIDAgMCAxLTYuNzU4LTQuNDkgNDYuNDIyIDQ2LjQyMiAwIDAgMS0xLjM1OS0xLjExOCA3LjU3OCA3LjU3OCAwIDAgMCAuMzE4LTcuNTVjLjI4Ni0uMjg2LjU2Ny0uNTczLjg3MS0uODU3IDIuMzExLTIuMTU5IDQuNDg1LTMuODg3IDYuNTE5LTUuMjc0LS4wODItLjA3Ni0uMTU2LS4xNTYtLjIzNi0uMjMzLjA4MS4wNzUuMTU3LjE1Mi4yMzkuMjI3bC0uMDAyLjAwMWMzLjEyMSAyLjg4NiA2LjQzIDUuNjIxIDkuNTY0IDguMDY1LS44MjkgMS43NTgtLjY5OSAzLjg5OS41NjIgNS41NDd6IiBjbGFzcz0ibXNwb3J0YWxmeC1zdmctYzAxIiBmaWxsPSIjZmZmZmZmIiBpZD0icGF0aDkwOCIvPiYjeGE7ICA8L2c+JiN4YTs8L3N2Zz4=;" parent="1" vertex="1">
                    <mxGeometry x="84" y="1445" width="60" height="60" as="geometry"/>
                </mxCell>
                <mxCell id="102" value="IoTHub OP: query&#10;IoT devices detail &#10;from IoT Hub" style="shape=image;editableCssRules=\.st[02];verticalLabelPosition=bottom;labelBackgroundColor=none;verticalAlign=top;aspect=fixed;imageAspect=0;image=data:image/svg+xml,PHN2ZyB4bWxuczpkYz0iaHR0cDovL3B1cmwub3JnL2RjL2VsZW1lbnRzLzEuMS8iIHhtbG5zOmNjPSJodHRwOi8vY3JlYXRpdmVjb21tb25zLm9yZy9ucyMiIHhtbG5zOnJkZj0iaHR0cDovL3d3dy53My5vcmcvMTk5OS8wMi8yMi1yZGYtc3ludGF4LW5zIyIgeG1sbnM6c3ZnPSJodHRwOi8vd3d3LnczLm9yZy8yMDAwL3N2ZyIgeG1sbnM9Imh0dHA6Ly93d3cudzMub3JnLzIwMDAvc3ZnIiB4bWxuczpzb2RpcG9kaT0iaHR0cDovL3NvZGlwb2RpLnNvdXJjZWZvcmdlLm5ldC9EVEQvc29kaXBvZGktMC5kdGQiIHhtbG5zOmlua3NjYXBlPSJodHRwOi8vd3d3Lmlua3NjYXBlLm9yZy9uYW1lc3BhY2VzL2lua3NjYXBlIiB2aWV3Qm94PSIwLjAwMDEzNDQ2ODA3ODYxMzI4MTI1IDAgNTAuMDAwMDA3NjI5Mzk0NTMgNDkuOTkwMDAxNjc4NDY2OCIgY2xhc3M9ImZ4cy1wb3J0YWwtc3ZnIiByb2xlPSJwcmVzZW50YXRpb24iIGZvY3VzYWJsZT0iZmFsc2UiIGlkPSJGeFN5bWJvbDAtMDUxIiB2ZXJzaW9uPSIxLjEiIHNvZGlwb2RpOmRvY25hbWU9IkFwcCBTZXJ2aWNlcy5zdmciIGlua3NjYXBlOnZlcnNpb249IjAuOTIuMyAoMjQwNTU0NiwgMjAxOC0wMy0xMSkiIHdpZHRoPSI1MC4wMDAwMDc2MjkzOTQ1MyIgaGVpZ2h0PSI0OS45OTAwMDE2Nzg0NjY4Ij4mI3hhOyAgPG1ldGFkYXRhIGlkPSJtZXRhZGF0YTkxNyI+JiN4YTsgICAgPHJkZjpyZGY+JiN4YTsgICAgICA8Y2M6d29yayByZGY6YWJvdXQ9IiI+JiN4YTsgICAgICAgIDxkYzpmb3JtYXQ+aW1hZ2Uvc3ZnK3htbDwvZGM6Zm9ybWF0PiYjeGE7ICAgICAgICA8ZGM6dHlwZSByZGY6cmVzb3VyY2U9Imh0dHA6Ly9wdXJsLm9yZy9kYy9kY21pdHlwZS9TdGlsbEltYWdlIi8+JiN4YTsgICAgICAgIDxkYzp0aXRsZS8+JiN4YTsgICAgICA8L2NjOndvcms+JiN4YTsgICAgPC9yZGY6cmRmPiYjeGE7ICA8L21ldGFkYXRhPiYjeGE7ICA8ZGVmcyBpZD0iZGVmczkxNSIvPiYjeGE7ICA8c29kaXBvZGk6bmFtZWR2aWV3IHBhZ2Vjb2xvcj0iI2ZmZmZmZiIgYm9yZGVyY29sb3I9IiM2NjY2NjYiIGJvcmRlcm9wYWNpdHk9IjEiIG9iamVjdHRvbGVyYW5jZT0iMTAiIGdyaWR0b2xlcmFuY2U9IjEwIiBndWlkZXRvbGVyYW5jZT0iMTAiIGlua3NjYXBlOnBhZ2VvcGFjaXR5PSIwIiBpbmtzY2FwZTpwYWdlc2hhZG93PSIyIiBpbmtzY2FwZTp3aW5kb3ctd2lkdGg9IjY0MCIgaW5rc2NhcGU6d2luZG93LWhlaWdodD0iNDgwIiBpZD0ibmFtZWR2aWV3OTEzIiBzaG93Z3JpZD0iZmFsc2UiIGlua3NjYXBlOnpvb209IjEzLjQiIGlua3NjYXBlOmN4PSIyNSIgaW5rc2NhcGU6Y3k9IjI1IiBpbmtzY2FwZTp3aW5kb3cteD0iMCIgaW5rc2NhcGU6d2luZG93LXk9IjAiIGlua3NjYXBlOndpbmRvdy1tYXhpbWl6ZWQ9IjEiIGlua3NjYXBlOmN1cnJlbnQtbGF5ZXI9IkZ4U3ltYm9sMC0wNTEiLz4mI3hhOyAgPGcgaWQ9Imc5MTAiPiYjeGE7ICAgIDx0aXRsZSBpZD0idGl0bGU5MDQiLz4mI3hhOyAgICYjeGE7JiN4YTs8c3R5bGUgdHlwZT0idGV4dC9jc3MiPi5zdDAgeyBmaWxsOiByZ2IoNzcsIDc3LCA3Nyk7IH0gPC9zdHlsZT4mI3hhOyYjeGE7JiN4YTs8cGF0aCBjbGFzcz0ic3QwIiBkPSJNNDAuMTkzIDQ0LjgzOWEyNC44OTggMjQuODk4IDAgMCAxLTE1LjE2NyA1LjE1MWMtNy41MiAwLTE0Ljk1Ni0zLjM3Ni0xOS44Ny05LjgwM0MtMy4yNCAyOS4yMjUtMS4xNjggMTMuNTQ4IDkuODE0IDUuMTQ4IDE0LjM0MyAxLjY2MyAxOS42ODYgMCAyNC45NzkgMGM3LjUyIDAgMTQuOTU4IDMuMzc2IDE5Ljg3IDkuODA5IDguMzk4IDEwLjk1OSA2LjMwNSAyNi42MzktNC42NTYgMzUuMDMiIGZpbGw9IiM1OWI0ZDkiIGlkPSJwYXRoOTA2Ii8+JiN4YTsgICAgPHBhdGggZD0iTTM1LjYgMjkuMzc4YTUuMzg1IDUuMzg1IDAgMCAwIDcuNTQxIDEuMDA0Yy4xMjMtLjA5NC4yMTgtLjIwOC4zMy0uMzA5IDIuNDA5IDEuNjk3IDQuMDgyIDIuODE3IDUuMDI1IDMuNDU5LjI3OS0uNzIzLjQ3Mi0xLjQxNy42Ny0yLjE0MmExMzAuODU3IDEzMC44NTcgMCAwIDEtNC4yOS0zLjM1NmMuNjM5LTEuNjguNDM3LTMuNjQtLjczLTUuMTcxYTUuMzYgNS4zNiAwIDAgMC02LjkzNi0xLjM3NyAyMjQuMzE3IDIyNC4zMTcgMCAwIDEtOC4yOTMtNy44MzNjOS4xNjUtNC45MjkgMTUuNjc2LTQuMjA3IDE1LjY3Ni00LjIwNy0xLjA4Ny0xLjM4Ni0yLjMwNS0yLjYtMy42MDYtMy42OTctMy44NjUtLjU5Ny05Ljg2OS0uNTMtMTYuNzI5IDMuMTE5bC0uMDAyLS4wMDNoLS4wMDFhMjAwLjMyMiAyMDAuMzIyIDAgMCAxLTYuOTgzLTcuNzEyQTIzLjI2NCAyMy4yNjQgMCAwIDAgMTMuOTYgMi41YzEuNzQ5IDIuODYyIDQuMTAyIDUuNzQ5IDYuNzU0IDguNTY1bC4wMTcuMDE3YTQ2LjI5MyA0Ni4yOTMgMCAwIDAtNi45NDQgNi4wMTVjLS4yOS4zMDktLjU2OS42Mi0uODQyLjkzMWE3LjU0NiA3LjU0NiAwIDAgMC00LjExNy4yODJDNi41NjQgMTMuNDI1IDYuNzQ2IDkuNTAxIDcuMTA0IDcuNDc4Yy0uOTgzIDEuMDMtMS45MDEgMi4xMTMtMi42OTIgMy4yNjctLjU5MSAyLjQxNS0uNzU5IDUuODk4Ljk4NSAxMC4wOTVhNy41MzggNy41MzggMCAwIDAtLjAwNSA5LjE1M2MuMTc2LjIyOS4zNjQuNDQyLjU1OS42NDVhMzcuODcgMzcuODcgMCAwIDAtMS40NiA4Ljc2MWMuMjM3LjMyMi4yMzcuNTgyLjQ3Mi44OTYgMS4xOTkgMS41MzggMi43MDUgMi44MzQgNC4xNiA0LjAwOC0uMTgtMi43NS4wMTQtNi44MDYgMS43MTQtMTEuMzcyYTcuNTA3IDcuNTA3IDAgMCAwIDMuNDgzLS41NjZjLjY0LjU2MyAxLjMxIDEuMTMyIDIuMDI1IDEuNzExYTQxLjY3MiA0MS42NzIgMCAwIDAgNy4yODUgNC42NDMgNC45NzQgNC45NzQgMCAwIDAgLjk2OCAzLjUxOCA0Ljk5OCA0Ljk5OCAwIDAgMCA2Ljk4My45MTkgNC45MTggNC45MTggMCAwIDAgMS4xMDgtMS4yMTZjMy44ODkuODY2IDcuMjg3IDEuMDE5IDkuODA2IDEuMDE5LjM4NiAwIDIuMTc3LTIuNDM2IDMuMjAzLTMuOTQ2LTEuNTM0LjMyMS02LjA4My45NDYtMTIuMy0uODRhNC45NTIgNC45NTIgMCAwIDAtLjg5OC0xLjk4Yy0xLjU3OS0yLjA3LTQuNDY2LTIuNTE4LTYuNjE4LTEuMTMzYTQ2Ljg1MyA0Ni44NTMgMCAwIDEtNi43NTgtNC40OSA0Ni40MjIgNDYuNDIyIDAgMCAxLTEuMzU5LTEuMTE4IDcuNTc4IDcuNTc4IDAgMCAwIC4zMTgtNy41NWMuMjg2LS4yODYuNTY3LS41NzMuODcxLS44NTcgMi4zMTEtMi4xNTkgNC40ODUtMy44ODcgNi41MTktNS4yNzQtLjA4Mi0uMDc2LS4xNTYtLjE1Ni0uMjM2LS4yMzMuMDgxLjA3NS4xNTcuMTUyLjIzOS4yMjdsLS4wMDIuMDAxYzMuMTIxIDIuODg2IDYuNDMgNS42MjEgOS41NjQgOC4wNjUtLjgyOSAxLjc1OC0uNjk5IDMuODk5LjU2MiA1LjU0N3oiIGNsYXNzPSJtc3BvcnRhbGZ4LXN2Zy1jMDEiIGZpbGw9IiNmZmZmZmYiIGlkPSJwYXRoOTA4Ii8+JiN4YTsgIDwvZz4mI3hhOzwvc3ZnPg==;fontSize=12;fontColor=#FFFFFF;" parent="1" vertex="1">
                    <mxGeometry x="86" y="1324" width="60" height="60" as="geometry"/>
                </mxCell>
                <mxCell id="106" value="" style="group;fontSize=12;fontColor=#FFFFFF;" parent="1" vertex="1" connectable="0">
                    <mxGeometry x="252" y="1459" width="65" height="52" as="geometry"/>
                </mxCell>
                <mxCell id="107" value="UI: Store models,&lt;br&gt;&amp;nbsp;twins and IoT devices&lt;br&gt;&amp;nbsp;info in frontend" style="aspect=fixed;html=1;points=[];align=center;image;fontSize=12;image=img/lib/azure2/general/Browser.svg;" parent="106" vertex="1">
                    <mxGeometry width="65" height="52" as="geometry"/>
                </mxCell>
                <mxCell id="108" value="" style="html=1;verticalLabelPosition=bottom;align=center;labelBackgroundColor=#ffffff;verticalAlign=top;strokeWidth=2;strokeColor=#0080F0;shadow=0;dashed=0;shape=mxgraph.ios7.icons.user;" parent="106" vertex="1">
                    <mxGeometry x="17.5" y="20" width="30" height="30" as="geometry"/>
                </mxCell>
                <mxCell id="ybm-wKLRLlGC9EmnOlg3-108" value="" style="ellipse;whiteSpace=wrap;html=1;aspect=fixed;" parent="1" vertex="1">
                    <mxGeometry x="278" y="1571" width="20" height="20" as="geometry"/>
                </mxCell>
                <mxCell id="ybm-wKLRLlGC9EmnOlg3-109" value="Zero Records" style="edgeStyle=orthogonalEdgeStyle;rounded=0;orthogonalLoop=1;jettySize=auto;html=1;exitX=0;exitY=0.5;exitDx=0;exitDy=0;entryX=1;entryY=0.5;entryDx=0;entryDy=0;labelBackgroundColor=#FFFF33;endArrow=none;endFill=0;fontSize=12;fontColor=#000000;" parent="1" source="ybm-wKLRLlGC9EmnOlg3-132" target="ybm-wKLRLlGC9EmnOlg3-108" edge="1">
                    <mxGeometry relative="1" as="geometry">
                        <mxPoint x="480" y="1532" as="sourcePoint"/>
                    </mxGeometry>
                </mxCell>
                <mxCell id="ybm-wKLRLlGC9EmnOlg3-111" value="Models&amp;amp;Twins&lt;br style=&quot;font-size: 12px;&quot;&gt;Records" style="edgeStyle=orthogonalEdgeStyle;rounded=0;orthogonalLoop=1;jettySize=auto;html=1;exitX=0;exitY=0.5;exitDx=0;exitDy=0;labelBackgroundColor=#FFFF33;endArrow=none;endFill=0;fontSize=12;fontColor=#000000;entryX=1;entryY=0.5;entryDx=0;entryDy=0;spacingTop=8;" parent="1" source="ybm-wKLRLlGC9EmnOlg3-112" target="ybm-wKLRLlGC9EmnOlg3-108" edge="1">
                    <mxGeometry relative="1" as="geometry">
                        <mxPoint x="338.5999450683594" y="1580.8000183105469" as="targetPoint"/>
                    </mxGeometry>
                </mxCell>
                <mxCell id="ybm-wKLRLlGC9EmnOlg3-112" value="" style="ellipse;whiteSpace=wrap;html=1;aspect=fixed;fontSize=16;fontColor=#000000;" parent="1" vertex="1">
                    <mxGeometry x="480" y="1613" width="20" height="20" as="geometry"/>
                </mxCell>
                <mxCell id="ybm-wKLRLlGC9EmnOlg3-116" value="" style="group" parent="1" vertex="1" connectable="0">
                    <mxGeometry x="463" y="1646" width="65" height="52" as="geometry"/>
                </mxCell>
                <mxCell id="ybm-wKLRLlGC9EmnOlg3-117" value="UI: Show device management main UI" style="aspect=fixed;html=1;points=[];align=center;image;fontSize=12;image=img/lib/azure2/general/Browser.svg;" parent="ybm-wKLRLlGC9EmnOlg3-116" vertex="1">
                    <mxGeometry width="65" height="52" as="geometry"/>
                </mxCell>
                <mxCell id="ybm-wKLRLlGC9EmnOlg3-118" value="" style="html=1;verticalLabelPosition=bottom;align=center;labelBackgroundColor=#ffffff;verticalAlign=top;strokeWidth=2;strokeColor=#0080F0;shadow=0;dashed=0;shape=mxgraph.ios7.icons.user;" parent="ybm-wKLRLlGC9EmnOlg3-116" vertex="1">
                    <mxGeometry x="17.5" y="20" width="30" height="30" as="geometry"/>
                </mxCell>
                <mxCell id="ybm-wKLRLlGC9EmnOlg3-124" value="" style="group" parent="1" vertex="1" connectable="0">
                    <mxGeometry x="378" y="935" width="65" height="52" as="geometry"/>
                </mxCell>
                <mxCell id="ybm-wKLRLlGC9EmnOlg3-122" value="UI: Show models dialog and &lt;br&gt;prompt user to import models" style="aspect=fixed;html=1;points=[];align=center;image;fontSize=12;image=img/lib/azure2/general/Browser.svg;" parent="ybm-wKLRLlGC9EmnOlg3-124" vertex="1">
                    <mxGeometry width="65" height="52" as="geometry"/>
                </mxCell>
                <mxCell id="ybm-wKLRLlGC9EmnOlg3-123" value="" style="html=1;verticalLabelPosition=bottom;align=center;labelBackgroundColor=#ffffff;verticalAlign=top;strokeWidth=2;strokeColor=#0080F0;shadow=0;dashed=0;shape=mxgraph.ios7.icons.user;" parent="ybm-wKLRLlGC9EmnOlg3-124" vertex="1">
                    <mxGeometry x="17.5" y="20" width="30" height="30" as="geometry"/>
                </mxCell>
                <mxCell id="ybm-wKLRLlGC9EmnOlg3-125" value="" style="rounded=1;whiteSpace=wrap;html=1;arcSize=50;fontSize=18;fontColor=#FFFFFF;" parent="1" vertex="1">
                    <mxGeometry x="373" y="1033" width="205" height="20" as="geometry"/>
                </mxCell>
                <mxCell id="ybm-wKLRLlGC9EmnOlg3-126" value="" style="group;fontSize=18;fontColor=#FFFFFF;" parent="1" vertex="1" connectable="0">
                    <mxGeometry x="551" y="935" width="65" height="52" as="geometry"/>
                </mxCell>
                <mxCell id="ybm-wKLRLlGC9EmnOlg3-127" value="UI: Another option is a GUI tool&lt;br&gt;&amp;nbsp;to help user create DTDL model" style="aspect=fixed;html=1;points=[];align=center;image;fontSize=12;image=img/lib/azure2/general/Browser.svg;" parent="ybm-wKLRLlGC9EmnOlg3-126" vertex="1">
                    <mxGeometry width="65" height="52" as="geometry"/>
                </mxCell>
                <mxCell id="ybm-wKLRLlGC9EmnOlg3-128" value="" style="html=1;verticalLabelPosition=bottom;align=center;labelBackgroundColor=#ffffff;verticalAlign=top;strokeWidth=2;strokeColor=#0080F0;shadow=0;dashed=0;shape=mxgraph.ios7.icons.user;" parent="ybm-wKLRLlGC9EmnOlg3-126" vertex="1">
                    <mxGeometry x="17.5" y="20" width="30" height="30" as="geometry"/>
                </mxCell>
                <mxCell id="ybm-wKLRLlGC9EmnOlg3-129" value="" style="group" parent="1" vertex="1" connectable="0">
                    <mxGeometry x="499" y="1422" width="65" height="52" as="geometry"/>
                </mxCell>
                <mxCell id="ybm-wKLRLlGC9EmnOlg3-130" value="UI: Show models dialog and &lt;br&gt;prompt user to import models" style="aspect=fixed;html=1;points=[];align=center;image;fontSize=12;image=img/lib/azure2/general/Browser.svg;" parent="ybm-wKLRLlGC9EmnOlg3-129" vertex="1">
                    <mxGeometry width="65" height="52" as="geometry"/>
                </mxCell>
                <mxCell id="ybm-wKLRLlGC9EmnOlg3-131" value="" style="html=1;verticalLabelPosition=bottom;align=center;labelBackgroundColor=#ffffff;verticalAlign=top;strokeWidth=2;strokeColor=#0080F0;shadow=0;dashed=0;shape=mxgraph.ios7.icons.user;" parent="ybm-wKLRLlGC9EmnOlg3-129" vertex="1">
                    <mxGeometry x="17.5" y="20" width="30" height="30" as="geometry"/>
                </mxCell>
                <mxCell id="ybm-wKLRLlGC9EmnOlg3-132" value="" style="rounded=1;whiteSpace=wrap;html=1;arcSize=50;fontSize=18;fontColor=#FFFFFF;" parent="1" vertex="1">
                    <mxGeometry x="480" y="1522" width="205" height="20" as="geometry"/>
                </mxCell>
                <mxCell id="ybm-wKLRLlGC9EmnOlg3-133" value="" style="group;fontSize=18;fontColor=#FFFFFF;" parent="1" vertex="1" connectable="0">
                    <mxGeometry x="672" y="1422" width="65" height="52" as="geometry"/>
                </mxCell>
                <mxCell id="ybm-wKLRLlGC9EmnOlg3-134" value="UI: Another option is a GUI tool&lt;br&gt;&amp;nbsp;to help user create DTDL model" style="aspect=fixed;html=1;points=[];align=center;image;fontSize=12;image=img/lib/azure2/general/Browser.svg;" parent="ybm-wKLRLlGC9EmnOlg3-133" vertex="1">
                    <mxGeometry width="65" height="52" as="geometry"/>
                </mxCell>
                <mxCell id="ybm-wKLRLlGC9EmnOlg3-135" value="" style="html=1;verticalLabelPosition=bottom;align=center;labelBackgroundColor=#ffffff;verticalAlign=top;strokeWidth=2;strokeColor=#0080F0;shadow=0;dashed=0;shape=mxgraph.ios7.icons.user;" parent="ybm-wKLRLlGC9EmnOlg3-133" vertex="1">
                    <mxGeometry x="17.5" y="20" width="30" height="30" as="geometry"/>
                </mxCell>
                <mxCell id="WNnFENoRMtN_BCBHwYKc-108" value="1.3. Start Event Log Module" style="shape=process;whiteSpace=wrap;html=1;backgroundOutline=1;fontColor=#ffffff;strokeColor=#A50040;fillColor=#d80073;" parent="1" vertex="1">
                    <mxGeometry x="-588" y="1959" width="120" height="60" as="geometry"/>
                </mxCell>
                <mxCell id="WNnFENoRMtN_BCBHwYKc-115" style="edgeStyle=orthogonalEdgeStyle;rounded=0;orthogonalLoop=1;jettySize=auto;html=1;exitX=1;exitY=0.5;exitDx=0;exitDy=0;entryX=0;entryY=0.5;entryDx=0;entryDy=0;labelBackgroundColor=#FFFF33;endArrow=none;endFill=0;fontSize=18;fontColor=#FFFFFF;" parent="1" source="WNnFENoRMtN_BCBHwYKc-109" target="WNnFENoRMtN_BCBHwYKc-114" edge="1">
                    <mxGeometry relative="1" as="geometry"/>
                </mxCell>
                <mxCell id="WNnFENoRMtN_BCBHwYKc-109" value="" style="ellipse;whiteSpace=wrap;html=1;aspect=fixed;fontSize=18;fontColor=#FFFFFF;" parent="1" vertex="1">
                    <mxGeometry x="-385" y="1979" width="20" height="20" as="geometry"/>
                </mxCell>
                <mxCell id="WNnFENoRMtN_BCBHwYKc-110" value="" style="group" parent="1" vertex="1" connectable="0">
                    <mxGeometry x="-407.5" y="1880" width="65" height="52" as="geometry"/>
                </mxCell>
                <mxCell id="WNnFENoRMtN_BCBHwYKc-111" value="UI: Start Event Logs&amp;nbsp;Model" style="aspect=fixed;html=1;points=[];align=center;image;fontSize=12;image=img/lib/azure2/general/Browser.svg;" parent="WNnFENoRMtN_BCBHwYKc-110" vertex="1">
                    <mxGeometry width="65" height="52" as="geometry"/>
                </mxCell>
                <mxCell id="WNnFENoRMtN_BCBHwYKc-112" value="" style="html=1;verticalLabelPosition=bottom;align=center;labelBackgroundColor=#ffffff;verticalAlign=top;strokeWidth=2;strokeColor=#0080F0;shadow=0;dashed=0;shape=mxgraph.ios7.icons.user;" parent="WNnFENoRMtN_BCBHwYKc-110" vertex="1">
                    <mxGeometry x="17.5" y="20" width="30" height="30" as="geometry"/>
                </mxCell>
                <mxCell id="WNnFENoRMtN_BCBHwYKc-113" value="Task Master: Fetch&#10; Event Logs Information" style="shape=image;editableCssRules=\.st[02];verticalLabelPosition=bottom;labelBackgroundColor=none;verticalAlign=top;aspect=fixed;imageAspect=0;image=data:image/svg+xml,PHN2ZyB4bWxuczpkYz0iaHR0cDovL3B1cmwub3JnL2RjL2VsZW1lbnRzLzEuMS8iIHhtbG5zOmNjPSJodHRwOi8vY3JlYXRpdmVjb21tb25zLm9yZy9ucyMiIHhtbG5zOnJkZj0iaHR0cDovL3d3dy53My5vcmcvMTk5OS8wMi8yMi1yZGYtc3ludGF4LW5zIyIgeG1sbnM6c3ZnPSJodHRwOi8vd3d3LnczLm9yZy8yMDAwL3N2ZyIgeG1sbnM9Imh0dHA6Ly93d3cudzMub3JnLzIwMDAvc3ZnIiB4bWxuczpzb2RpcG9kaT0iaHR0cDovL3NvZGlwb2RpLnNvdXJjZWZvcmdlLm5ldC9EVEQvc29kaXBvZGktMC5kdGQiIHhtbG5zOmlua3NjYXBlPSJodHRwOi8vd3d3Lmlua3NjYXBlLm9yZy9uYW1lc3BhY2VzL2lua3NjYXBlIiB2aWV3Qm94PSIwLjAwMDEzNDQ2ODA3ODYxMzI4MTI1IDAgNTAuMDAwMDA3NjI5Mzk0NTMgNDkuOTkwMDAxNjc4NDY2OCIgY2xhc3M9ImZ4cy1wb3J0YWwtc3ZnIiByb2xlPSJwcmVzZW50YXRpb24iIGZvY3VzYWJsZT0iZmFsc2UiIGlkPSJGeFN5bWJvbDAtMDUxIiB2ZXJzaW9uPSIxLjEiIHNvZGlwb2RpOmRvY25hbWU9IkFwcCBTZXJ2aWNlcy5zdmciIGlua3NjYXBlOnZlcnNpb249IjAuOTIuMyAoMjQwNTU0NiwgMjAxOC0wMy0xMSkiIHdpZHRoPSI1MC4wMDAwMDc2MjkzOTQ1MyIgaGVpZ2h0PSI0OS45OTAwMDE2Nzg0NjY4Ij4mI3hhOyAgPG1ldGFkYXRhIGlkPSJtZXRhZGF0YTkxNyI+JiN4YTsgICAgPHJkZjpyZGY+JiN4YTsgICAgICA8Y2M6d29yayByZGY6YWJvdXQ9IiI+JiN4YTsgICAgICAgIDxkYzpmb3JtYXQ+aW1hZ2Uvc3ZnK3htbDwvZGM6Zm9ybWF0PiYjeGE7ICAgICAgICA8ZGM6dHlwZSByZGY6cmVzb3VyY2U9Imh0dHA6Ly9wdXJsLm9yZy9kYy9kY21pdHlwZS9TdGlsbEltYWdlIi8+JiN4YTsgICAgICAgIDxkYzp0aXRsZS8+JiN4YTsgICAgICA8L2NjOndvcms+JiN4YTsgICAgPC9yZGY6cmRmPiYjeGE7ICA8L21ldGFkYXRhPiYjeGE7ICA8ZGVmcyBpZD0iZGVmczkxNSIvPiYjeGE7ICA8c29kaXBvZGk6bmFtZWR2aWV3IHBhZ2Vjb2xvcj0iI2ZmZmZmZiIgYm9yZGVyY29sb3I9IiM2NjY2NjYiIGJvcmRlcm9wYWNpdHk9IjEiIG9iamVjdHRvbGVyYW5jZT0iMTAiIGdyaWR0b2xlcmFuY2U9IjEwIiBndWlkZXRvbGVyYW5jZT0iMTAiIGlua3NjYXBlOnBhZ2VvcGFjaXR5PSIwIiBpbmtzY2FwZTpwYWdlc2hhZG93PSIyIiBpbmtzY2FwZTp3aW5kb3ctd2lkdGg9IjY0MCIgaW5rc2NhcGU6d2luZG93LWhlaWdodD0iNDgwIiBpZD0ibmFtZWR2aWV3OTEzIiBzaG93Z3JpZD0iZmFsc2UiIGlua3NjYXBlOnpvb209IjEzLjQiIGlua3NjYXBlOmN4PSIyNSIgaW5rc2NhcGU6Y3k9IjI1IiBpbmtzY2FwZTp3aW5kb3cteD0iMCIgaW5rc2NhcGU6d2luZG93LXk9IjAiIGlua3NjYXBlOndpbmRvdy1tYXhpbWl6ZWQ9IjEiIGlua3NjYXBlOmN1cnJlbnQtbGF5ZXI9IkZ4U3ltYm9sMC0wNTEiLz4mI3hhOyAgPGcgaWQ9Imc5MTAiPiYjeGE7ICAgIDx0aXRsZSBpZD0idGl0bGU5MDQiLz4mI3hhOyAgICYjeGE7JiN4YTs8c3R5bGUgdHlwZT0idGV4dC9jc3MiPi5zdDAgeyBmaWxsOiByZ2IoMjU1LCAwLCAxMjgpOyB9IDwvc3R5bGU+JiN4YTsmI3hhOyYjeGE7PHBhdGggY2xhc3M9InN0MCIgZD0iTTQwLjE5MyA0NC44MzlhMjQuODk4IDI0Ljg5OCAwIDAgMS0xNS4xNjcgNS4xNTFjLTcuNTIgMC0xNC45NTYtMy4zNzYtMTkuODctOS44MDNDLTMuMjQgMjkuMjI1LTEuMTY4IDEzLjU0OCA5LjgxNCA1LjE0OCAxNC4zNDMgMS42NjMgMTkuNjg2IDAgMjQuOTc5IDBjNy41MiAwIDE0Ljk1OCAzLjM3NiAxOS44NyA5LjgwOSA4LjM5OCAxMC45NTkgNi4zMDUgMjYuNjM5LTQuNjU2IDM1LjAzIiBmaWxsPSIjNTliNGQ5IiBpZD0icGF0aDkwNiIvPiYjeGE7ICAgIDxwYXRoIGQ9Ik0zNS42IDI5LjM3OGE1LjM4NSA1LjM4NSAwIDAgMCA3LjU0MSAxLjAwNGMuMTIzLS4wOTQuMjE4LS4yMDguMzMtLjMwOSAyLjQwOSAxLjY5NyA0LjA4MiAyLjgxNyA1LjAyNSAzLjQ1OS4yNzktLjcyMy40NzItMS40MTcuNjctMi4xNDJhMTMwLjg1NyAxMzAuODU3IDAgMCAxLTQuMjktMy4zNTZjLjYzOS0xLjY4LjQzNy0zLjY0LS43My01LjE3MWE1LjM2IDUuMzYgMCAwIDAtNi45MzYtMS4zNzcgMjI0LjMxNyAyMjQuMzE3IDAgMCAxLTguMjkzLTcuODMzYzkuMTY1LTQuOTI5IDE1LjY3Ni00LjIwNyAxNS42NzYtNC4yMDctMS4wODctMS4zODYtMi4zMDUtMi42LTMuNjA2LTMuNjk3LTMuODY1LS41OTctOS44NjktLjUzLTE2LjcyOSAzLjExOWwtLjAwMi0uMDAzaC0uMDAxYTIwMC4zMjIgMjAwLjMyMiAwIDAgMS02Ljk4My03LjcxMkEyMy4yNjQgMjMuMjY0IDAgMCAwIDEzLjk2IDIuNWMxLjc0OSAyLjg2MiA0LjEwMiA1Ljc0OSA2Ljc1NCA4LjU2NWwuMDE3LjAxN2E0Ni4yOTMgNDYuMjkzIDAgMCAwLTYuOTQ0IDYuMDE1Yy0uMjkuMzA5LS41NjkuNjItLjg0Mi45MzFhNy41NDYgNy41NDYgMCAwIDAtNC4xMTcuMjgyQzYuNTY0IDEzLjQyNSA2Ljc0NiA5LjUwMSA3LjEwNCA3LjQ3OGMtLjk4MyAxLjAzLTEuOTAxIDIuMTEzLTIuNjkyIDMuMjY3LS41OTEgMi40MTUtLjc1OSA1Ljg5OC45ODUgMTAuMDk1YTcuNTM4IDcuNTM4IDAgMCAwLS4wMDUgOS4xNTNjLjE3Ni4yMjkuMzY0LjQ0Mi41NTkuNjQ1YTM3Ljg3IDM3Ljg3IDAgMCAwLTEuNDYgOC43NjFjLjIzNy4zMjIuMjM3LjU4Mi40NzIuODk2IDEuMTk5IDEuNTM4IDIuNzA1IDIuODM0IDQuMTYgNC4wMDgtLjE4LTIuNzUuMDE0LTYuODA2IDEuNzE0LTExLjM3MmE3LjUwNyA3LjUwNyAwIDAgMCAzLjQ4My0uNTY2Yy42NC41NjMgMS4zMSAxLjEzMiAyLjAyNSAxLjcxMWE0MS42NzIgNDEuNjcyIDAgMCAwIDcuMjg1IDQuNjQzIDQuOTc0IDQuOTc0IDAgMCAwIC45NjggMy41MTggNC45OTggNC45OTggMCAwIDAgNi45ODMuOTE5IDQuOTE4IDQuOTE4IDAgMCAwIDEuMTA4LTEuMjE2YzMuODg5Ljg2NiA3LjI4NyAxLjAxOSA5LjgwNiAxLjAxOS4zODYgMCAyLjE3Ny0yLjQzNiAzLjIwMy0zLjk0Ni0xLjUzNC4zMjEtNi4wODMuOTQ2LTEyLjMtLjg0YTQuOTUyIDQuOTUyIDAgMCAwLS44OTgtMS45OGMtMS41NzktMi4wNy00LjQ2Ni0yLjUxOC02LjYxOC0xLjEzM2E0Ni44NTMgNDYuODUzIDAgMCAxLTYuNzU4LTQuNDkgNDYuNDIyIDQ2LjQyMiAwIDAgMS0xLjM1OS0xLjExOCA3LjU3OCA3LjU3OCAwIDAgMCAuMzE4LTcuNTVjLjI4Ni0uMjg2LjU2Ny0uNTczLjg3MS0uODU3IDIuMzExLTIuMTU5IDQuNDg1LTMuODg3IDYuNTE5LTUuMjc0LS4wODItLjA3Ni0uMTU2LS4xNTYtLjIzNi0uMjMzLjA4MS4wNzUuMTU3LjE1Mi4yMzkuMjI3bC0uMDAyLjAwMWMzLjEyMSAyLjg4NiA2LjQzIDUuNjIxIDkuNTY0IDguMDY1LS44MjkgMS43NTgtLjY5OSAzLjg5OS41NjIgNS41NDd6IiBjbGFzcz0ibXNwb3J0YWxmeC1zdmctYzAxIiBmaWxsPSIjZmZmZmZmIiBpZD0icGF0aDkwOCIvPiYjeGE7ICA8L2c+JiN4YTs8L3N2Zz4=;fontSize=12;fontColor=#FFFFFF;" parent="1" vertex="1">
                    <mxGeometry x="-240" y="1880" width="60" height="60" as="geometry"/>
                </mxCell>
                <mxCell id="WNnFENoRMtN_BCBHwYKc-118" style="edgeStyle=orthogonalEdgeStyle;rounded=0;orthogonalLoop=1;jettySize=auto;html=1;exitX=1;exitY=0.5;exitDx=0;exitDy=0;entryX=0;entryY=0.5;entryDx=0;entryDy=0;labelBackgroundColor=#FFFF33;endArrow=none;endFill=0;fontSize=18;fontColor=#FFFFFF;" parent="1" source="WNnFENoRMtN_BCBHwYKc-114" target="WNnFENoRMtN_BCBHwYKc-117" edge="1">
                    <mxGeometry relative="1" as="geometry"/>
                </mxCell>
                <mxCell id="WNnFENoRMtN_BCBHwYKc-114" value="" style="ellipse;whiteSpace=wrap;html=1;aspect=fixed;fontSize=18;fontColor=#FFFFFF;" parent="1" vertex="1">
                    <mxGeometry x="-220" y="1979" width="20" height="20" as="geometry"/>
                </mxCell>
                <mxCell id="WNnFENoRMtN_BCBHwYKc-116" value="DB OP:&#10;query event Logs" style="shape=image;editableCssRules=\.st[02];verticalLabelPosition=bottom;labelBackgroundColor=none;verticalAlign=top;aspect=fixed;imageAspect=0;image=data:image/svg+xml,PHN2ZyB4bWxuczpkYz0iaHR0cDovL3B1cmwub3JnL2RjL2VsZW1lbnRzLzEuMS8iIHhtbG5zOmNjPSJodHRwOi8vY3JlYXRpdmVjb21tb25zLm9yZy9ucyMiIHhtbG5zOnJkZj0iaHR0cDovL3d3dy53My5vcmcvMTk5OS8wMi8yMi1yZGYtc3ludGF4LW5zIyIgeG1sbnM6c3ZnPSJodHRwOi8vd3d3LnczLm9yZy8yMDAwL3N2ZyIgeG1sbnM9Imh0dHA6Ly93d3cudzMub3JnLzIwMDAvc3ZnIiB4bWxuczpzb2RpcG9kaT0iaHR0cDovL3NvZGlwb2RpLnNvdXJjZWZvcmdlLm5ldC9EVEQvc29kaXBvZGktMC5kdGQiIHhtbG5zOmlua3NjYXBlPSJodHRwOi8vd3d3Lmlua3NjYXBlLm9yZy9uYW1lc3BhY2VzL2lua3NjYXBlIiB2aWV3Qm94PSIwLjAwMDEzNDQ2ODA3ODYxMzI4MTI1IDAgNTAuMDAwMDA3NjI5Mzk0NTMgNDkuOTkwMDAxNjc4NDY2OCIgY2xhc3M9ImZ4cy1wb3J0YWwtc3ZnIiByb2xlPSJwcmVzZW50YXRpb24iIGZvY3VzYWJsZT0iZmFsc2UiIGlkPSJGeFN5bWJvbDAtMDUxIiB2ZXJzaW9uPSIxLjEiIHNvZGlwb2RpOmRvY25hbWU9IkFwcCBTZXJ2aWNlcy5zdmciIGlua3NjYXBlOnZlcnNpb249IjAuOTIuMyAoMjQwNTU0NiwgMjAxOC0wMy0xMSkiIHdpZHRoPSI1MC4wMDAwMDc2MjkzOTQ1MyIgaGVpZ2h0PSI0OS45OTAwMDE2Nzg0NjY4Ij4mI3hhOyAgPG1ldGFkYXRhIGlkPSJtZXRhZGF0YTkxNyI+JiN4YTsgICAgPHJkZjpyZGY+JiN4YTsgICAgICA8Y2M6d29yayByZGY6YWJvdXQ9IiI+JiN4YTsgICAgICAgIDxkYzpmb3JtYXQ+aW1hZ2Uvc3ZnK3htbDwvZGM6Zm9ybWF0PiYjeGE7ICAgICAgICA8ZGM6dHlwZSByZGY6cmVzb3VyY2U9Imh0dHA6Ly9wdXJsLm9yZy9kYy9kY21pdHlwZS9TdGlsbEltYWdlIi8+JiN4YTsgICAgICAgIDxkYzp0aXRsZS8+JiN4YTsgICAgICA8L2NjOndvcms+JiN4YTsgICAgPC9yZGY6cmRmPiYjeGE7ICA8L21ldGFkYXRhPiYjeGE7ICA8ZGVmcyBpZD0iZGVmczkxNSIvPiYjeGE7ICA8c29kaXBvZGk6bmFtZWR2aWV3IHBhZ2Vjb2xvcj0iI2ZmZmZmZiIgYm9yZGVyY29sb3I9IiM2NjY2NjYiIGJvcmRlcm9wYWNpdHk9IjEiIG9iamVjdHRvbGVyYW5jZT0iMTAiIGdyaWR0b2xlcmFuY2U9IjEwIiBndWlkZXRvbGVyYW5jZT0iMTAiIGlua3NjYXBlOnBhZ2VvcGFjaXR5PSIwIiBpbmtzY2FwZTpwYWdlc2hhZG93PSIyIiBpbmtzY2FwZTp3aW5kb3ctd2lkdGg9IjY0MCIgaW5rc2NhcGU6d2luZG93LWhlaWdodD0iNDgwIiBpZD0ibmFtZWR2aWV3OTEzIiBzaG93Z3JpZD0iZmFsc2UiIGlua3NjYXBlOnpvb209IjEzLjQiIGlua3NjYXBlOmN4PSIyNSIgaW5rc2NhcGU6Y3k9IjI1IiBpbmtzY2FwZTp3aW5kb3cteD0iMCIgaW5rc2NhcGU6d2luZG93LXk9IjAiIGlua3NjYXBlOndpbmRvdy1tYXhpbWl6ZWQ9IjEiIGlua3NjYXBlOmN1cnJlbnQtbGF5ZXI9IkZ4U3ltYm9sMC0wNTEiLz4mI3hhOyAgPGcgaWQ9Imc5MTAiPiYjeGE7ICAgIDx0aXRsZSBpZD0idGl0bGU5MDQiLz4mI3hhOyAgICYjeGE7JiN4YTs8c3R5bGUgdHlwZT0idGV4dC9jc3MiPi5zdDAgeyBmaWxsOiByZ2IoMjU1LCAxMjgsIDApOyB9IDwvc3R5bGU+JiN4YTsmI3hhOyYjeGE7PHBhdGggY2xhc3M9InN0MCIgZD0iTTQwLjE5MyA0NC44MzlhMjQuODk4IDI0Ljg5OCAwIDAgMS0xNS4xNjcgNS4xNTFjLTcuNTIgMC0xNC45NTYtMy4zNzYtMTkuODctOS44MDNDLTMuMjQgMjkuMjI1LTEuMTY4IDEzLjU0OCA5LjgxNCA1LjE0OCAxNC4zNDMgMS42NjMgMTkuNjg2IDAgMjQuOTc5IDBjNy41MiAwIDE0Ljk1OCAzLjM3NiAxOS44NyA5LjgwOSA4LjM5OCAxMC45NTkgNi4zMDUgMjYuNjM5LTQuNjU2IDM1LjAzIiBmaWxsPSIjNTliNGQ5IiBpZD0icGF0aDkwNiIvPiYjeGE7ICAgIDxwYXRoIGQ9Ik0zNS42IDI5LjM3OGE1LjM4NSA1LjM4NSAwIDAgMCA3LjU0MSAxLjAwNGMuMTIzLS4wOTQuMjE4LS4yMDguMzMtLjMwOSAyLjQwOSAxLjY5NyA0LjA4MiAyLjgxNyA1LjAyNSAzLjQ1OS4yNzktLjcyMy40NzItMS40MTcuNjctMi4xNDJhMTMwLjg1NyAxMzAuODU3IDAgMCAxLTQuMjktMy4zNTZjLjYzOS0xLjY4LjQzNy0zLjY0LS43My01LjE3MWE1LjM2IDUuMzYgMCAwIDAtNi45MzYtMS4zNzcgMjI0LjMxNyAyMjQuMzE3IDAgMCAxLTguMjkzLTcuODMzYzkuMTY1LTQuOTI5IDE1LjY3Ni00LjIwNyAxNS42NzYtNC4yMDctMS4wODctMS4zODYtMi4zMDUtMi42LTMuNjA2LTMuNjk3LTMuODY1LS41OTctOS44NjktLjUzLTE2LjcyOSAzLjExOWwtLjAwMi0uMDAzaC0uMDAxYTIwMC4zMjIgMjAwLjMyMiAwIDAgMS02Ljk4My03LjcxMkEyMy4yNjQgMjMuMjY0IDAgMCAwIDEzLjk2IDIuNWMxLjc0OSAyLjg2MiA0LjEwMiA1Ljc0OSA2Ljc1NCA4LjU2NWwuMDE3LjAxN2E0Ni4yOTMgNDYuMjkzIDAgMCAwLTYuOTQ0IDYuMDE1Yy0uMjkuMzA5LS41NjkuNjItLjg0Mi45MzFhNy41NDYgNy41NDYgMCAwIDAtNC4xMTcuMjgyQzYuNTY0IDEzLjQyNSA2Ljc0NiA5LjUwMSA3LjEwNCA3LjQ3OGMtLjk4MyAxLjAzLTEuOTAxIDIuMTEzLTIuNjkyIDMuMjY3LS41OTEgMi40MTUtLjc1OSA1Ljg5OC45ODUgMTAuMDk1YTcuNTM4IDcuNTM4IDAgMCAwLS4wMDUgOS4xNTNjLjE3Ni4yMjkuMzY0LjQ0Mi41NTkuNjQ1YTM3Ljg3IDM3Ljg3IDAgMCAwLTEuNDYgOC43NjFjLjIzNy4zMjIuMjM3LjU4Mi40NzIuODk2IDEuMTk5IDEuNTM4IDIuNzA1IDIuODM0IDQuMTYgNC4wMDgtLjE4LTIuNzUuMDE0LTYuODA2IDEuNzE0LTExLjM3MmE3LjUwNyA3LjUwNyAwIDAgMCAzLjQ4My0uNTY2Yy42NC41NjMgMS4zMSAxLjEzMiAyLjAyNSAxLjcxMWE0MS42NzIgNDEuNjcyIDAgMCAwIDcuMjg1IDQuNjQzIDQuOTc0IDQuOTc0IDAgMCAwIC45NjggMy41MTggNC45OTggNC45OTggMCAwIDAgNi45ODMuOTE5IDQuOTE4IDQuOTE4IDAgMCAwIDEuMTA4LTEuMjE2YzMuODg5Ljg2NiA3LjI4NyAxLjAxOSA5LjgwNiAxLjAxOS4zODYgMCAyLjE3Ny0yLjQzNiAzLjIwMy0zLjk0Ni0xLjUzNC4zMjEtNi4wODMuOTQ2LTEyLjMtLjg0YTQuOTUyIDQuOTUyIDAgMCAwLS44OTgtMS45OGMtMS41NzktMi4wNy00LjQ2Ni0yLjUxOC02LjYxOC0xLjEzM2E0Ni44NTMgNDYuODUzIDAgMCAxLTYuNzU4LTQuNDkgNDYuNDIyIDQ2LjQyMiAwIDAgMS0xLjM1OS0xLjExOCA3LjU3OCA3LjU3OCAwIDAgMCAuMzE4LTcuNTVjLjI4Ni0uMjg2LjU2Ny0uNTczLjg3MS0uODU3IDIuMzExLTIuMTU5IDQuNDg1LTMuODg3IDYuNTE5LTUuMjc0LS4wODItLjA3Ni0uMTU2LS4xNTYtLjIzNi0uMjMzLjA4MS4wNzUuMTU3LjE1Mi4yMzkuMjI3bC0uMDAyLjAwMWMzLjEyMSAyLjg4NiA2LjQzIDUuNjIxIDkuNTY0IDguMDY1LS44MjkgMS43NTgtLjY5OSAzLjg5OS41NjIgNS41NDd6IiBjbGFzcz0ibXNwb3J0YWxmeC1zdmctYzAxIiBmaWxsPSIjZmZmZmZmIiBpZD0icGF0aDkwOCIvPiYjeGE7ICA8L2c+JiN4YTs8L3N2Zz4=;" parent="1" vertex="1">
                    <mxGeometry x="-57" y="1880" width="60" height="60" as="geometry"/>
                </mxCell>
                <mxCell id="WNnFENoRMtN_BCBHwYKc-123" style="edgeStyle=orthogonalEdgeStyle;rounded=0;orthogonalLoop=1;jettySize=auto;html=1;exitX=1;exitY=0.5;exitDx=0;exitDy=0;entryX=0;entryY=0.5;entryDx=0;entryDy=0;labelBackgroundColor=#FFFF33;endArrow=none;endFill=0;fontSize=18;fontColor=#FFFFFF;" parent="1" source="WNnFENoRMtN_BCBHwYKc-117" target="WNnFENoRMtN_BCBHwYKc-122" edge="1">
                    <mxGeometry relative="1" as="geometry"/>
                </mxCell>
                <mxCell id="WNnFENoRMtN_BCBHwYKc-117" value="" style="ellipse;whiteSpace=wrap;html=1;aspect=fixed;fontSize=18;fontColor=#FFFFFF;" parent="1" vertex="1">
                    <mxGeometry x="-35" y="1979" width="20" height="20" as="geometry"/>
                </mxCell>
                <mxCell id="WNnFENoRMtN_BCBHwYKc-119" value="" style="group" parent="1" vertex="1" connectable="0">
                    <mxGeometry x="154" y="1894" width="65" height="52" as="geometry"/>
                </mxCell>
                <mxCell id="WNnFENoRMtN_BCBHwYKc-120" value="UI: Show event logs main UI" style="aspect=fixed;html=1;points=[];align=center;image;fontSize=12;image=img/lib/azure2/general/Browser.svg;" parent="WNnFENoRMtN_BCBHwYKc-119" vertex="1">
                    <mxGeometry width="65" height="52" as="geometry"/>
                </mxCell>
                <mxCell id="WNnFENoRMtN_BCBHwYKc-121" value="" style="html=1;verticalLabelPosition=bottom;align=center;labelBackgroundColor=#ffffff;verticalAlign=top;strokeWidth=2;strokeColor=#0080F0;shadow=0;dashed=0;shape=mxgraph.ios7.icons.user;" parent="WNnFENoRMtN_BCBHwYKc-119" vertex="1">
                    <mxGeometry x="17.5" y="20" width="30" height="30" as="geometry"/>
                </mxCell>
                <mxCell id="WNnFENoRMtN_BCBHwYKc-122" value="" style="ellipse;whiteSpace=wrap;html=1;aspect=fixed;fontSize=18;fontColor=#FFFFFF;" parent="1" vertex="1">
                    <mxGeometry x="176.5" y="1978" width="20" height="20" as="geometry"/>
                </mxCell>
                <mxCell id="dOGMPgS-TUDwjRJOEBqn-108" value="Page 1" style="text;html=1;resizable=0;autosize=1;align=center;verticalAlign=middle;points=[];fillColor=none;strokeColor=none;rounded=0;fontSize=40;labelBackgroundColor=#ffffff;fontColor=#1A1A1A;fontStyle=1" parent="1" vertex="1">
                    <mxGeometry x="-781" y="78" width="139" height="52" as="geometry"/>
                </mxCell>
                <mxCell id="109" value="Icon Description" style="whiteSpace=wrap;html=1;verticalAlign=top;align=left;fontSize=16;fillColor=#6d8764;strokeColor=#3A5431;fontColor=#ffffff;spacingLeft=6;" parent="1" vertex="1">
                    <mxGeometry x="-774" y="164" width="1192" height="251" as="geometry"/>
                </mxCell>
                <mxCell id="110" value="" style="group" parent="1" vertex="1" connectable="0">
                    <mxGeometry x="-737" y="200" width="65" height="52" as="geometry"/>
                </mxCell>
                <mxCell id="111" value="UI" style="aspect=fixed;html=1;points=[];align=center;image;fontSize=12;image=img/lib/azure2/general/Browser.svg;labelBackgroundColor=none;" parent="110" vertex="1">
                    <mxGeometry width="65" height="52" as="geometry"/>
                </mxCell>
                <mxCell id="112" value="" style="html=1;verticalLabelPosition=bottom;align=center;labelBackgroundColor=#ffffff;verticalAlign=top;strokeWidth=2;strokeColor=#0080F0;shadow=0;dashed=0;shape=mxgraph.ios7.icons.user;" parent="110" vertex="1">
                    <mxGeometry x="17.5" y="20" width="30" height="30" as="geometry"/>
                </mxCell>
                <mxCell id="113" value="Frontend single web page application&amp;nbsp;" style="text;html=1;resizable=0;autosize=1;align=center;verticalAlign=middle;points=[];fillColor=none;strokeColor=none;rounded=0;" parent="1" vertex="1">
                    <mxGeometry x="-665" y="224" width="212" height="18" as="geometry"/>
                </mxCell>
                <mxCell id="114" value="Task Master" style="shape=image;editableCssRules=\.st[02];verticalLabelPosition=bottom;labelBackgroundColor=none;verticalAlign=top;aspect=fixed;imageAspect=0;image=data:image/svg+xml,PHN2ZyB4bWxuczpkYz0iaHR0cDovL3B1cmwub3JnL2RjL2VsZW1lbnRzLzEuMS8iIHhtbG5zOmNjPSJodHRwOi8vY3JlYXRpdmVjb21tb25zLm9yZy9ucyMiIHhtbG5zOnJkZj0iaHR0cDovL3d3dy53My5vcmcvMTk5OS8wMi8yMi1yZGYtc3ludGF4LW5zIyIgeG1sbnM6c3ZnPSJodHRwOi8vd3d3LnczLm9yZy8yMDAwL3N2ZyIgeG1sbnM9Imh0dHA6Ly93d3cudzMub3JnLzIwMDAvc3ZnIiB4bWxuczpzb2RpcG9kaT0iaHR0cDovL3NvZGlwb2RpLnNvdXJjZWZvcmdlLm5ldC9EVEQvc29kaXBvZGktMC5kdGQiIHhtbG5zOmlua3NjYXBlPSJodHRwOi8vd3d3Lmlua3NjYXBlLm9yZy9uYW1lc3BhY2VzL2lua3NjYXBlIiB2aWV3Qm94PSIwLjAwMDEzNDQ2ODA3ODYxMzI4MTI1IDAgNTAuMDAwMDA3NjI5Mzk0NTMgNDkuOTkwMDAxNjc4NDY2OCIgY2xhc3M9ImZ4cy1wb3J0YWwtc3ZnIiByb2xlPSJwcmVzZW50YXRpb24iIGZvY3VzYWJsZT0iZmFsc2UiIGlkPSJGeFN5bWJvbDAtMDUxIiB2ZXJzaW9uPSIxLjEiIHNvZGlwb2RpOmRvY25hbWU9IkFwcCBTZXJ2aWNlcy5zdmciIGlua3NjYXBlOnZlcnNpb249IjAuOTIuMyAoMjQwNTU0NiwgMjAxOC0wMy0xMSkiIHdpZHRoPSI1MC4wMDAwMDc2MjkzOTQ1MyIgaGVpZ2h0PSI0OS45OTAwMDE2Nzg0NjY4Ij4mI3hhOyAgPG1ldGFkYXRhIGlkPSJtZXRhZGF0YTkxNyI+JiN4YTsgICAgPHJkZjpyZGY+JiN4YTsgICAgICA8Y2M6d29yayByZGY6YWJvdXQ9IiI+JiN4YTsgICAgICAgIDxkYzpmb3JtYXQ+aW1hZ2Uvc3ZnK3htbDwvZGM6Zm9ybWF0PiYjeGE7ICAgICAgICA8ZGM6dHlwZSByZGY6cmVzb3VyY2U9Imh0dHA6Ly9wdXJsLm9yZy9kYy9kY21pdHlwZS9TdGlsbEltYWdlIi8+JiN4YTsgICAgICAgIDxkYzp0aXRsZS8+JiN4YTsgICAgICA8L2NjOndvcms+JiN4YTsgICAgPC9yZGY6cmRmPiYjeGE7ICA8L21ldGFkYXRhPiYjeGE7ICA8ZGVmcyBpZD0iZGVmczkxNSIvPiYjeGE7ICA8c29kaXBvZGk6bmFtZWR2aWV3IHBhZ2Vjb2xvcj0iI2ZmZmZmZiIgYm9yZGVyY29sb3I9IiM2NjY2NjYiIGJvcmRlcm9wYWNpdHk9IjEiIG9iamVjdHRvbGVyYW5jZT0iMTAiIGdyaWR0b2xlcmFuY2U9IjEwIiBndWlkZXRvbGVyYW5jZT0iMTAiIGlua3NjYXBlOnBhZ2VvcGFjaXR5PSIwIiBpbmtzY2FwZTpwYWdlc2hhZG93PSIyIiBpbmtzY2FwZTp3aW5kb3ctd2lkdGg9IjY0MCIgaW5rc2NhcGU6d2luZG93LWhlaWdodD0iNDgwIiBpZD0ibmFtZWR2aWV3OTEzIiBzaG93Z3JpZD0iZmFsc2UiIGlua3NjYXBlOnpvb209IjEzLjQiIGlua3NjYXBlOmN4PSIyNSIgaW5rc2NhcGU6Y3k9IjI1IiBpbmtzY2FwZTp3aW5kb3cteD0iMCIgaW5rc2NhcGU6d2luZG93LXk9IjAiIGlua3NjYXBlOndpbmRvdy1tYXhpbWl6ZWQ9IjEiIGlua3NjYXBlOmN1cnJlbnQtbGF5ZXI9IkZ4U3ltYm9sMC0wNTEiLz4mI3hhOyAgPGcgaWQ9Imc5MTAiPiYjeGE7ICAgIDx0aXRsZSBpZD0idGl0bGU5MDQiLz4mI3hhOyAgICYjeGE7JiN4YTs8c3R5bGUgdHlwZT0idGV4dC9jc3MiPi5zdDAgeyBmaWxsOiByZ2IoMjU1LCAwLCAxMjgpOyB9IDwvc3R5bGU+JiN4YTsmI3hhOyYjeGE7PHBhdGggY2xhc3M9InN0MCIgZD0iTTQwLjE5MyA0NC44MzlhMjQuODk4IDI0Ljg5OCAwIDAgMS0xNS4xNjcgNS4xNTFjLTcuNTIgMC0xNC45NTYtMy4zNzYtMTkuODctOS44MDNDLTMuMjQgMjkuMjI1LTEuMTY4IDEzLjU0OCA5LjgxNCA1LjE0OCAxNC4zNDMgMS42NjMgMTkuNjg2IDAgMjQuOTc5IDBjNy41MiAwIDE0Ljk1OCAzLjM3NiAxOS44NyA5LjgwOSA4LjM5OCAxMC45NTkgNi4zMDUgMjYuNjM5LTQuNjU2IDM1LjAzIiBmaWxsPSIjNTliNGQ5IiBpZD0icGF0aDkwNiIvPiYjeGE7ICAgIDxwYXRoIGQ9Ik0zNS42IDI5LjM3OGE1LjM4NSA1LjM4NSAwIDAgMCA3LjU0MSAxLjAwNGMuMTIzLS4wOTQuMjE4LS4yMDguMzMtLjMwOSAyLjQwOSAxLjY5NyA0LjA4MiAyLjgxNyA1LjAyNSAzLjQ1OS4yNzktLjcyMy40NzItMS40MTcuNjctMi4xNDJhMTMwLjg1NyAxMzAuODU3IDAgMCAxLTQuMjktMy4zNTZjLjYzOS0xLjY4LjQzNy0zLjY0LS43My01LjE3MWE1LjM2IDUuMzYgMCAwIDAtNi45MzYtMS4zNzcgMjI0LjMxNyAyMjQuMzE3IDAgMCAxLTguMjkzLTcuODMzYzkuMTY1LTQuOTI5IDE1LjY3Ni00LjIwNyAxNS42NzYtNC4yMDctMS4wODctMS4zODYtMi4zMDUtMi42LTMuNjA2LTMuNjk3LTMuODY1LS41OTctOS44NjktLjUzLTE2LjcyOSAzLjExOWwtLjAwMi0uMDAzaC0uMDAxYTIwMC4zMjIgMjAwLjMyMiAwIDAgMS02Ljk4My03LjcxMkEyMy4yNjQgMjMuMjY0IDAgMCAwIDEzLjk2IDIuNWMxLjc0OSAyLjg2MiA0LjEwMiA1Ljc0OSA2Ljc1NCA4LjU2NWwuMDE3LjAxN2E0Ni4yOTMgNDYuMjkzIDAgMCAwLTYuOTQ0IDYuMDE1Yy0uMjkuMzA5LS41NjkuNjItLjg0Mi45MzFhNy41NDYgNy41NDYgMCAwIDAtNC4xMTcuMjgyQzYuNTY0IDEzLjQyNSA2Ljc0NiA5LjUwMSA3LjEwNCA3LjQ3OGMtLjk4MyAxLjAzLTEuOTAxIDIuMTEzLTIuNjkyIDMuMjY3LS41OTEgMi40MTUtLjc1OSA1Ljg5OC45ODUgMTAuMDk1YTcuNTM4IDcuNTM4IDAgMCAwLS4wMDUgOS4xNTNjLjE3Ni4yMjkuMzY0LjQ0Mi41NTkuNjQ1YTM3Ljg3IDM3Ljg3IDAgMCAwLTEuNDYgOC43NjFjLjIzNy4zMjIuMjM3LjU4Mi40NzIuODk2IDEuMTk5IDEuNTM4IDIuNzA1IDIuODM0IDQuMTYgNC4wMDgtLjE4LTIuNzUuMDE0LTYuODA2IDEuNzE0LTExLjM3MmE3LjUwNyA3LjUwNyAwIDAgMCAzLjQ4My0uNTY2Yy42NC41NjMgMS4zMSAxLjEzMiAyLjAyNSAxLjcxMWE0MS42NzIgNDEuNjcyIDAgMCAwIDcuMjg1IDQuNjQzIDQuOTc0IDQuOTc0IDAgMCAwIC45NjggMy41MTggNC45OTggNC45OTggMCAwIDAgNi45ODMuOTE5IDQuOTE4IDQuOTE4IDAgMCAwIDEuMTA4LTEuMjE2YzMuODg5Ljg2NiA3LjI4NyAxLjAxOSA5LjgwNiAxLjAxOS4zODYgMCAyLjE3Ny0yLjQzNiAzLjIwMy0zLjk0Ni0xLjUzNC4zMjEtNi4wODMuOTQ2LTEyLjMtLjg0YTQuOTUyIDQuOTUyIDAgMCAwLS44OTgtMS45OGMtMS41NzktMi4wNy00LjQ2Ni0yLjUxOC02LjYxOC0xLjEzM2E0Ni44NTMgNDYuODUzIDAgMCAxLTYuNzU4LTQuNDkgNDYuNDIyIDQ2LjQyMiAwIDAgMS0xLjM1OS0xLjExOCA3LjU3OCA3LjU3OCAwIDAgMCAuMzE4LTcuNTVjLjI4Ni0uMjg2LjU2Ny0uNTczLjg3MS0uODU3IDIuMzExLTIuMTU5IDQuNDg1LTMuODg3IDYuNTE5LTUuMjc0LS4wODItLjA3Ni0uMTU2LS4xNTYtLjIzNi0uMjMzLjA4MS4wNzUuMTU3LjE1Mi4yMzkuMjI3bC0uMDAyLjAwMWMzLjEyMSAyLjg4NiA2LjQzIDUuNjIxIDkuNTY0IDguMDY1LS44MjkgMS43NTgtLjY5OSAzLjg5OS41NjIgNS41NDd6IiBjbGFzcz0ibXNwb3J0YWxmeC1zdmctYzAxIiBmaWxsPSIjZmZmZmZmIiBpZD0icGF0aDkwOCIvPiYjeGE7ICA8L2c+JiN4YTs8L3N2Zz4=;" parent="1" vertex="1">
                    <mxGeometry x="-395" y="203" width="60" height="60" as="geometry"/>
                </mxCell>
                <mxCell id="115" value="microservice to coordinate frontend&lt;br&gt;with other backend API microservice" style="text;html=1;resizable=0;autosize=1;align=left;verticalAlign=middle;points=[];fillColor=none;strokeColor=none;rounded=0;" parent="1" vertex="1">
                    <mxGeometry x="-328.5" y="224" width="204" height="31" as="geometry"/>
                </mxCell>
                <mxCell id="116" value="DB OP" style="shape=image;editableCssRules=\.st[02];verticalLabelPosition=bottom;labelBackgroundColor=none;verticalAlign=top;aspect=fixed;imageAspect=0;image=data:image/svg+xml,PHN2ZyB4bWxuczpkYz0iaHR0cDovL3B1cmwub3JnL2RjL2VsZW1lbnRzLzEuMS8iIHhtbG5zOmNjPSJodHRwOi8vY3JlYXRpdmVjb21tb25zLm9yZy9ucyMiIHhtbG5zOnJkZj0iaHR0cDovL3d3dy53My5vcmcvMTk5OS8wMi8yMi1yZGYtc3ludGF4LW5zIyIgeG1sbnM6c3ZnPSJodHRwOi8vd3d3LnczLm9yZy8yMDAwL3N2ZyIgeG1sbnM9Imh0dHA6Ly93d3cudzMub3JnLzIwMDAvc3ZnIiB4bWxuczpzb2RpcG9kaT0iaHR0cDovL3NvZGlwb2RpLnNvdXJjZWZvcmdlLm5ldC9EVEQvc29kaXBvZGktMC5kdGQiIHhtbG5zOmlua3NjYXBlPSJodHRwOi8vd3d3Lmlua3NjYXBlLm9yZy9uYW1lc3BhY2VzL2lua3NjYXBlIiB2aWV3Qm94PSIwLjAwMDEzNDQ2ODA3ODYxMzI4MTI1IDAgNTAuMDAwMDA3NjI5Mzk0NTMgNDkuOTkwMDAxNjc4NDY2OCIgY2xhc3M9ImZ4cy1wb3J0YWwtc3ZnIiByb2xlPSJwcmVzZW50YXRpb24iIGZvY3VzYWJsZT0iZmFsc2UiIGlkPSJGeFN5bWJvbDAtMDUxIiB2ZXJzaW9uPSIxLjEiIHNvZGlwb2RpOmRvY25hbWU9IkFwcCBTZXJ2aWNlcy5zdmciIGlua3NjYXBlOnZlcnNpb249IjAuOTIuMyAoMjQwNTU0NiwgMjAxOC0wMy0xMSkiIHdpZHRoPSI1MC4wMDAwMDc2MjkzOTQ1MyIgaGVpZ2h0PSI0OS45OTAwMDE2Nzg0NjY4Ij4mI3hhOyAgPG1ldGFkYXRhIGlkPSJtZXRhZGF0YTkxNyI+JiN4YTsgICAgPHJkZjpyZGY+JiN4YTsgICAgICA8Y2M6d29yayByZGY6YWJvdXQ9IiI+JiN4YTsgICAgICAgIDxkYzpmb3JtYXQ+aW1hZ2Uvc3ZnK3htbDwvZGM6Zm9ybWF0PiYjeGE7ICAgICAgICA8ZGM6dHlwZSByZGY6cmVzb3VyY2U9Imh0dHA6Ly9wdXJsLm9yZy9kYy9kY21pdHlwZS9TdGlsbEltYWdlIi8+JiN4YTsgICAgICAgIDxkYzp0aXRsZS8+JiN4YTsgICAgICA8L2NjOndvcms+JiN4YTsgICAgPC9yZGY6cmRmPiYjeGE7ICA8L21ldGFkYXRhPiYjeGE7ICA8ZGVmcyBpZD0iZGVmczkxNSIvPiYjeGE7ICA8c29kaXBvZGk6bmFtZWR2aWV3IHBhZ2Vjb2xvcj0iI2ZmZmZmZiIgYm9yZGVyY29sb3I9IiM2NjY2NjYiIGJvcmRlcm9wYWNpdHk9IjEiIG9iamVjdHRvbGVyYW5jZT0iMTAiIGdyaWR0b2xlcmFuY2U9IjEwIiBndWlkZXRvbGVyYW5jZT0iMTAiIGlua3NjYXBlOnBhZ2VvcGFjaXR5PSIwIiBpbmtzY2FwZTpwYWdlc2hhZG93PSIyIiBpbmtzY2FwZTp3aW5kb3ctd2lkdGg9IjY0MCIgaW5rc2NhcGU6d2luZG93LWhlaWdodD0iNDgwIiBpZD0ibmFtZWR2aWV3OTEzIiBzaG93Z3JpZD0iZmFsc2UiIGlua3NjYXBlOnpvb209IjEzLjQiIGlua3NjYXBlOmN4PSIyNSIgaW5rc2NhcGU6Y3k9IjI1IiBpbmtzY2FwZTp3aW5kb3cteD0iMCIgaW5rc2NhcGU6d2luZG93LXk9IjAiIGlua3NjYXBlOndpbmRvdy1tYXhpbWl6ZWQ9IjEiIGlua3NjYXBlOmN1cnJlbnQtbGF5ZXI9IkZ4U3ltYm9sMC0wNTEiLz4mI3hhOyAgPGcgaWQ9Imc5MTAiPiYjeGE7ICAgIDx0aXRsZSBpZD0idGl0bGU5MDQiLz4mI3hhOyAgICYjeGE7JiN4YTs8c3R5bGUgdHlwZT0idGV4dC9jc3MiPi5zdDAgeyBmaWxsOiByZ2IoMjU1LCAxMjgsIDApOyB9IDwvc3R5bGU+JiN4YTsmI3hhOyYjeGE7PHBhdGggY2xhc3M9InN0MCIgZD0iTTQwLjE5MyA0NC44MzlhMjQuODk4IDI0Ljg5OCAwIDAgMS0xNS4xNjcgNS4xNTFjLTcuNTIgMC0xNC45NTYtMy4zNzYtMTkuODctOS44MDNDLTMuMjQgMjkuMjI1LTEuMTY4IDEzLjU0OCA5LjgxNCA1LjE0OCAxNC4zNDMgMS42NjMgMTkuNjg2IDAgMjQuOTc5IDBjNy41MiAwIDE0Ljk1OCAzLjM3NiAxOS44NyA5LjgwOSA4LjM5OCAxMC45NTkgNi4zMDUgMjYuNjM5LTQuNjU2IDM1LjAzIiBmaWxsPSIjNTliNGQ5IiBpZD0icGF0aDkwNiIvPiYjeGE7ICAgIDxwYXRoIGQ9Ik0zNS42IDI5LjM3OGE1LjM4NSA1LjM4NSAwIDAgMCA3LjU0MSAxLjAwNGMuMTIzLS4wOTQuMjE4LS4yMDguMzMtLjMwOSAyLjQwOSAxLjY5NyA0LjA4MiAyLjgxNyA1LjAyNSAzLjQ1OS4yNzktLjcyMy40NzItMS40MTcuNjctMi4xNDJhMTMwLjg1NyAxMzAuODU3IDAgMCAxLTQuMjktMy4zNTZjLjYzOS0xLjY4LjQzNy0zLjY0LS43My01LjE3MWE1LjM2IDUuMzYgMCAwIDAtNi45MzYtMS4zNzcgMjI0LjMxNyAyMjQuMzE3IDAgMCAxLTguMjkzLTcuODMzYzkuMTY1LTQuOTI5IDE1LjY3Ni00LjIwNyAxNS42NzYtNC4yMDctMS4wODctMS4zODYtMi4zMDUtMi42LTMuNjA2LTMuNjk3LTMuODY1LS41OTctOS44NjktLjUzLTE2LjcyOSAzLjExOWwtLjAwMi0uMDAzaC0uMDAxYTIwMC4zMjIgMjAwLjMyMiAwIDAgMS02Ljk4My03LjcxMkEyMy4yNjQgMjMuMjY0IDAgMCAwIDEzLjk2IDIuNWMxLjc0OSAyLjg2MiA0LjEwMiA1Ljc0OSA2Ljc1NCA4LjU2NWwuMDE3LjAxN2E0Ni4yOTMgNDYuMjkzIDAgMCAwLTYuOTQ0IDYuMDE1Yy0uMjkuMzA5LS41NjkuNjItLjg0Mi45MzFhNy41NDYgNy41NDYgMCAwIDAtNC4xMTcuMjgyQzYuNTY0IDEzLjQyNSA2Ljc0NiA5LjUwMSA3LjEwNCA3LjQ3OGMtLjk4MyAxLjAzLTEuOTAxIDIuMTEzLTIuNjkyIDMuMjY3LS41OTEgMi40MTUtLjc1OSA1Ljg5OC45ODUgMTAuMDk1YTcuNTM4IDcuNTM4IDAgMCAwLS4wMDUgOS4xNTNjLjE3Ni4yMjkuMzY0LjQ0Mi41NTkuNjQ1YTM3Ljg3IDM3Ljg3IDAgMCAwLTEuNDYgOC43NjFjLjIzNy4zMjIuMjM3LjU4Mi40NzIuODk2IDEuMTk5IDEuNTM4IDIuNzA1IDIuODM0IDQuMTYgNC4wMDgtLjE4LTIuNzUuMDE0LTYuODA2IDEuNzE0LTExLjM3MmE3LjUwNyA3LjUwNyAwIDAgMCAzLjQ4My0uNTY2Yy42NC41NjMgMS4zMSAxLjEzMiAyLjAyNSAxLjcxMWE0MS42NzIgNDEuNjcyIDAgMCAwIDcuMjg1IDQuNjQzIDQuOTc0IDQuOTc0IDAgMCAwIC45NjggMy41MTggNC45OTggNC45OTggMCAwIDAgNi45ODMuOTE5IDQuOTE4IDQuOTE4IDAgMCAwIDEuMTA4LTEuMjE2YzMuODg5Ljg2NiA3LjI4NyAxLjAxOSA5LjgwNiAxLjAxOS4zODYgMCAyLjE3Ny0yLjQzNiAzLjIwMy0zLjk0Ni0xLjUzNC4zMjEtNi4wODMuOTQ2LTEyLjMtLjg0YTQuOTUyIDQuOTUyIDAgMCAwLS44OTgtMS45OGMtMS41NzktMi4wNy00LjQ2Ni0yLjUxOC02LjYxOC0xLjEzM2E0Ni44NTMgNDYuODUzIDAgMCAxLTYuNzU4LTQuNDkgNDYuNDIyIDQ2LjQyMiAwIDAgMS0xLjM1OS0xLjExOCA3LjU3OCA3LjU3OCAwIDAgMCAuMzE4LTcuNTVjLjI4Ni0uMjg2LjU2Ny0uNTczLjg3MS0uODU3IDIuMzExLTIuMTU5IDQuNDg1LTMuODg3IDYuNTE5LTUuMjc0LS4wODItLjA3Ni0uMTU2LS4xNTYtLjIzNi0uMjMzLjA4MS4wNzUuMTU3LjE1Mi4yMzkuMjI3bC0uMDAyLjAwMWMzLjEyMSAyLjg4NiA2LjQzIDUuNjIxIDkuNTY0IDguMDY1LS44MjkgMS43NTgtLjY5OSAzLjg5OS41NjIgNS41NDd6IiBjbGFzcz0ibXNwb3J0YWxmeC1zdmctYzAxIiBmaWxsPSIjZmZmZmZmIiBpZD0icGF0aDkwOCIvPiYjeGE7ICA8L2c+JiN4YTs8L3N2Zz4=;" parent="1" vertex="1">
                    <mxGeometry x="-82" y="206" width="60" height="60" as="geometry"/>
                </mxCell>
                <mxCell id="117" value="backend api to operate cosmosDB" style="text;html=1;resizable=0;autosize=1;align=left;verticalAlign=middle;points=[];fillColor=none;strokeColor=none;rounded=0;" parent="1" vertex="1">
                    <mxGeometry x="-14" y="231" width="193" height="18" as="geometry"/>
                </mxCell>
                <mxCell id="119" value="ADT OP" style="shape=image;editableCssRules=\.st[02];verticalLabelPosition=bottom;labelBackgroundColor=none;verticalAlign=top;aspect=fixed;imageAspect=0;image=data:image/svg+xml,PHN2ZyB4bWxuczpkYz0iaHR0cDovL3B1cmwub3JnL2RjL2VsZW1lbnRzLzEuMS8iIHhtbG5zOmNjPSJodHRwOi8vY3JlYXRpdmVjb21tb25zLm9yZy9ucyMiIHhtbG5zOnJkZj0iaHR0cDovL3d3dy53My5vcmcvMTk5OS8wMi8yMi1yZGYtc3ludGF4LW5zIyIgeG1sbnM6c3ZnPSJodHRwOi8vd3d3LnczLm9yZy8yMDAwL3N2ZyIgeG1sbnM9Imh0dHA6Ly93d3cudzMub3JnLzIwMDAvc3ZnIiB4bWxuczpzb2RpcG9kaT0iaHR0cDovL3NvZGlwb2RpLnNvdXJjZWZvcmdlLm5ldC9EVEQvc29kaXBvZGktMC5kdGQiIHhtbG5zOmlua3NjYXBlPSJodHRwOi8vd3d3Lmlua3NjYXBlLm9yZy9uYW1lc3BhY2VzL2lua3NjYXBlIiB2aWV3Qm94PSIwLjAwMDEzNDQ2ODA3ODYxMzI4MTI1IDAgNTAuMDAwMDA3NjI5Mzk0NTMgNDkuOTkwMDAxNjc4NDY2OCIgY2xhc3M9ImZ4cy1wb3J0YWwtc3ZnIiByb2xlPSJwcmVzZW50YXRpb24iIGZvY3VzYWJsZT0iZmFsc2UiIGlkPSJGeFN5bWJvbDAtMDUxIiB2ZXJzaW9uPSIxLjEiIHNvZGlwb2RpOmRvY25hbWU9IkFwcCBTZXJ2aWNlcy5zdmciIGlua3NjYXBlOnZlcnNpb249IjAuOTIuMyAoMjQwNTU0NiwgMjAxOC0wMy0xMSkiIHdpZHRoPSI1MC4wMDAwMDc2MjkzOTQ1MyIgaGVpZ2h0PSI0OS45OTAwMDE2Nzg0NjY4Ij4mI3hhOyAgPG1ldGFkYXRhIGlkPSJtZXRhZGF0YTkxNyI+JiN4YTsgICAgPHJkZjpyZGY+JiN4YTsgICAgICA8Y2M6d29yayByZGY6YWJvdXQ9IiI+JiN4YTsgICAgICAgIDxkYzpmb3JtYXQ+aW1hZ2Uvc3ZnK3htbDwvZGM6Zm9ybWF0PiYjeGE7ICAgICAgICA8ZGM6dHlwZSByZGY6cmVzb3VyY2U9Imh0dHA6Ly9wdXJsLm9yZy9kYy9kY21pdHlwZS9TdGlsbEltYWdlIi8+JiN4YTsgICAgICAgIDxkYzp0aXRsZS8+JiN4YTsgICAgICA8L2NjOndvcms+JiN4YTsgICAgPC9yZGY6cmRmPiYjeGE7ICA8L21ldGFkYXRhPiYjeGE7ICA8ZGVmcyBpZD0iZGVmczkxNSIvPiYjeGE7ICA8c29kaXBvZGk6bmFtZWR2aWV3IHBhZ2Vjb2xvcj0iI2ZmZmZmZiIgYm9yZGVyY29sb3I9IiM2NjY2NjYiIGJvcmRlcm9wYWNpdHk9IjEiIG9iamVjdHRvbGVyYW5jZT0iMTAiIGdyaWR0b2xlcmFuY2U9IjEwIiBndWlkZXRvbGVyYW5jZT0iMTAiIGlua3NjYXBlOnBhZ2VvcGFjaXR5PSIwIiBpbmtzY2FwZTpwYWdlc2hhZG93PSIyIiBpbmtzY2FwZTp3aW5kb3ctd2lkdGg9IjY0MCIgaW5rc2NhcGU6d2luZG93LWhlaWdodD0iNDgwIiBpZD0ibmFtZWR2aWV3OTEzIiBzaG93Z3JpZD0iZmFsc2UiIGlua3NjYXBlOnpvb209IjEzLjQiIGlua3NjYXBlOmN4PSIyNSIgaW5rc2NhcGU6Y3k9IjI1IiBpbmtzY2FwZTp3aW5kb3cteD0iMCIgaW5rc2NhcGU6d2luZG93LXk9IjAiIGlua3NjYXBlOndpbmRvdy1tYXhpbWl6ZWQ9IjEiIGlua3NjYXBlOmN1cnJlbnQtbGF5ZXI9IkZ4U3ltYm9sMC0wNTEiLz4mI3hhOyAgPGcgaWQ9Imc5MTAiPiYjeGE7ICAgIDx0aXRsZSBpZD0idGl0bGU5MDQiLz4mI3hhOyAgICYjeGE7JiN4YTs8c3R5bGUgdHlwZT0idGV4dC9jc3MiPi5zdDAgeyBmaWxsOiByZ2IoMjAsIDI1NSwgNzUpOyB9IDwvc3R5bGU+JiN4YTsmI3hhOyYjeGE7PHBhdGggY2xhc3M9InN0MCIgZD0iTTQwLjE5MyA0NC44MzlhMjQuODk4IDI0Ljg5OCAwIDAgMS0xNS4xNjcgNS4xNTFjLTcuNTIgMC0xNC45NTYtMy4zNzYtMTkuODctOS44MDNDLTMuMjQgMjkuMjI1LTEuMTY4IDEzLjU0OCA5LjgxNCA1LjE0OCAxNC4zNDMgMS42NjMgMTkuNjg2IDAgMjQuOTc5IDBjNy41MiAwIDE0Ljk1OCAzLjM3NiAxOS44NyA5LjgwOSA4LjM5OCAxMC45NTkgNi4zMDUgMjYuNjM5LTQuNjU2IDM1LjAzIiBmaWxsPSIjNTliNGQ5IiBpZD0icGF0aDkwNiIvPiYjeGE7ICAgIDxwYXRoIGQ9Ik0zNS42IDI5LjM3OGE1LjM4NSA1LjM4NSAwIDAgMCA3LjU0MSAxLjAwNGMuMTIzLS4wOTQuMjE4LS4yMDguMzMtLjMwOSAyLjQwOSAxLjY5NyA0LjA4MiAyLjgxNyA1LjAyNSAzLjQ1OS4yNzktLjcyMy40NzItMS40MTcuNjctMi4xNDJhMTMwLjg1NyAxMzAuODU3IDAgMCAxLTQuMjktMy4zNTZjLjYzOS0xLjY4LjQzNy0zLjY0LS43My01LjE3MWE1LjM2IDUuMzYgMCAwIDAtNi45MzYtMS4zNzcgMjI0LjMxNyAyMjQuMzE3IDAgMCAxLTguMjkzLTcuODMzYzkuMTY1LTQuOTI5IDE1LjY3Ni00LjIwNyAxNS42NzYtNC4yMDctMS4wODctMS4zODYtMi4zMDUtMi42LTMuNjA2LTMuNjk3LTMuODY1LS41OTctOS44NjktLjUzLTE2LjcyOSAzLjExOWwtLjAwMi0uMDAzaC0uMDAxYTIwMC4zMjIgMjAwLjMyMiAwIDAgMS02Ljk4My03LjcxMkEyMy4yNjQgMjMuMjY0IDAgMCAwIDEzLjk2IDIuNWMxLjc0OSAyLjg2MiA0LjEwMiA1Ljc0OSA2Ljc1NCA4LjU2NWwuMDE3LjAxN2E0Ni4yOTMgNDYuMjkzIDAgMCAwLTYuOTQ0IDYuMDE1Yy0uMjkuMzA5LS41NjkuNjItLjg0Mi45MzFhNy41NDYgNy41NDYgMCAwIDAtNC4xMTcuMjgyQzYuNTY0IDEzLjQyNSA2Ljc0NiA5LjUwMSA3LjEwNCA3LjQ3OGMtLjk4MyAxLjAzLTEuOTAxIDIuMTEzLTIuNjkyIDMuMjY3LS41OTEgMi40MTUtLjc1OSA1Ljg5OC45ODUgMTAuMDk1YTcuNTM4IDcuNTM4IDAgMCAwLS4wMDUgOS4xNTNjLjE3Ni4yMjkuMzY0LjQ0Mi41NTkuNjQ1YTM3Ljg3IDM3Ljg3IDAgMCAwLTEuNDYgOC43NjFjLjIzNy4zMjIuMjM3LjU4Mi40NzIuODk2IDEuMTk5IDEuNTM4IDIuNzA1IDIuODM0IDQuMTYgNC4wMDgtLjE4LTIuNzUuMDE0LTYuODA2IDEuNzE0LTExLjM3MmE3LjUwNyA3LjUwNyAwIDAgMCAzLjQ4My0uNTY2Yy42NC41NjMgMS4zMSAxLjEzMiAyLjAyNSAxLjcxMWE0MS42NzIgNDEuNjcyIDAgMCAwIDcuMjg1IDQuNjQzIDQuOTc0IDQuOTc0IDAgMCAwIC45NjggMy41MTggNC45OTggNC45OTggMCAwIDAgNi45ODMuOTE5IDQuOTE4IDQuOTE4IDAgMCAwIDEuMTA4LTEuMjE2YzMuODg5Ljg2NiA3LjI4NyAxLjAxOSA5LjgwNiAxLjAxOS4zODYgMCAyLjE3Ny0yLjQzNiAzLjIwMy0zLjk0Ni0xLjUzNC4zMjEtNi4wODMuOTQ2LTEyLjMtLjg0YTQuOTUyIDQuOTUyIDAgMCAwLS44OTgtMS45OGMtMS41NzktMi4wNy00LjQ2Ni0yLjUxOC02LjYxOC0xLjEzM2E0Ni44NTMgNDYuODUzIDAgMCAxLTYuNzU4LTQuNDkgNDYuNDIyIDQ2LjQyMiAwIDAgMS0xLjM1OS0xLjExOCA3LjU3OCA3LjU3OCAwIDAgMCAuMzE4LTcuNTVjLjI4Ni0uMjg2LjU2Ny0uNTczLjg3MS0uODU3IDIuMzExLTIuMTU5IDQuNDg1LTMuODg3IDYuNTE5LTUuMjc0LS4wODItLjA3Ni0uMTU2LS4xNTYtLjIzNi0uMjMzLjA4MS4wNzUuMTU3LjE1Mi4yMzkuMjI3bC0uMDAyLjAwMWMzLjEyMSAyLjg4NiA2LjQzIDUuNjIxIDkuNTY0IDguMDY1LS44MjkgMS43NTgtLjY5OSAzLjg5OS41NjIgNS41NDd6IiBjbGFzcz0ibXNwb3J0YWxmeC1zdmctYzAxIiBmaWxsPSIjZmZmZmZmIiBpZD0icGF0aDkwOCIvPiYjeGE7ICA8L2c+JiN4YTs8L3N2Zz4=;" parent="1" vertex="1">
                    <mxGeometry x="-737" y="314" width="60" height="60" as="geometry"/>
                </mxCell>
                <mxCell id="120" value="backend api to operate &lt;br&gt;azure digital twin service" style="text;html=1;resizable=0;autosize=1;align=left;verticalAlign=middle;points=[];fillColor=none;strokeColor=none;rounded=0;" parent="1" vertex="1">
                    <mxGeometry x="-661" y="329" width="140" height="31" as="geometry"/>
                </mxCell>
                <mxCell id="121" value="IoTHub OP" style="shape=image;editableCssRules=\.st[02];verticalLabelPosition=bottom;labelBackgroundColor=none;verticalAlign=top;aspect=fixed;imageAspect=0;image=data:image/svg+xml,PHN2ZyB4bWxuczpkYz0iaHR0cDovL3B1cmwub3JnL2RjL2VsZW1lbnRzLzEuMS8iIHhtbG5zOmNjPSJodHRwOi8vY3JlYXRpdmVjb21tb25zLm9yZy9ucyMiIHhtbG5zOnJkZj0iaHR0cDovL3d3dy53My5vcmcvMTk5OS8wMi8yMi1yZGYtc3ludGF4LW5zIyIgeG1sbnM6c3ZnPSJodHRwOi8vd3d3LnczLm9yZy8yMDAwL3N2ZyIgeG1sbnM9Imh0dHA6Ly93d3cudzMub3JnLzIwMDAvc3ZnIiB4bWxuczpzb2RpcG9kaT0iaHR0cDovL3NvZGlwb2RpLnNvdXJjZWZvcmdlLm5ldC9EVEQvc29kaXBvZGktMC5kdGQiIHhtbG5zOmlua3NjYXBlPSJodHRwOi8vd3d3Lmlua3NjYXBlLm9yZy9uYW1lc3BhY2VzL2lua3NjYXBlIiB2aWV3Qm94PSIwLjAwMDEzNDQ2ODA3ODYxMzI4MTI1IDAgNTAuMDAwMDA3NjI5Mzk0NTMgNDkuOTkwMDAxNjc4NDY2OCIgY2xhc3M9ImZ4cy1wb3J0YWwtc3ZnIiByb2xlPSJwcmVzZW50YXRpb24iIGZvY3VzYWJsZT0iZmFsc2UiIGlkPSJGeFN5bWJvbDAtMDUxIiB2ZXJzaW9uPSIxLjEiIHNvZGlwb2RpOmRvY25hbWU9IkFwcCBTZXJ2aWNlcy5zdmciIGlua3NjYXBlOnZlcnNpb249IjAuOTIuMyAoMjQwNTU0NiwgMjAxOC0wMy0xMSkiIHdpZHRoPSI1MC4wMDAwMDc2MjkzOTQ1MyIgaGVpZ2h0PSI0OS45OTAwMDE2Nzg0NjY4Ij4mI3hhOyAgPG1ldGFkYXRhIGlkPSJtZXRhZGF0YTkxNyI+JiN4YTsgICAgPHJkZjpyZGY+JiN4YTsgICAgICA8Y2M6d29yayByZGY6YWJvdXQ9IiI+JiN4YTsgICAgICAgIDxkYzpmb3JtYXQ+aW1hZ2Uvc3ZnK3htbDwvZGM6Zm9ybWF0PiYjeGE7ICAgICAgICA8ZGM6dHlwZSByZGY6cmVzb3VyY2U9Imh0dHA6Ly9wdXJsLm9yZy9kYy9kY21pdHlwZS9TdGlsbEltYWdlIi8+JiN4YTsgICAgICAgIDxkYzp0aXRsZS8+JiN4YTsgICAgICA8L2NjOndvcms+JiN4YTsgICAgPC9yZGY6cmRmPiYjeGE7ICA8L21ldGFkYXRhPiYjeGE7ICA8ZGVmcyBpZD0iZGVmczkxNSIvPiYjeGE7ICA8c29kaXBvZGk6bmFtZWR2aWV3IHBhZ2Vjb2xvcj0iI2ZmZmZmZiIgYm9yZGVyY29sb3I9IiM2NjY2NjYiIGJvcmRlcm9wYWNpdHk9IjEiIG9iamVjdHRvbGVyYW5jZT0iMTAiIGdyaWR0b2xlcmFuY2U9IjEwIiBndWlkZXRvbGVyYW5jZT0iMTAiIGlua3NjYXBlOnBhZ2VvcGFjaXR5PSIwIiBpbmtzY2FwZTpwYWdlc2hhZG93PSIyIiBpbmtzY2FwZTp3aW5kb3ctd2lkdGg9IjY0MCIgaW5rc2NhcGU6d2luZG93LWhlaWdodD0iNDgwIiBpZD0ibmFtZWR2aWV3OTEzIiBzaG93Z3JpZD0iZmFsc2UiIGlua3NjYXBlOnpvb209IjEzLjQiIGlua3NjYXBlOmN4PSIyNSIgaW5rc2NhcGU6Y3k9IjI1IiBpbmtzY2FwZTp3aW5kb3cteD0iMCIgaW5rc2NhcGU6d2luZG93LXk9IjAiIGlua3NjYXBlOndpbmRvdy1tYXhpbWl6ZWQ9IjEiIGlua3NjYXBlOmN1cnJlbnQtbGF5ZXI9IkZ4U3ltYm9sMC0wNTEiLz4mI3hhOyAgPGcgaWQ9Imc5MTAiPiYjeGE7ICAgIDx0aXRsZSBpZD0idGl0bGU5MDQiLz4mI3hhOyAgICYjeGE7JiN4YTs8c3R5bGUgdHlwZT0idGV4dC9jc3MiPi5zdDAgeyBmaWxsOiByZ2IoNzcsIDc3LCA3Nyk7IH0gPC9zdHlsZT4mI3hhOyYjeGE7JiN4YTs8cGF0aCBjbGFzcz0ic3QwIiBkPSJNNDAuMTkzIDQ0LjgzOWEyNC44OTggMjQuODk4IDAgMCAxLTE1LjE2NyA1LjE1MWMtNy41MiAwLTE0Ljk1Ni0zLjM3Ni0xOS44Ny05LjgwM0MtMy4yNCAyOS4yMjUtMS4xNjggMTMuNTQ4IDkuODE0IDUuMTQ4IDE0LjM0MyAxLjY2MyAxOS42ODYgMCAyNC45NzkgMGM3LjUyIDAgMTQuOTU4IDMuMzc2IDE5Ljg3IDkuODA5IDguMzk4IDEwLjk1OSA2LjMwNSAyNi42MzktNC42NTYgMzUuMDMiIGZpbGw9IiM1OWI0ZDkiIGlkPSJwYXRoOTA2Ii8+JiN4YTsgICAgPHBhdGggZD0iTTM1LjYgMjkuMzc4YTUuMzg1IDUuMzg1IDAgMCAwIDcuNTQxIDEuMDA0Yy4xMjMtLjA5NC4yMTgtLjIwOC4zMy0uMzA5IDIuNDA5IDEuNjk3IDQuMDgyIDIuODE3IDUuMDI1IDMuNDU5LjI3OS0uNzIzLjQ3Mi0xLjQxNy42Ny0yLjE0MmExMzAuODU3IDEzMC44NTcgMCAwIDEtNC4yOS0zLjM1NmMuNjM5LTEuNjguNDM3LTMuNjQtLjczLTUuMTcxYTUuMzYgNS4zNiAwIDAgMC02LjkzNi0xLjM3NyAyMjQuMzE3IDIyNC4zMTcgMCAwIDEtOC4yOTMtNy44MzNjOS4xNjUtNC45MjkgMTUuNjc2LTQuMjA3IDE1LjY3Ni00LjIwNy0xLjA4Ny0xLjM4Ni0yLjMwNS0yLjYtMy42MDYtMy42OTctMy44NjUtLjU5Ny05Ljg2OS0uNTMtMTYuNzI5IDMuMTE5bC0uMDAyLS4wMDNoLS4wMDFhMjAwLjMyMiAyMDAuMzIyIDAgMCAxLTYuOTgzLTcuNzEyQTIzLjI2NCAyMy4yNjQgMCAwIDAgMTMuOTYgMi41YzEuNzQ5IDIuODYyIDQuMTAyIDUuNzQ5IDYuNzU0IDguNTY1bC4wMTcuMDE3YTQ2LjI5MyA0Ni4yOTMgMCAwIDAtNi45NDQgNi4wMTVjLS4yOS4zMDktLjU2OS42Mi0uODQyLjkzMWE3LjU0NiA3LjU0NiAwIDAgMC00LjExNy4yODJDNi41NjQgMTMuNDI1IDYuNzQ2IDkuNTAxIDcuMTA0IDcuNDc4Yy0uOTgzIDEuMDMtMS45MDEgMi4xMTMtMi42OTIgMy4yNjctLjU5MSAyLjQxNS0uNzU5IDUuODk4Ljk4NSAxMC4wOTVhNy41MzggNy41MzggMCAwIDAtLjAwNSA5LjE1M2MuMTc2LjIyOS4zNjQuNDQyLjU1OS42NDVhMzcuODcgMzcuODcgMCAwIDAtMS40NiA4Ljc2MWMuMjM3LjMyMi4yMzcuNTgyLjQ3Mi44OTYgMS4xOTkgMS41MzggMi43MDUgMi44MzQgNC4xNiA0LjAwOC0uMTgtMi43NS4wMTQtNi44MDYgMS43MTQtMTEuMzcyYTcuNTA3IDcuNTA3IDAgMCAwIDMuNDgzLS41NjZjLjY0LjU2MyAxLjMxIDEuMTMyIDIuMDI1IDEuNzExYTQxLjY3MiA0MS42NzIgMCAwIDAgNy4yODUgNC42NDMgNC45NzQgNC45NzQgMCAwIDAgLjk2OCAzLjUxOCA0Ljk5OCA0Ljk5OCAwIDAgMCA2Ljk4My45MTkgNC45MTggNC45MTggMCAwIDAgMS4xMDgtMS4yMTZjMy44ODkuODY2IDcuMjg3IDEuMDE5IDkuODA2IDEuMDE5LjM4NiAwIDIuMTc3LTIuNDM2IDMuMjAzLTMuOTQ2LTEuNTM0LjMyMS02LjA4My45NDYtMTIuMy0uODRhNC45NTIgNC45NTIgMCAwIDAtLjg5OC0xLjk4Yy0xLjU3OS0yLjA3LTQuNDY2LTIuNTE4LTYuNjE4LTEuMTMzYTQ2Ljg1MyA0Ni44NTMgMCAwIDEtNi43NTgtNC40OSA0Ni40MjIgNDYuNDIyIDAgMCAxLTEuMzU5LTEuMTE4IDcuNTc4IDcuNTc4IDAgMCAwIC4zMTgtNy41NWMuMjg2LS4yODYuNTY3LS41NzMuODcxLS44NTcgMi4zMTEtMi4xNTkgNC40ODUtMy44ODcgNi41MTktNS4yNzQtLjA4Mi0uMDc2LS4xNTYtLjE1Ni0uMjM2LS4yMzMuMDgxLjA3NS4xNTcuMTUyLjIzOS4yMjdsLS4wMDIuMDAxYzMuMTIxIDIuODg2IDYuNDMgNS42MjEgOS41NjQgOC4wNjUtLjgyOSAxLjc1OC0uNjk5IDMuODk5LjU2MiA1LjU0N3oiIGNsYXNzPSJtc3BvcnRhbGZ4LXN2Zy1jMDEiIGZpbGw9IiNmZmZmZmYiIGlkPSJwYXRoOTA4Ii8+JiN4YTsgIDwvZz4mI3hhOzwvc3ZnPg==;fontSize=12;fontColor=#FFFFFF;" parent="1" vertex="1">
                    <mxGeometry x="-398" y="314.5" width="60" height="60" as="geometry"/>
                </mxCell>
                <mxCell id="122" value="backend api to operate &lt;br&gt;IoT Hub service" style="text;html=1;resizable=0;autosize=1;align=left;verticalAlign=middle;points=[];fillColor=none;strokeColor=none;rounded=0;" parent="1" vertex="1">
                    <mxGeometry x="-314" y="336" width="132" height="31" as="geometry"/>
                </mxCell>
            </root>
        </mxGraphModel>
    </diagram>
    <diagram id="Il95dyNv0lLAlT9e44i3" name="User operation Flow">
        &#xa;        &#xa;        &#xa;&#xa;&#xa;
        <mxGraphModel dx="2676" dy="-580" grid="0" gridSize="10" guides="1" tooltips="1" connect="1" arrows="1" fold="1" page="1" pageScale="1" pageWidth="850" pageHeight="1100" math="0" shadow="0">
            &#xa;            &#xa;            &#xa;&#xa;&#xa;
            <root>
                &#xa;                &#xa;                &#xa;&#xa;&#xa;
                <mxCell id="_aQ1-7uvJlDMOSvxAPLI-0"/>
                &#xa;                &#xa;                &#xa;&#xa;&#xa;
                <mxCell id="_aQ1-7uvJlDMOSvxAPLI-1" parent="_aQ1-7uvJlDMOSvxAPLI-0"/>
                &#xa;                &#xa;                &#xa;&#xa;&#xa;
                <mxCell id="n3-5ooOO3G14AsCO114j-0" value="2. Digital Twin Module Functionalities" style="shape=process;whiteSpace=wrap;html=1;backgroundOutline=1;fontColor=#ffffff;strokeColor=#3700CC;fillColor=#6a00ff;fontSize=18;" parent="_aQ1-7uvJlDMOSvxAPLI-1" vertex="1">
                    &#xa;                    &#xa;                    &#xa;&#xa;&#xa;
                    <mxGeometry x="-1630" y="1383" width="324" height="60" as="geometry"/>
                    &#xa;                    &#xa;                    &#xa;&#xa;&#xa;
                </mxCell>
                &#xa;                &#xa;                &#xa;&#xa;&#xa;
                <mxCell id="n3-5ooOO3G14AsCO114j-1" value="3. Device Management Module Functionalities" style="shape=process;whiteSpace=wrap;html=1;backgroundOutline=1;fontColor=#ffffff;strokeColor=#3700CC;fillColor=#6a00ff;fontSize=18;" parent="_aQ1-7uvJlDMOSvxAPLI-1" vertex="1">
                    &#xa;                    &#xa;                    &#xa;&#xa;&#xa;
                    <mxGeometry x="-1632" y="1694" width="324" height="60" as="geometry"/>
                    &#xa;                    &#xa;                    &#xa;&#xa;&#xa;
                </mxCell>
                &#xa;                &#xa;                &#xa;&#xa;&#xa;
                <mxCell id="n3-5ooOO3G14AsCO114j-2" value="4. Event Logs Module Functionalities" style="shape=process;whiteSpace=wrap;html=1;backgroundOutline=1;fontColor=#ffffff;strokeColor=#3700CC;fillColor=#6a00ff;fontSize=18;" parent="_aQ1-7uvJlDMOSvxAPLI-1" vertex="1">
                    &#xa;                    &#xa;                    &#xa;&#xa;&#xa;
                    <mxGeometry x="-1632" y="2046" width="324" height="60" as="geometry"/>
                    &#xa;                    &#xa;                    &#xa;&#xa;&#xa;
                </mxCell>
                &#xa;                &#xa;                &#xa;&#xa;&#xa;
                <mxCell id="iPUSHePjCTIqgq3_0Xjm-0" value="Page 2" style="text;html=1;resizable=0;autosize=1;align=center;verticalAlign=middle;points=[];fillColor=none;strokeColor=none;rounded=0;fontSize=40;labelBackgroundColor=#ffffff;fontColor=#1A1A1A;fontStyle=1" parent="_aQ1-7uvJlDMOSvxAPLI-1" vertex="1">
                    &#xa;                    &#xa;                    &#xa;&#xa;&#xa;
                    <mxGeometry x="-1632" y="1132" width="139" height="52" as="geometry"/>
                    &#xa;                    &#xa;                    &#xa;&#xa;&#xa;
                </mxCell>
                &#xa;                &#xa;                &#xa;&#xa;&#xa;
            </root>
            &#xa;            &#xa;            &#xa;&#xa;&#xa;
        </mxGraphModel>
        &#xa;        &#xa;        &#xa;&#xa;&#xa;
    </diagram>
</mxfile>